<svg xmlns="http://www.w3.org/2000/svg" viewBox="0 0 161.32 375.2"><defs><style>.cls-1{fill:#696767;}</style></defs><title>expresso-machine</title><g id="Layer_2" data-name="Layer 2"><g id="PAGE_Wholesale" data-name="PAGE Wholesale"><path class="cls-1" d="M99.81,119.22a2.83,2.83,0,0,0-.57-1.7L82.92,95.76a2.91,2.91,0,0,0-4.52,0L62.08,117.52a2.82,2.82,0,0,0-.56,1.69v46.13a7.79,7.79,0,0,0,7.79,7.79H92a7.79,7.79,0,0,0,7.79-7.79Z"/><path class="cls-1" d="M55.81,159.33V119.22a8.53,8.53,0,0,1,1.71-5.12L73.63,92.62A8.92,8.92,0,0,1,79.91,89a8.48,8.48,0,0,1,7.58,3.38l16.32,21.76a8.53,8.53,0,0,1,1.71,5.12v40.11a1.84,1.84,0,0,0,3.54.68L155.63,43.57a8.3,8.3,0,0,0-7.71-11.39H13.41A8.3,8.3,0,0,0,5.7,43.57L52.27,160A1.84,1.84,0,0,0,55.81,159.33Z"/><rect class="cls-1" width="161.32" height="26.48" rx="8.14" ry="8.14"/><path class="cls-1" d="M105.72,253.77V211.88a2.7,2.7,0,0,0-3.53-2.57c-6.54,2.08-15.23,2.78-21.53,2.78s-15-.7-21.53-2.78a2.7,2.7,0,0,0-3.53,2.57v41.89a2.7,2.7,0,0,0,3.53,2.57c6.54-2.08,15.23-2.78,21.53-2.78s15,.7,21.53,2.78A2.7,2.7,0,0,0,105.72,253.77Z"/><path class="cls-1" d="M104.08,265.8a1.43,1.43,0,0,0,0-2.52c-3.21-1.75-11-4-23.41-4s-20.21,2.27-23.42,4a1.43,1.43,0,0,0,0,2.52c3.21,1.75,11,4,23.42,4S100.87,267.55,104.08,265.8Z"/><path class="cls-1" d="M67.77,302.79h0a1.43,1.43,0,0,0,1.33,1.93H92.22a1.43,1.43,0,0,0,1.33-1.93h0a1.43,1.43,0,0,0-1.33-.92H69.11A1.43,1.43,0,0,0,67.77,302.79Z"/><path class="cls-1" d="M80.66,206.39c12.43,0,20.21-2.27,23.41-4a1.43,1.43,0,0,0,0-2.52c-3.21-1.75-11-4-23.41-4s-20.21,2.27-23.42,4a1.43,1.43,0,0,0,0,2.52C60.45,204.11,68.23,206.39,80.66,206.39Z"/><path class="cls-1" d="M26.28,325.58A125.41,125.41,0,0,0,55.71,273.1a1.88,1.88,0,0,0-.92-2.15c-3-1.59-4.89-3.69-4.89-6.42h0V201.1h0c0-8.67,19.34-11,30.76-11s30.75,2.31,30.76,11h0v63.44h0c0,2.73-1.91,4.82-4.89,6.42a1.88,1.88,0,0,0-.92,2.15A125.41,125.41,0,0,0,135,325.58l6.09,6.5a2.16,2.16,0,0,0,1.57.68h0a2.16,2.16,0,0,0,2.15-2.34L133,188.44a10.47,10.47,0,0,0-10.43-9.6H38.73a10.47,10.47,0,0,0-10.43,9.6l-11.83,142a2.16,2.16,0,0,0,2.15,2.34h0a2.16,2.16,0,0,0,1.57-.68Z"/><path class="cls-1" d="M145.71,340.56h0a2.3,2.3,0,0,0-2.29-2.11H17.91a2.3,2.3,0,0,0-2.29,2.11h0a24.3,24.3,0,0,0,1.68,11.55,23.68,23.68,0,0,0,21.82,14.52h.4v5.51a3,3,0,0,0,3,3h8.57a3,3,0,0,0,3-3v-5.51h53v5.51a3,3,0,0,0,3,3h8.57a3,3,0,0,0,3-3v-5.51h.4A23.68,23.68,0,0,0,144,352.11,24.31,24.31,0,0,0,145.71,340.56Z"/><path class="cls-1" d="M100.55,276.14A3,3,0,0,0,97.12,274a90.61,90.61,0,0,1-32.91,0,3,3,0,0,0-3.43,2.12,131.1,131.1,0,0,1-30.33,53.34h0a1.94,1.94,0,0,0,1.42,3.27h97.6a1.94,1.94,0,0,0,1.42-3.27h0A131.11,131.11,0,0,1,100.55,276.14ZM98.13,322h0a2.83,2.83,0,0,1,.48-3.59,5,5,0,0,0,1.95-3.53,3.6,3.6,0,0,0-.46-1.69,5.59,5.59,0,0,0-5-2.79H66.22a5.58,5.58,0,0,0-5,2.79,3.6,3.6,0,0,0-.46,1.69,5,5,0,0,0,1.95,3.53A2.83,2.83,0,0,1,63.2,322h0a2.84,2.84,0,0,1-4.29.64,10.55,10.55,0,0,1-3.84-7.76,9.57,9.57,0,0,1,2-5.72A47.3,47.3,0,0,0,63.48,298h0a2.93,2.93,0,0,1,2.73-1.88h28.9A2.93,2.93,0,0,1,97.85,298h0a47.3,47.3,0,0,0,6.41,11.13,9.57,9.57,0,0,1,2,5.72,10.55,10.55,0,0,1-3.84,7.76A2.84,2.84,0,0,1,98.13,322Z"/></g></g></svg>