<svg xmlns="http://www.w3.org/2000/svg" viewBox="0 0 147.29 50.34"><defs><style>.cls-1{fill:#af976d;}.cls-2{fill:#696767;}</style></defs><title>coffee-mug_1</title><g id="Layer_2" data-name="Layer 2"><g id="PAGE_Home" data-name="PAGE Home"><path class="cls-1" d="M98.5,50.34H56.36a1.28,1.28,0,0,1-1.1-.63L53.8,47.2a1.28,1.28,0,0,1,1.1-1.92H100a1.28,1.28,0,0,1,1.1,1.92l-1.46,2.5A1.28,1.28,0,0,1,98.5,50.34Z"/><path class="cls-1" d="M104.56,0H52.44a2.37,2.37,0,0,0-2.37,2.37A2.37,2.37,0,0,1,47.7,4.74H45.17A10.33,10.33,0,0,0,34.78,13.9,10.15,10.15,0,0,0,44.87,25H48a2.39,2.39,0,0,1,2.38,2A17.6,17.6,0,0,0,67.68,41.63H89.32A17.61,17.61,0,0,0,106.93,24V2.37A2.37,2.37,0,0,0,104.56,0ZM50.07,17.54a2.37,2.37,0,0,1-2.37,2.37H44.87a5,5,0,0,1-5-5.7A5.15,5.15,0,0,1,45,9.84H47.7a2.37,2.37,0,0,1,2.37,2.37ZM103.28,7.35V24a13.89,13.89,0,0,1-4.33,10.09A2.88,2.88,0,0,1,94.12,32V6.53A2.88,2.88,0,0,1,97,3.65h3.4a2.88,2.88,0,0,1,2.88,2.88Z"/><path class="cls-2" d="M.86,24.29a.51.51,0,0,0,.31-.1.47.47,0,0,0,.13-.4V17.93l-.29,0L.69,18a1.17,1.17,0,0,0-.29.12.42.42,0,0,0-.18.22H0V16.14H.21a.22.22,0,0,0,.16.22.83.83,0,0,0,.3.06.72.72,0,0,0,.5-.18.59.59,0,0,0,.2-.45c0-.16,0-.27-.11-.32a.9.9,0,0,0-.31-.11v-.21H3.79v.21a1,1,0,0,0-.35.12.29.29,0,0,0-.14.26v8a.45.45,0,0,0,.14.4.55.55,0,0,0,.32.1v.21H.86Z"/><path class="cls-2" d="M10.93,21.78l.21.11a1,1,0,0,0,0,.21.49.49,0,0,0,.1.21,1.52,1.52,0,0,0,.47.4,3.31,3.31,0,0,0,.64.27,4.08,4.08,0,0,0,.69.15,5.14,5.14,0,0,0,.63,0,2.61,2.61,0,0,0,2.92-2.76,13.31,13.31,0,0,1-1.48.63,4.56,4.56,0,0,1-1.55.26,5.63,5.63,0,0,1-1.3-.16,4,4,0,0,1-1.2-.49,2.8,2.8,0,0,1-.88-.86,2.27,2.27,0,0,1-.34-1.26,2.83,2.83,0,0,1,.4-1.53,3.36,3.36,0,0,1,1-1,4.59,4.59,0,0,1,1.41-.61,6.46,6.46,0,0,1,1.56-.19,4.65,4.65,0,0,1,1.77.33,4,4,0,0,1,2.27,2.31,4.83,4.83,0,0,1,.32,1.78,5.63,5.63,0,0,1-.36,2.06,4.38,4.38,0,0,1-2.62,2.58,5.89,5.89,0,0,1-2.06.34,6.76,6.76,0,0,1-1.34-.11,4.43,4.43,0,0,1-.92-.28q-.37-.17-.6-.3a.8.8,0,0,0-.37-.13.54.54,0,0,0-.33.11l-.14-.12Zm3.18-5.11a4.28,4.28,0,0,0-.83.08,2.29,2.29,0,0,0-.72.26,1.39,1.39,0,0,0-.5.49,1.67,1.67,0,0,0,0,1.53,1.39,1.39,0,0,0,.5.49,2.31,2.31,0,0,0,.72.26,4.35,4.35,0,0,0,1.65,0,2.32,2.32,0,0,0,.72-.26,1.39,1.39,0,0,0,.5-.49,1.68,1.68,0,0,0,0-1.53,1.39,1.39,0,0,0-.5-.49,2.29,2.29,0,0,0-.72-.26A4.29,4.29,0,0,0,14.11,16.66Z"/><path class="cls-2" d="M127.72,21.78l.21.11a1,1,0,0,0,0,.21.5.5,0,0,0,.1.21,1.52,1.52,0,0,0,.47.4,3.27,3.27,0,0,0,.64.27,4.08,4.08,0,0,0,.69.15,5.15,5.15,0,0,0,.63,0,2.61,2.61,0,0,0,2.92-2.76,13.31,13.31,0,0,1-1.48.63,4.56,4.56,0,0,1-1.55.26,5.64,5.64,0,0,1-1.3-.16,4,4,0,0,1-1.2-.49,2.8,2.8,0,0,1-.88-.86,2.27,2.27,0,0,1-.34-1.26,2.83,2.83,0,0,1,.4-1.53,3.37,3.37,0,0,1,1-1,4.59,4.59,0,0,1,1.41-.61,6.46,6.46,0,0,1,1.55-.19,4.64,4.64,0,0,1,1.77.33,4.05,4.05,0,0,1,1.38.91,4.11,4.11,0,0,1,.9,1.4,4.83,4.83,0,0,1,.32,1.78,5.63,5.63,0,0,1-.36,2.06,4.49,4.49,0,0,1-1,1.58,4.44,4.44,0,0,1-1.59,1,5.89,5.89,0,0,1-2.06.34,6.77,6.77,0,0,1-1.34-.11,4.44,4.44,0,0,1-.92-.28q-.37-.17-.6-.3a.8.8,0,0,0-.37-.13.54.54,0,0,0-.33.11l-.14-.12Zm3.18-5.11a4.28,4.28,0,0,0-.83.08,2.29,2.29,0,0,0-.72.26,1.39,1.39,0,0,0-.5.49,1.67,1.67,0,0,0,0,1.53,1.39,1.39,0,0,0,.5.49,2.32,2.32,0,0,0,.72.26,4.35,4.35,0,0,0,1.65,0,2.32,2.32,0,0,0,.72-.26,1.4,1.4,0,0,0,.5-.49,1.67,1.67,0,0,0,0-1.53,1.4,1.4,0,0,0-.5-.49,2.29,2.29,0,0,0-.72-.26A4.29,4.29,0,0,0,130.9,16.66Z"/><path class="cls-2" d="M139.07,22.92a1,1,0,0,0-.45.08.32.32,0,0,0-.15.31h-.21v-2l4.51-4.9.35-.4a.53.53,0,0,0,.16-.29.18.18,0,0,0-.11-.18l-.19-.1v-.21h3.41v.21a.4.4,0,0,0-.26.09.3.3,0,0,0-.11.25v5.61h.56a.77.77,0,0,0,.36-.07q.13-.07.13-.35h.21v2.37h-.21q0-.3-.13-.37a.77.77,0,0,0-.36-.07H146v.88a.51.51,0,0,0,.11.4.36.36,0,0,0,.24.1v.21h-2.65v-.21a.57.57,0,0,0,.33-.1.45.45,0,0,0,.14-.4v-.88Zm5.13-5.87-4,4.36h4Z"/></g></g></svg>