<svg xmlns="http://www.w3.org/2000/svg" viewBox="0 0 229.82 306.64"><defs><style>.cls-1{fill:#696767;}</style></defs><title>espresso-machine</title><g id="Layer_2" data-name="Layer 2"><g id="PAGE_Wholesale" data-name="PAGE Wholesale"><rect class="cls-1" x="138.43" y="175.31" width="12.17" height="1.71"/><path class="cls-1" d="M158.23,180.25l61.65,3.24a.76.76,0,0,0,.61-.23.81.81,0,0,0,.26-.6v-13a.83.83,0,0,0-.83-.83h0l-61.65,3.24a.83.83,0,0,0-.79.83v6.51A.83.83,0,0,0,158.23,180.25Z"/><rect class="cls-1" x="98.96" y="165.47" width="31.9" height="19.47" rx="1.71" ry="1.71"/><rect class="cls-1" x="98.96" y="165.47" width="31.9" height="19.47" rx="1.71" ry="1.71"/><path class="cls-1" d="M159.89,120.75V146.6a9.87,9.87,0,0,1-2.89,7l-9,9a9.87,9.87,0,0,1-7,2.89h-2a1.71,1.71,0,0,0-1.71,1.71h0a1.71,1.71,0,0,0,1.71,1.71h13.27a7.23,7.23,0,0,1,5.64-3.22l37.3-2a4.9,4.9,0,0,0,4.65-4.9V120.75a4.9,4.9,0,0,0-4.9-4.9H164.8A4.9,4.9,0,0,0,159.89,120.75Z"/><path class="cls-1" d="M84.48,156.17l-5.25-5.24a9.87,9.87,0,0,1-2.89-7V120.21a4.36,4.36,0,0,1,4.36-4.36h68.42a4.36,4.36,0,0,1,4.36,4.36v23.74a9.87,9.87,0,0,1-2.89,7l-5.25,5.24a9.87,9.87,0,0,1-7,2.89H91.46A9.87,9.87,0,0,1,84.48,156.17ZM149.74,177H139.29a.86.86,0,0,1-.86-.86h0a.86.86,0,0,1,.86-.86h10.46a.86.86,0,0,1,.86.86h0A.86.86,0,0,1,149.74,177Z"/><path class="cls-1" d="M158.23,180.25l61.65,3.24a.76.76,0,0,0,.61-.23.81.81,0,0,0,.26-.6v-13a.83.83,0,0,0-.83-.83h0l-61.65,3.24a.83.83,0,0,0-.79.83v6.51A.83.83,0,0,0,158.23,180.25Z"/><path class="cls-1" d="M34.87,306.64H194.95a18.46,18.46,0,0,0,16.45-10.08l12.21-24a5,5,0,0,0-4.45-7.26H10.66a5,5,0,0,0-4.45,7.26l12.21,24A18.46,18.46,0,0,0,34.87,306.64Z"/><path class="cls-1" d="M199.85,193.51a4.9,4.9,0,0,0-4.65-4.9l-37.3-2a7.23,7.23,0,0,1-5.64-3.22H139a1.71,1.71,0,0,0-1.71,1.71v4.5a1.71,1.71,0,0,1-1.71,1.71H94.25a1.71,1.71,0,0,1-1.71-1.71V167.18a1.71,1.71,0,0,0-1.71-1.71h-2a9.87,9.87,0,0,1-7-2.89l-9-9a9.87,9.87,0,0,1-2.89-7V120.75a4.9,4.9,0,0,0-4.9-4.9H34.88a4.9,4.9,0,0,0-4.9,4.9V254a4.9,4.9,0,0,0,4.9,4.9H87.26a2.08,2.08,0,0,0,1.56-3.46,18.88,18.88,0,0,1-4.49-10.79H79a11.65,11.65,0,0,1-11.69-9.89,11.4,11.4,0,0,1,11.29-12.89h5.6v-2.4a2.25,2.25,0,0,1,2.25-2.25h56.81a2.25,2.25,0,0,1,2.25,2.25v23.65A18.91,18.91,0,0,1,141,255.47a2.08,2.08,0,0,0,1.58,3.42h52.37a4.9,4.9,0,0,0,4.9-4.9Z"/><path class="cls-1" d="M73.78,234.24a5.1,5.1,0,0,0,5.07,4h3.31a2.1,2.1,0,0,0,2.1-2.1v-5.74a2.1,2.1,0,0,0-2.1-2.1H78.65A5,5,0,0,0,73.78,234.24Z"/><rect class="cls-1" x="76.35" y="53.24" width="77.13" height="34.97" rx="2.71" ry="2.71"/><circle class="cls-1" cx="43.48" cy="70.73" r="6.15"/><circle class="cls-1" cx="186.34" cy="70.73" r="6.15"/><path class="cls-1" d="M228.25,32.68C165.64-10.9,64-10.89,1.57,32.68a3.67,3.67,0,0,0-1.57,3v70.08a3.67,3.67,0,0,0,3.67,3.67H226.16a3.67,3.67,0,0,0,3.67-3.67V35.69A3.67,3.67,0,0,0,228.25,32.68ZM43.48,83.3A12.57,12.57,0,1,1,56.05,70.73,12.58,12.58,0,0,1,43.48,83.3Zm116.41,8.62a2.71,2.71,0,0,1-2.71,2.71H72.64a2.71,2.71,0,0,1-2.71-2.71V49.54a2.71,2.71,0,0,1,2.71-2.71h84.54a2.71,2.71,0,0,1,2.71,2.71Zm26.45-8.62a12.57,12.57,0,1,1,12.57-12.57A12.58,12.58,0,0,1,186.34,83.3Z"/></g></g></svg>