<svg xmlns="http://www.w3.org/2000/svg" viewBox="0 0 307.12 308.72"><defs><style>.cls-1{fill:#605d5b;}</style></defs><title>king-bean-stamp</title><g id="Layer_2" data-name="Layer 2"><g id="PAGE_Wholesale" data-name="PAGE Wholesale"><path class="cls-1" d="M15.5,100.44l-.17,0-.21,0q-.21-.07-.69.22a5,5,0,0,0-1.07.94,10.46,10.46,0,0,0-1.15,1.6,11.17,11.17,0,0,0-1,2.18,9.21,9.21,0,0,0-.51,2.82,6.34,6.34,0,0,0,.46,2.5,5.52,5.52,0,0,0,1.46,2A7,7,0,0,0,15.09,114a6.43,6.43,0,0,0,2.83.33,6.9,6.9,0,0,0,2.5-.78,6.47,6.47,0,0,0,2-1.62,7,7,0,0,0,1.21-2.19,9.77,9.77,0,0,0,.47-2.35,15.86,15.86,0,0,0,0-2.32,7.27,7.27,0,0,0-.33-1.82q-.25-.75-.62-.87l-.33-.11a1.81,1.81,0,0,0-.42-.1l-.26-.59L27.5,100l.07.48a2.32,2.32,0,0,0-.44.63,3,3,0,0,0,0,1.19q.12.86.21,2.15a16.16,16.16,0,0,1-.08,2.89,16.49,16.49,0,0,1-.79,3.45,14.11,14.11,0,0,1-1.79,3.55,9.49,9.49,0,0,1-6.5,4.07,9.13,9.13,0,0,1-4.34-.45,9,9,0,0,1-3.72-2.25A9.39,9.39,0,0,1,8,112.41a10.63,10.63,0,0,1-.61-4,14.28,14.28,0,0,1,.74-4.11,13.94,13.94,0,0,1,1.24-2.75,17.94,17.94,0,0,1,1.42-2.06q.7-.86,1.21-1.42a3,3,0,0,0,.6-.85.55.55,0,0,0,0-.39,1.61,1.61,0,0,1-.1-.38l.45-.4,3,4Z"/><path class="cls-1" d="M21.36,75.6a16.1,16.1,0,0,1,2.8-3.55,10.72,10.72,0,0,1,3.42-2.22,8.66,8.66,0,0,1,3.88-.57,9.6,9.6,0,0,1,4.17,1.41,9.62,9.62,0,0,1,3.24,3,8.67,8.67,0,0,1,1.37,3.67,9.9,9.9,0,0,1-.35,4,18.81,18.81,0,0,1-4.56,7.71A9.87,9.87,0,0,1,32,91.32a8.66,8.66,0,0,1-3.88.57,9.6,9.6,0,0,1-4.17-1.41,9.6,9.6,0,0,1-3.24-3,8.67,8.67,0,0,1-1.37-3.67,10.75,10.75,0,0,1,.29-4.07A16.11,16.11,0,0,1,21.36,75.6Zm2.76,1.63a8.24,8.24,0,0,0-1,2.56,7.65,7.65,0,0,0-.08,2.69A6.42,6.42,0,0,0,24,85a6.43,6.43,0,0,0,4.77,2.82,6.43,6.43,0,0,0,2.62-.39A7.66,7.66,0,0,0,33.68,86a8.27,8.27,0,0,0,2.75-4.66,7.65,7.65,0,0,0,.08-2.69,6.4,6.4,0,0,0-.92-2.48,6.42,6.42,0,0,0-4.77-2.82,6.44,6.44,0,0,0-2.62.39,7.64,7.64,0,0,0-2.32,1.37A8.24,8.24,0,0,0,24.12,77.23Z"/><path class="cls-1" d="M49.82,45.64a.53.53,0,0,0-.51-.05,2,2,0,0,0-.85.63l-7.92,8.64L43.92,58l5.15-5.61q.5-.54.5-.77a.76.76,0,0,0-.22-.5l.53-.57,3.35,3.07-.53.57a.87.87,0,0,0-.53-.19q-.24,0-.74.55l-5.15,5.61,4.88,4.47a.51.51,0,0,0,.57.11,1.51,1.51,0,0,0,.58-.41l.57.53-4,4.4-.57-.53q.56-.6.08-1L36.43,56.73q-.48-.44-1.09.23l-.57-.53L46.11,44.06a1.84,1.84,0,0,0,.54-.91.66.66,0,0,0-.21-.6L47,42l3.38,3.1Z"/><path class="cls-1" d="M73.44,27a.53.53,0,0,0-.49-.15,2,2,0,0,0-1,.45l-9.48,6.9L65.22,38l6.16-4.48Q72,33,72,32.81a.77.77,0,0,0-.12-.53l.63-.46,2.67,3.67-.63.46a.87.87,0,0,0-.48-.29q-.24,0-.84.39L67.1,40.54,71,45.89a.52.52,0,0,0,.54.22,1.53,1.53,0,0,0,.65-.29l.46.63L67.81,50l-.46-.63q.66-.48.28-1L58.12,35.25q-.38-.52-1.12,0l-.46-.63,13.57-9.88a1.86,1.86,0,0,0,.71-.79.66.66,0,0,0-.09-.63l.63-.46,2.7,3.71Z"/><path class="cls-1" d="M99.4,14.17q-.34-.75-1.56-.19l-9.6,4.38L90,22.3l6.06-2.77A3.93,3.93,0,0,0,97,19a.53.53,0,0,0,.07-.67l.71-.32,1.9,4.17-.79.36a.41.41,0,0,0-.56-.39,6.48,6.48,0,0,0-1.27.46l-5.75,2.62,2.12,4.64,10.08-4.6a1.49,1.49,0,0,0,.69-.58.73.73,0,0,0,.05-.71l.71-.32,1.89,4.13-.71.32a.38.38,0,0,0-.5-.25,7.12,7.12,0,0,0-.8.32L90.43,34.77l-.32-.71a.75.75,0,0,0,.33-.32.56.56,0,0,0,0-.54L83.71,18.48a.57.57,0,0,0-.4-.36.75.75,0,0,0-.46,0l-.32-.71,14-6.38q1.22-.56.9-1.26l.71-.32,2,4.37Z"/><path class="cls-1" d="M128.32,6.11q-.18-.8-1.49-.5L116.54,8l1,4.22L124,10.7a4,4,0,0,0,1-.35.53.53,0,0,0,.21-.65l.76-.17L127,14l-.84.19a.41.41,0,0,0-.47-.49,6.5,6.5,0,0,0-1.33.2l-6.16,1.42,1.14,5,10.79-2.48a1.49,1.49,0,0,0,.79-.43.73.73,0,0,0,.2-.69l.76-.17,1,4.43-.76.17a.38.38,0,0,0-.43-.34,7.07,7.07,0,0,0-.85.15l-15.47,3.56-.17-.76a.75.75,0,0,0,.39-.24.56.56,0,0,0,.1-.53L112.09,7.18a.57.57,0,0,0-.32-.44.76.76,0,0,0-.46-.05l-.17-.76,15-3.44q1.31-.3,1.13-1.06l.76-.17,1.08,4.68Z"/><path class="cls-1" d="M177.87,5.54q0-.22-.26-.44a2,2,0,0,0-1-.29L164.93,3.67l-.44,4.56,7.58.73a1.64,1.64,0,0,0,.92-.06.76.76,0,0,0,.26-.47l.78.07L173.58,13l-.78-.08a.87.87,0,0,0-.17-.54,1.49,1.49,0,0,0-.89-.26l-7.58-.73L163.54,18a.51.51,0,0,0,.25.52,1.53,1.53,0,0,0,.67.22l-.08.78L158.45,19l.07-.78c.54.05.84-.14.88-.57L161,1.51q.06-.65-.84-.73L160.2,0,176.9,1.62A1.86,1.86,0,0,0,178,1.5a.66.66,0,0,0,.36-.53l.78.08-.44,4.57Z"/><path class="cls-1" d="M200.43,7a16.09,16.09,0,0,1,4.09,1.93,10.74,10.74,0,0,1,2.94,2.83,8.68,8.68,0,0,1,1.43,3.65,9.61,9.61,0,0,1-.43,4.38,9.62,9.62,0,0,1-2.16,3.83A8.66,8.66,0,0,1,203,25.79a9.9,9.9,0,0,1-4,.57,18.83,18.83,0,0,1-8.54-2.7,9.89,9.89,0,0,1-3-2.77,8.65,8.65,0,0,1-1.43-3.65,9.6,9.6,0,0,1,.43-4.38A9.61,9.61,0,0,1,188.67,9a8.66,8.66,0,0,1,3.27-2.16,10.72,10.72,0,0,1,4-.63A16.08,16.08,0,0,1,200.43,7Zm-1,3.05a8.25,8.25,0,0,0-2.71-.38,7.62,7.62,0,0,0-2.64.53,6.42,6.42,0,0,0-2.21,1.46,5.94,5.94,0,0,0-1.43,2.45,5.93,5.93,0,0,0-.24,2.83,6.41,6.41,0,0,0,1,2.46,7.67,7.67,0,0,0,1.86,1.95A8.28,8.28,0,0,0,198.21,23a7.66,7.66,0,0,0,2.64-.53A6.4,6.4,0,0,0,203.06,21a5.94,5.94,0,0,0,1.43-2.45,6,6,0,0,0,.24-2.83,6.4,6.4,0,0,0-1-2.46,7.65,7.65,0,0,0-1.86-1.95A8.25,8.25,0,0,0,199.46,10.06Z"/><path class="cls-1" d="M232.72,21.79a11.87,11.87,0,0,1,4.56,4.12,4.64,4.64,0,0,1-.31,4.85,4.79,4.79,0,0,1-1.42,1.58,5.23,5.23,0,0,1-1.78.79,6.09,6.09,0,0,1-1.91.14,8.93,8.93,0,0,1-1.85-.35l.57,7.48a2.48,2.48,0,0,0,.3,1,3.66,3.66,0,0,0,.58.76l-.39.67-5.73-3.32.39-.67q.49.28.68-.06a2.83,2.83,0,0,0,.11-1.49l-.4-6.13-5.2-3-3.1,5.35a.52.52,0,0,0,0,.57,1.13,1.13,0,0,0,.39.4l-.39.67-5-2.88.39-.67q.67.39,1-.17l8.11-14q.33-.56-.35-1l.39-.67Zm-4.2,7.07q3.67,2.13,5-.2a1.92,1.92,0,0,0,0-2A6.34,6.34,0,0,0,231,24.52l-5.92-3.43-2.52,4.34Z"/><path class="cls-1" d="M253.78,62.24a.75.75,0,0,0,.4.22.57.57,0,0,0,.52-.17l10.81-9.53-3.72-4.22a1.27,1.27,0,0,0-.56-.37.6.6,0,0,0-.62.14l-.52-.58,3.73-3.29.51.58a1,1,0,0,0-.42.77,1.09,1.09,0,0,0,.27.63L274.37,58a1.09,1.09,0,0,0,.59.34,1,1,0,0,0,.82-.32l.51.58-3.73,3.29L272,61.3a.6.6,0,0,0,.22-.6,1.3,1.3,0,0,0-.3-.6l-3.72-4.22-10.81,9.53q-.49.43,0,1l-.58.51-3.69-4.19Z"/><path class="cls-1" d="M269.67,81.92a.59.59,0,0,0-.34.41.72.72,0,0,0,.09.47l-.68.38-2.68-4.75.68-.38a.71.71,0,0,0,.35.32.59.59,0,0,0,.53-.08l14.09-8a.59.59,0,0,0,.34-.41.72.72,0,0,0-.09-.47l.68-.38,2.68,4.75-.68.38a.72.72,0,0,0-.36-.32.59.59,0,0,0-.53.08l-5.31,3,5.7,10.1,5.31-3a.59.59,0,0,0,.34-.41.72.72,0,0,0-.09-.47l.68-.38,2.68,4.75-.68.38a.72.72,0,0,0-.36-.32.59.59,0,0,0-.53.08l-14.09,8a.59.59,0,0,0-.34.41.72.72,0,0,0,.09.47l-.68.38-2.68-4.75.68-.38a.71.71,0,0,0,.36.32.59.59,0,0,0,.53-.07l5.69-3.21-5.7-10.1Z"/><path class="cls-1" d="M299.56,118.07q.79-.24.4-1.52l-3.07-10.1-4.14,1.26,1.94,6.38a4,4,0,0,0,.42,1,.53.53,0,0,0,.66.16l.23.75-4.39,1.33-.25-.83a.41.41,0,0,0,.46-.5,6.4,6.4,0,0,0-.29-1.31l-1.84-6-4.88,1.49,3.22,10.6a1.49,1.49,0,0,0,.48.76.73.73,0,0,0,.7.15l.23.75-4.35,1.32-.23-.75a.38.38,0,0,0,.31-.46,7.27,7.27,0,0,0-.21-.84l-4.62-15.19.75-.23a.75.75,0,0,0,.27.37.56.56,0,0,0,.54.06L297.37,102a.56.56,0,0,0,.41-.35.76.76,0,0,0,0-.46l.75-.23,4.47,14.7q.39,1.28,1.13,1.06l.23.75-4.59,1.4Z"/><path class="cls-1" d="M46.24,151.42H2.83a1.32,1.32,0,0,1-1.14-.65L.18,148.19a1.32,1.32,0,0,1,1.14-2H47.75a1.32,1.32,0,0,1,1.14,2l-1.51,2.58A1.32,1.32,0,0,1,46.24,151.42Z"/><path class="cls-1" d="M304.29,151.42H260.88a1.32,1.32,0,0,1-1.14-.65l-1.51-2.58a1.32,1.32,0,0,1,1.14-2H305.8a1.32,1.32,0,0,1,1.14,2l-1.51,2.58A1.32,1.32,0,0,1,304.29,151.42Z"/><path class="cls-1" d="M153.13,84.3a.74.74,0,0,0-.67,0,1,1,0,0,0-.44,1c0,.5-.09,1-.12,1.5-.08,1-.18,2.08-.34,3.11-.28,1.78-.65,3.55-1,5.32-2.52,11.32-8.24,37.16-24.65,35.48-9.48-1-17.12-10.11-22.38-17.26a1.16,1.16,0,0,0-2,1c5.07,17.52,11.07,41.17,12.88,48.36a1.16,1.16,0,0,0,2,.52c3.49-3.54,13.91-11.56,36.8-11.65,23.29-.09,33.92,8.18,37.4,11.72a1.16,1.16,0,0,0,1.94-.49c2-7.11,8.81-31.15,14.1-48.79a1.16,1.16,0,0,0-2-1c-.94,1.13-1.81,2.31-2.75,3.43-5.8,6.84-14.84,15.88-24.75,14-6.17-1.15-10.41-6.5-13.3-11.68q-.78-1.41-1.49-2.86a74.76,74.76,0,0,1-4-10.22c-1.11-3.52-2-7.1-2.78-10.71q-.57-2.69-1.06-5.4-.24-1.34-.47-2.69c-.07-.42-.34-2.05-.36-2.24A.64.64,0,0,0,153.13,84.3Z"/><path class="cls-1" d="M154.5,189.61a76.81,76.81,0,0,1-35,3.13,2.12,2.12,0,0,0-2,3.33c5.69,8.31,19.85,14.2,36.42,14.2,18.66,0,34.27-7.46,38.17-17.44a4.53,4.53,0,0,0-3.55-6.09A73.31,73.31,0,0,0,154.5,189.61Z"/><path class="cls-1" d="M153.39,182.8a76.82,76.82,0,0,1,35-3.13,2.12,2.12,0,0,0,2-3.33c-5.69-8.31-19.85-14.2-36.42-14.2-18.66,0-34.27,7.46-38.17,17.44a4.53,4.53,0,0,0,3.55,6.09A73.29,73.29,0,0,0,153.39,182.8Z"/><path class="cls-1" d="M52.62,125.1q.28.08.39-.27l.34.1-.74,2.45-.34-.1a.27.27,0,0,0-.19-.39l-7-2.12a.27.27,0,0,0-.37.21l-.34-.1.74-2.45.34.1c-.07.24,0,.38.17.44l3.05.92c-.22-.53-.44-1.07-.66-1.63s-.42-1.06-.62-1.51-.35-.83-.49-1.13-.23-.46-.28-.47a.18.18,0,0,0-.18.06.43.43,0,0,0-.12.18l-.28-.08.93-3.09.34.1a2.76,2.76,0,0,0,.23.8L49.13,121l4.56-1.85.72-.31a1.22,1.22,0,0,0,.52-.41l.34.1-.84,2.77-.34-.1q.06-.21,0-.24a.46.46,0,0,0-.23,0,4.27,4.27,0,0,0-.51.2l-3.5,1.45.72,1.81Z"/><path class="cls-1" d="M56,116a.94.94,0,0,0,.1-.43.24.24,0,0,0-.16-.19l-6.79-2.73a.24.24,0,0,0-.25,0,.94.94,0,0,0-.22.38l-.33-.13,1.11-2.76.33.13c-.14.34-.11.54.07.62l6.79,2.73c.18.07.34-.06.48-.4l.33.13-1.11,2.76Z"/><path class="cls-1" d="M58.65,109.41q.16-.31-.1-.45l-6.48-3.39c-.17-.09-.31,0-.42.18l-.31-.16L52.67,103l.31.16c0,.09,0,.14,0,.17a1.6,1.6,0,0,0,.67-.14l6.58-1.86-4.7-2.46c-.17-.09-.32,0-.44.21L54.8,99l1.11-2.12.31.16c-.11.21-.08.36.1.45l6.48,3.39c.17.09.31,0,.42-.18l.31.16-1.18,2.25-.31-.16c0-.08,0-.14,0-.17a.59.59,0,0,0-.33,0l-.59.16-6.82,1.91,5,2.64q.26.14.45-.23l.31.16L59,109.57Z"/><path class="cls-1" d="M65.13,88.05l-.25.11L64.73,88a.54.54,0,0,0-.46,0,2.85,2.85,0,0,0-.69.33,4.87,4.87,0,0,0-.76.6,5.13,5.13,0,0,0-.69.8A5.48,5.48,0,0,0,61.49,91a3.26,3.26,0,0,0-.21,1.23,2.66,2.66,0,0,0,.32,1.17,3,3,0,0,0,1,1,2.77,2.77,0,0,0,1.31.53,2.66,2.66,0,0,0,1.2-.15,3.47,3.47,0,0,0,1-.62,4.69,4.69,0,0,0,.8-.87,10.45,10.45,0,0,0,.81-1.38,4.32,4.32,0,0,0,.42-1.39l-1-.7L66,91.46a.74.74,0,0,0-.14.36.42.42,0,0,0,.15.34l-.2.29L64.14,91.3l.2-.29a.31.31,0,0,0,.32,0,1.09,1.09,0,0,0,.26-.27l2.19-3.15.29.2a.51.51,0,0,0,0,.29.57.57,0,0,0,.21.21l1.53,1.06a.45.45,0,0,0,.23.1.58.58,0,0,0,.26-.12l.19.13q0,.21-.05.64a6.4,6.4,0,0,1-.22,1,8.73,8.73,0,0,1-.5,1.29,10.52,10.52,0,0,1-.87,1.47,8.61,8.61,0,0,1-1.54,1.72,4.83,4.83,0,0,1-1.69.95,3.82,3.82,0,0,1-1.76.11,4.67,4.67,0,0,1-3-2.11,3.9,3.9,0,0,1-.52-1.69,5,5,0,0,1,.27-1.93A8.11,8.11,0,0,1,61,88.86a6,6,0,0,1,.88-1,8.75,8.75,0,0,1,.82-.67,6.44,6.44,0,0,1,.65-.43,1.05,1.05,0,0,0,.35-.26.71.71,0,0,0,.11-.21.77.77,0,0,0,0-.23l.23-.13Z"/><path class="cls-1" d="M71.92,76.49a.23.23,0,0,0-.26-.06.71.71,0,0,0-.26.16l-.25-.25,4.33-4.27a4.17,4.17,0,0,1,1-.77,2.73,2.73,0,0,1,1-.29,2,2,0,0,1,.87.12,2,2,0,0,1,.7.46,1.79,1.79,0,0,1,.38.55,2.18,2.18,0,0,1,.17.6,3,3,0,0,1,0,.6,2.23,2.23,0,0,1-.11.55h0a2.93,2.93,0,0,1,.61-.16,2.39,2.39,0,0,1,.68,0,2.46,2.46,0,0,1,.69.2,2.1,2.1,0,0,1,.63.45,2.2,2.2,0,0,1,.49.75,1.9,1.9,0,0,1,.11.91,2.85,2.85,0,0,1-.36,1.06,5.16,5.16,0,0,1-.92,1.17l-4.28,4.21-.25-.25A.72.72,0,0,0,77.1,82a.23.23,0,0,0-.05-.26Zm5.75-1.79a2,2,0,0,0,.49-.76.8.8,0,0,0-.27-.86.93.93,0,0,0-.43-.27.88.88,0,0,0-.42,0,1,1,0,0,0-.39.19,3.57,3.57,0,0,0-.35.31l-2.48,2.44,1.37,1.39Zm2.61,2.7a1.9,1.9,0,0,0,.67-1.07,1,1,0,0,0-.34-.82,1,1,0,0,0-.94-.34,2.68,2.68,0,0,0-1.24.81l-2.23,2.2,1.62,1.64Z"/><path class="cls-1" d="M88.26,63.68q-.23-.29-.71.08L83.79,66.7,85,68.24l2.38-1.85a1.78,1.78,0,0,0,.36-.34.24.24,0,0,0,0-.3l.28-.22,1.27,1.63-.31.24a.19.19,0,0,0-.29-.11,3,3,0,0,0-.51.33l-2.25,1.76,1.42,1.82,3.95-3.08a.68.68,0,0,0,.24-.32.33.33,0,0,0,0-.32l.28-.22L93,68.88l-.28.22a.17.17,0,0,0-.24-.06,3.06,3.06,0,0,0-.32.23l-5.66,4.42-.22-.28a.33.33,0,0,0,.11-.17.26.26,0,0,0-.06-.24l-4.5-5.77a.25.25,0,0,0-.21-.12.34.34,0,0,0-.2.07l-.22-.28,5.48-4.27c.32-.25.41-.47.26-.65l.28-.22,1.34,1.71Z"/><path class="cls-1" d="M94.4,67.14a.59.59,0,0,0,.21-.39,2,2,0,0,0,0-.41l-.86-6.94c0-.2-.05-.35-.07-.47a.86.86,0,0,0-.11-.31c0-.07-.08-.1-.12-.1h-.13l-.18-.3,2.51-1.55.19.3a.49.49,0,0,1-.08.12s0,.09,0,.17a.61.61,0,0,0,.22.2l.36.23,6.19,4a.73.73,0,0,0,.32.1.89.89,0,0,0,.28,0l.19.3L101,63.5l-.15-.25a.45.45,0,0,0,.14-.16.22.22,0,0,0,0-.24.58.58,0,0,0-.15-.16l-.22-.17-1-.67L96,64l.09,1.19a3,3,0,0,0,0,.31.64.64,0,0,0,.08.22c.05.09.12.13.19.12a.77.77,0,0,0,.25-.11l.19.3-2.23,1.38Zm3.86-6.19-3.07-2,.54,3.53Z"/><path class="cls-1" d="M105.43,60.53q.32-.15.2-.41l-3.07-6.64c-.08-.18-.23-.22-.44-.12L102,53l2.61-1.21.15.32c-.08,0-.11.1-.08.15s.23.16.61.3l6.35,2.54-2.22-4.81c-.08-.18-.24-.21-.48-.1l-.15-.32,2.17-1,.15.32c-.21.1-.28.24-.2.41l3.07,6.64q.12.27.44.12l.15.32-2.31,1.07-.15-.32c.08,0,.11-.09.08-.15s-.12-.1-.28-.17l-.57-.23-6.57-2.65,2.39,5.17q.12.27.5.09l.15.32-2.18,1Z"/><path class="cls-1" d="M129.57,45.64l0-.07a.4.4,0,0,1,0-.09c0-.06-.1-.13-.25-.21a2.29,2.29,0,0,0-.62-.18,4.77,4.77,0,0,0-.89,0,5,5,0,0,0-1.07.16,4.16,4.16,0,0,0-1.19.5,2.88,2.88,0,0,0-.84.79,2.5,2.5,0,0,0-.42,1.05,3.15,3.15,0,0,0,.08,1.27,3,3,0,0,0,.57,1.16,3.13,3.13,0,0,0,.91.76,2.91,2.91,0,0,0,1.1.35A3.14,3.14,0,0,0,128,51a4.43,4.43,0,0,0,1-.4,7,7,0,0,0,.89-.56,3.36,3.36,0,0,0,.61-.57c.15-.19.21-.33.18-.45l0-.15a.8.8,0,0,0-.07-.19l.16-.24,1.92,1.65-.17.14a1.06,1.06,0,0,0-.35,0,1.37,1.37,0,0,0-.45.3q-.3.26-.76.61a7.32,7.32,0,0,1-1.12.68,7.53,7.53,0,0,1-1.51.54,6.37,6.37,0,0,1-1.79.19,4.3,4.3,0,0,1-3.14-1.47,4.13,4.13,0,0,1-.89-1.76,4.06,4.06,0,0,1-.06-2,4.22,4.22,0,0,1,.76-1.62,4.81,4.81,0,0,1,1.36-1.2,6.47,6.47,0,0,1,1.74-.73,6.27,6.27,0,0,1,1.35-.2,8.22,8.22,0,0,1,1.13,0l.84.11a1.27,1.27,0,0,0,.47,0,.25.25,0,0,0,.15-.1.69.69,0,0,1,.12-.13l.26.07-.79,2.12Z"/><path class="cls-1" d="M138.87,41.38a7.3,7.3,0,0,1,2,0,4.9,4.9,0,0,1,1.75.59A3.93,3.93,0,0,1,144,43.19a4.82,4.82,0,0,1,.52,3.86,3.92,3.92,0,0,1-.92,1.52,4.48,4.48,0,0,1-1.53,1,8.5,8.5,0,0,1-4,.54,4.47,4.47,0,0,1-1.74-.56A3.92,3.92,0,0,1,135,48.33a4.81,4.81,0,0,1-.52-3.86,3.9,3.9,0,0,1,.92-1.52,4.87,4.87,0,0,1,1.53-1A7.26,7.26,0,0,1,138.87,41.38Zm.19,1.43a3.74,3.74,0,0,0-1.18.37,3.51,3.51,0,0,0-1,.72,2.92,2.92,0,0,0-.62,1,2.91,2.91,0,0,0,.34,2.48,2.89,2.89,0,0,0,.87.82,3.44,3.44,0,0,0,1.13.44,3.73,3.73,0,0,0,2.42-.33,3.48,3.48,0,0,0,1-.72,2.88,2.88,0,0,0,.62-1,2.9,2.9,0,0,0-.33-2.48,2.91,2.91,0,0,0-.87-.82,3.45,3.45,0,0,0-1.13-.44A3.75,3.75,0,0,0,139.07,42.82Z"/><path class="cls-1" d="M156.15,42.14c0-.06,0-.13-.14-.18a.93.93,0,0,0-.47-.08l-5.3.1,0,2.07,3.44-.06a.74.74,0,0,0,.41-.08.35.35,0,0,0,.09-.23h.35l0,2.05h-.35a.39.39,0,0,0-.1-.23.66.66,0,0,0-.41-.07l-3.44.06.06,3a.23.23,0,0,0,.14.22.68.68,0,0,0,.31.06v.35l-2.7,0v-.35q.37,0,.37-.3l-.14-7.31c0-.2-.14-.29-.42-.29v-.35l7.59-.14a.82.82,0,0,0,.47-.11.3.3,0,0,0,.13-.26h.35l0,2.07Z"/><path class="cls-1" d="M168.41,43.06a.24.24,0,0,0-.12-.2.92.92,0,0,0-.46-.13l-5.28-.49-.19,2.06,3.43.32a.74.74,0,0,0,.42,0,.34.34,0,0,0,.12-.21l.35,0-.19,2-.35,0a.39.39,0,0,0-.08-.24.66.66,0,0,0-.4-.12l-3.43-.32-.27,3a.23.23,0,0,0,.12.24.69.69,0,0,0,.3.1l0,.35-2.69-.25,0-.35q.37,0,.4-.26l.67-7.28c0-.2-.11-.3-.38-.33l0-.35,7.56.7a.83.83,0,0,0,.48-.05.3.3,0,0,0,.16-.24l.35,0-.19,2.06Z"/><path class="cls-1" d="M179.95,45.32c.05-.24-.12-.4-.52-.49l-4.68-1-.39,1.92,3,.61a1.73,1.73,0,0,0,.49,0c.11,0,.18-.09.21-.23l.35.07-.42,2-.38-.08a.19.19,0,0,0-.1-.29,3,3,0,0,0-.58-.17l-2.8-.57-.46,2.26,4.9,1a.67.67,0,0,0,.41,0,.33.33,0,0,0,.21-.25l.35.07-.41,2-.35-.07a.17.17,0,0,0-.11-.22l-.38-.1-7-1.44.07-.35a.34.34,0,0,0,.21,0,.25.25,0,0,0,.14-.2l1.47-7.17a.26.26,0,0,0-.05-.24.34.34,0,0,0-.18-.11l.07-.34,6.8,1.4c.4.08.62,0,.67-.22l.34.07-.44,2.13Z"/><path class="cls-1" d="M191.73,48.84q.11-.35-.46-.54l-4.54-1.46-.6,1.86,2.87.92a1.81,1.81,0,0,0,.48.1c.11,0,.19-.07.23-.2l.34.11-.64,2-.37-.12a.19.19,0,0,0-.07-.3,2.94,2.94,0,0,0-.56-.23l-2.72-.88-.71,2.2,4.77,1.54a.67.67,0,0,0,.41,0,.33.33,0,0,0,.24-.22l.34.11-.63,2-.33-.11a.17.17,0,0,0-.09-.23l-.37-.14L182.46,53l.11-.33a.34.34,0,0,0,.21,0,.25.25,0,0,0,.16-.18l2.25-7a.26.26,0,0,0,0-.24.33.33,0,0,0-.17-.12l.11-.33,6.61,2.13c.38.12.61.07.68-.15l.33.11-.67,2.07Z"/><path class="cls-1" d="M208.26,54.32a5.38,5.38,0,0,1,2.13,1.79,2.1,2.1,0,0,1-.06,2.2,2.15,2.15,0,0,1-.61.74,2.37,2.37,0,0,1-.79.39,2.77,2.77,0,0,1-.86.1,4,4,0,0,1-.84-.13l.38,3.37a1.14,1.14,0,0,0,.15.45,1.62,1.62,0,0,0,.28.33l-.17.31-2.64-1.41.17-.31q.23.12.31,0a1.28,1.28,0,0,0,0-.67l-.28-2.76L203,57.39l-1.31,2.47a.23.23,0,0,0,0,.26.51.51,0,0,0,.18.18l-.17.31-2.29-1.22.17-.31q.31.17.45-.09l3.44-6.46q.14-.26-.17-.42l.17-.31Zm-1.78,3.26q1.69.9,2.26-.17a.87.87,0,0,0,0-.9,2.88,2.88,0,0,0-1.15-.94l-2.73-1.45-1.07,2Z"/><path class="cls-1" d="M219.07,60.88a7.26,7.26,0,0,1,1.5,1.38,4.86,4.86,0,0,1,.88,1.62,3.92,3.92,0,0,1,.12,1.77,4.83,4.83,0,0,1-2.23,3.19,3.92,3.92,0,0,1-1.7.49,4.49,4.49,0,0,1-1.81-.3,8.48,8.48,0,0,1-3.32-2.32,4.47,4.47,0,0,1-.9-1.6,3.92,3.92,0,0,1-.12-1.77,4.82,4.82,0,0,1,2.23-3.19,3.93,3.93,0,0,1,1.71-.49,4.87,4.87,0,0,1,1.82.27A7.29,7.29,0,0,1,219.07,60.88Zm-.83,1.19a3.74,3.74,0,0,0-1.12-.53,3.44,3.44,0,0,0-1.21-.13,2.91,2.91,0,0,0-1.15.33,2.91,2.91,0,0,0-1.44,2.05,2.93,2.93,0,0,0,.08,1.19,3.5,3.5,0,0,0,.54,1.09,3.74,3.74,0,0,0,2,1.4,3.47,3.47,0,0,0,1.21.13,2.91,2.91,0,0,0,1.15-.33,2.91,2.91,0,0,0,1.44-2.05,2.92,2.92,0,0,0-.08-1.19,3.45,3.45,0,0,0-.54-1.09A3.72,3.72,0,0,0,218.24,62.07Z"/><path class="cls-1" d="M219.93,71.83a.59.59,0,0,0,.44.09,2,2,0,0,0,.4-.11l6.4-2.82.43-.21a.83.83,0,0,0,.27-.2c.05-.06.07-.11.06-.14l0-.12.23-.26,2.21,2-.23.26-.13,0s-.09,0-.16.07a.64.64,0,0,0-.12.27c0,.12-.07.26-.12.41l-2,7.08a.72.72,0,0,0,0,.33.91.91,0,0,0,.11.26l-.23.26-2.08-1.85.19-.22a.43.43,0,0,0,.19.09.22.22,0,0,0,.22-.09.57.57,0,0,0,.11-.19l.1-.25.35-1.18-3.13-2.78-1.11.43L222,73a.66.66,0,0,0-.19.14c-.07.08-.09.15-.06.21a.76.76,0,0,0,.18.21l-.23.26-2-1.74Zm7,1.91,1-3.51-3.22,1.53Z"/><path class="cls-1" d="M231.74,79.19l-.13.1-.14.12a.68.68,0,0,0-.15.64,3.55,3.55,0,0,0,.29.94,8.51,8.51,0,0,0,.5.95,4.65,4.65,0,0,0,.47.67c.12.13.28.29.48.47a3.76,3.76,0,0,0,.65.48,2,2,0,0,0,.71.26.74.74,0,0,0,.63-.2.66.66,0,0,0,.14-.78,5.39,5.39,0,0,0-.58-1.1l-.89-1.31a8.07,8.07,0,0,1-.79-1.4,3.18,3.18,0,0,1-.28-1.37,1.71,1.71,0,0,1,.65-1.23,2.33,2.33,0,0,1,2.18-.57,4.93,4.93,0,0,1,2.5,1.67,7.27,7.27,0,0,1,.94,1.27,7.49,7.49,0,0,1,.75,1.8,1.06,1.06,0,0,0,.17.41.46.46,0,0,0,.19.14l.21.07,0,.3-2,.5-.15-.34.15-.19a.4.4,0,0,0,.06-.29,3.29,3.29,0,0,0-.39-1.28,6.68,6.68,0,0,0-1.06-1.52,5.42,5.42,0,0,0-.54-.52,2.45,2.45,0,0,0-.54-.35,1.12,1.12,0,0,0-.51-.12.69.69,0,0,0-.45.19.64.64,0,0,0-.14.77,5.66,5.66,0,0,0,.59,1.09q.4.61.89,1.31a7.65,7.65,0,0,1,.78,1.41,3.07,3.07,0,0,1,.25,1.39,1.84,1.84,0,0,1-.68,1.26,2.25,2.25,0,0,1-1.33.63,3,3,0,0,1-1.34-.2,4.28,4.28,0,0,1-1.23-.75,11,11,0,0,1-1-1,7,7,0,0,1-.79-1.07,11.14,11.14,0,0,1-.58-1.08c-.16-.34-.29-.64-.38-.88a2.06,2.06,0,0,0-.19-.43.3.3,0,0,0-.24-.1l0-.33,2.23-.8Z"/><path class="cls-1" d="M238.19,91a.33.33,0,0,0,.17.12.26.26,0,0,0,.24-.05l5.27-3.83-1.5-2.06a.6.6,0,0,0-.24-.19.27.27,0,0,0-.29,0l-.21-.28,1.82-1.32.21.28a.43.43,0,0,0-.22.33.49.49,0,0,0,.09.29l4.09,5.63a.49.49,0,0,0,.25.18.43.43,0,0,0,.38-.11l.21.29-1.82,1.32-.21-.29a.27.27,0,0,0,.13-.26.57.57,0,0,0-.11-.28L245,88.71l-5.27,3.83q-.24.17,0,.46l-.29.21-1.48-2Z"/><path class="cls-1" d="M252.35,101.17q.32-.19,0-.71L250,96.33l-1.69,1,1.51,2.61a1.74,1.74,0,0,0,.29.4.24.24,0,0,0,.31,0l.18.3-1.79,1-.2-.34a.19.19,0,0,0,.15-.27,3,3,0,0,0-.26-.55L247,98l-2,1.16,2.51,4.33a.67.67,0,0,0,.29.29.33.33,0,0,0,.32,0l.18.3-1.78,1-.18-.31a.17.17,0,0,0,.09-.23,3.1,3.1,0,0,0-.18-.35L242.69,98l.3-.18a.34.34,0,0,0,.16.13.26.26,0,0,0,.24,0l6.33-3.66a.26.26,0,0,0,.15-.2.34.34,0,0,0,0-.2l.3-.18,3.48,6q.3.52.61.35l.18.3-1.88,1.09Z"/><path class="cls-1" d="M258.31,109.55a5.38,5.38,0,0,1,.55,2.72,2.09,2.09,0,0,1-1.41,1.68,2.15,2.15,0,0,1-.94.2,2.37,2.37,0,0,1-.86-.19,2.77,2.77,0,0,1-.73-.46,4,4,0,0,1-.58-.62l-1.8,2.87a1.1,1.1,0,0,0-.16.44,1.7,1.7,0,0,0,0,.43l-.32.14L250.87,114l.32-.14c.07.16.16.21.26.16a1.27,1.27,0,0,0,.44-.51l1.5-2.34-1.08-2.49-2.56,1.12a.23.23,0,0,0-.16.21.52.52,0,0,0,0,.25l-.32.14-1-2.39.32-.14c.09.22.23.28.41.21l6.71-2.92q.27-.12.13-.44l.32-.14ZM254.88,111q.76,1.76,1.88,1.27a.87.87,0,0,0,.53-.73,2.86,2.86,0,0,0-.32-1.45l-1.23-2.83-2.08.91Z"/><path class="cls-1" d="M256.11,119.43l-.16,0-.18,0a.67.67,0,0,0-.41.51,3.65,3.65,0,0,0-.13,1,8.4,8.4,0,0,0,0,1.07,4.67,4.67,0,0,0,.14.8c.05.18.13.39.23.63a3.64,3.64,0,0,0,.39.71,2,2,0,0,0,.53.53.73.73,0,0,0,.65.09.66.66,0,0,0,.46-.64,5.27,5.27,0,0,0-.06-1.24q-.11-.73-.25-1.56a8.08,8.08,0,0,1-.12-1.6,3.19,3.19,0,0,1,.32-1.36,1.72,1.72,0,0,1,1.11-.84,2.34,2.34,0,0,1,2.21.41,4.93,4.93,0,0,1,1.56,2.57,7.34,7.34,0,0,1,.32,1.55,7.7,7.7,0,0,1,0,1.15,7.87,7.87,0,0,1-.1.79,1.06,1.06,0,0,0,0,.45.44.44,0,0,0,.12.21l.16.16-.14.27-2-.4v-.37l.21-.11a.41.41,0,0,0,.17-.24,3.29,3.29,0,0,0,.19-1.33,6.66,6.66,0,0,0-.31-1.83,5.31,5.31,0,0,0-.26-.7,2.46,2.46,0,0,0-.34-.55,1.15,1.15,0,0,0-.42-.32.69.69,0,0,0-.49,0,.64.64,0,0,0-.45.64,5.74,5.74,0,0,0,.07,1.24c.07.48.15,1,.25,1.56a7.64,7.64,0,0,1,.11,1.6,3.08,3.08,0,0,1-.36,1.37,1.84,1.84,0,0,1-1.15.85,2.25,2.25,0,0,1-1.47,0,3,3,0,0,1-1.13-.75,4.29,4.29,0,0,1-.79-1.2,11.15,11.15,0,0,1-.51-1.33,6.92,6.92,0,0,1-.26-1.3,10.9,10.9,0,0,1-.07-1.23c0-.38,0-.7,0-1a2,2,0,0,0,0-.47.3.3,0,0,0-.18-.19l.11-.32,2.36.22Z"/><path class="cls-1" d="M49.06,178l.07,0,.09,0c.06,0,.14-.09.22-.25a2.27,2.27,0,0,0,.21-.61,4.62,4.62,0,0,0,.09-.89,5,5,0,0,0-.11-1.08,4.17,4.17,0,0,0-.44-1.22,2.85,2.85,0,0,0-.75-.88,2.48,2.48,0,0,0-1-.47,3.15,3.15,0,0,0-1.27,0,2.91,2.91,0,0,0-1.18.51,3.14,3.14,0,0,0-.8.87,2.93,2.93,0,0,0-.4,1.08,3.16,3.16,0,0,0,0,1.13,4.47,4.47,0,0,0,.35,1,7.17,7.17,0,0,0,.52.91,3.24,3.24,0,0,0,.54.64c.18.16.32.22.44.2l.15,0,.19-.06.23.17-1.74,1.83-.13-.17a1,1,0,0,0,0-.35,1.34,1.34,0,0,0-.27-.46q-.24-.31-.57-.79a7.36,7.36,0,0,1-.62-1.15,7.46,7.46,0,0,1-.47-1.53,6.37,6.37,0,0,1-.11-1.79,4.3,4.3,0,0,1,1.62-3.06,4.13,4.13,0,0,1,1.8-.8,4.07,4.07,0,0,1,2,0,4.24,4.24,0,0,1,1.58.84,4.81,4.81,0,0,1,1.14,1.42,6.5,6.5,0,0,1,.64,1.78,6.28,6.28,0,0,1,.14,1.36,8.45,8.45,0,0,1-.09,1.13c-.05.33-.1.61-.15.83a1.34,1.34,0,0,0,0,.47.25.25,0,0,0,.09.15.76.76,0,0,1,.13.12l-.09.26-2.08-.9Z"/><path class="cls-1" d="M45.81,187a.27.27,0,0,0-.19.15.34.34,0,0,0,0,.22l-.33.11-.78-2.34.33-.11a.32.32,0,0,0,.13.17.27.27,0,0,0,.24,0l6.94-2.32a.26.26,0,0,0,.18-.15.32.32,0,0,0,0-.22l.33-.11.78,2.34-.33.11a.33.33,0,0,0-.13-.17.27.27,0,0,0-.24,0l-2.62.87,1.66,5,2.62-.87a.26.26,0,0,0,.18-.15.32.32,0,0,0,0-.22l.33-.11.78,2.34-.33.11a.33.33,0,0,0-.13-.17.27.27,0,0,0-.24,0l-6.94,2.31a.27.27,0,0,0-.19.16.32.32,0,0,0,0,.22l-.33.11-.78-2.34.33-.11a.32.32,0,0,0,.13.17.26.26,0,0,0,.24,0l2.8-.93-1.66-5Z"/><path class="cls-1" d="M49.32,197.81a.59.59,0,0,0,.37.25,2,2,0,0,0,.4.06l7-.09.48,0a.84.84,0,0,0,.32-.08c.07,0,.11-.07.11-.11l0-.13.32-.15,1.27,2.67-.32.15a.43.43,0,0,1-.11-.09s-.09,0-.17,0a.64.64,0,0,0-.22.2l-.26.33-4.65,5.71a.71.71,0,0,0-.14.3.84.84,0,0,0,0,.28l-.32.15-1.19-2.51.27-.13a.42.42,0,0,0,.14.16.22.22,0,0,0,.24,0,.58.58,0,0,0,.18-.13l.19-.2.78-1-1.8-3.78-1.19,0h-.31a.65.65,0,0,0-.22.05c-.09,0-.14.1-.13.17a.72.72,0,0,0,.08.26l-.32.15L49,198Zm5.73,4.51,2.29-2.84-3.56.15Z"/><path class="cls-1" d="M65.38,210.48a5.36,5.36,0,0,1,1,2.61A2.1,2.1,0,0,1,65.18,215a2.17,2.17,0,0,1-.9.33,2.37,2.37,0,0,1-.88-.06,2.79,2.79,0,0,1-.79-.35,4.09,4.09,0,0,1-.67-.53l-1.35,3.11a1.13,1.13,0,0,0-.09.46,1.68,1.68,0,0,0,.07.43l-.3.19L58.68,216l.3-.19c.09.14.18.18.29.12a1.28,1.28,0,0,0,.36-.57l1.14-2.53-1.44-2.3L56.95,212a.23.23,0,0,0-.12.23.51.51,0,0,0,.07.24l-.3.19-1.38-2.21.3-.19q.19.3.44.14l6.2-3.88c.17-.1.19-.25.06-.45l.3-.19Zm-3.17,1.94q1,1.62,2,1a.87.87,0,0,0,.41-.8,2.87,2.87,0,0,0-.53-1.38l-1.64-2.62-1.92,1.2Z"/><path class="cls-1" d="M71.27,218.79,71,219q-.28-.35-.51-.17l-5.08,4.07L68.7,227a.67.67,0,0,0,.33.24.34.34,0,0,0,.33-.07l.22.27L68,228.77l-.22-.28a.16.16,0,0,0,0-.23,3.14,3.14,0,0,0-.23-.32l-4.79-6,.28-.22c.21.26.39.34.55.21l5.71-4.57c.15-.12.12-.32-.09-.58l.28-.22Z"/><path class="cls-1" d="M81.16,232.32q.26-.26-.17-.69l-3.38-3.37-1.38,1.39,2.13,2.13a1.7,1.7,0,0,0,.38.31A.24.24,0,0,0,79,232l.25.25-1.46,1.47-.28-.28a.19.19,0,0,0,.08-.3,2.89,2.89,0,0,0-.39-.46l-2-2-1.63,1.64,3.55,3.53a.68.68,0,0,0,.35.2.33.33,0,0,0,.31-.09l.25.25-1.45,1.46-.25-.25a.17.17,0,0,0,0-.25,3.28,3.28,0,0,0-.26-.29L71,231.8l.25-.25a.34.34,0,0,0,.19.09.25.25,0,0,0,.23-.09l5.16-5.18a.26.26,0,0,0,.09-.23.34.34,0,0,0-.09-.19l.25-.25L82,230.6q.43.43.68.18l.25.25-1.53,1.54Z"/><path class="cls-1" d="M82.52,238.57l-.11.12-.12.14a.68.68,0,0,0,0,.65,3.61,3.61,0,0,0,.44.88,8.69,8.69,0,0,0,.65.85,4.69,4.69,0,0,0,.58.58c.14.11.33.24.55.39a3.72,3.72,0,0,0,.72.36,2,2,0,0,0,.74.14.73.73,0,0,0,.58-.3.66.66,0,0,0,0-.79,5.37,5.37,0,0,0-.75-1l-1.09-1.14a8,8,0,0,1-1-1.25,3.2,3.2,0,0,1-.5-1.3,1.71,1.71,0,0,1,.43-1.32,2.33,2.33,0,0,1,2.05-.92,4.94,4.94,0,0,1,2.74,1.23A7.21,7.21,0,0,1,89.54,237a7.7,7.7,0,0,1,.67.94c.16.28.29.51.37.71a1.07,1.07,0,0,0,.24.38.45.45,0,0,0,.21.11l.22,0,0,.3-1.91.83-.2-.31.12-.21a.4.4,0,0,0,0-.29,3.25,3.25,0,0,0-.6-1.2A6.65,6.65,0,0,0,87.4,237a5.58,5.58,0,0,0-.61-.42,2.5,2.5,0,0,0-.59-.26,1.14,1.14,0,0,0-.53,0,.69.69,0,0,0-.41.26.64.64,0,0,0,0,.78,5.77,5.77,0,0,0,.76,1l1.09,1.14a7.58,7.58,0,0,1,1,1.26,3.1,3.1,0,0,1,.48,1.33,1.85,1.85,0,0,1-.46,1.36,2.25,2.25,0,0,1-1.21.84,3,3,0,0,1-1.35,0,4.31,4.31,0,0,1-1.33-.54,11.12,11.12,0,0,1-1.17-.81,7,7,0,0,1-1-.92,11.31,11.31,0,0,1-.75-1c-.21-.31-.38-.58-.52-.81a2.15,2.15,0,0,0-.26-.4.3.3,0,0,0-.26-.05l-.09-.32,2.07-1.16Z"/><path class="cls-1" d="M92.25,249a.34.34,0,0,0,.2,0,.25.25,0,0,0,.2-.14l3.48-5.51L94,242.05a.59.59,0,0,0-.29-.09.27.27,0,0,0-.25.14l-.3-.19,1.2-1.9.3.19a.43.43,0,0,0-.08.39.51.51,0,0,0,.2.24l5.88,3.72a.49.49,0,0,0,.3.07.43.43,0,0,0,.32-.24l.3.19-1.2,1.9-.3-.19a.27.27,0,0,0,0-.29.6.6,0,0,0-.21-.22l-2.15-1.36-3.48,5.5c-.1.17-.06.31.14.44l-.19.3-2.13-1.35Z"/><path class="cls-1" d="M108,248.27a7.23,7.23,0,0,1,1.7,1.13,4.88,4.88,0,0,1,1.13,1.46,3.92,3.92,0,0,1,.4,1.73,4.81,4.81,0,0,1-1.7,3.5,3.93,3.93,0,0,1-1.6.75,4.48,4.48,0,0,1-1.83,0,8.51,8.51,0,0,1-3.64-1.77,4.45,4.45,0,0,1-1.14-1.43,3.91,3.91,0,0,1-.4-1.73,4.83,4.83,0,0,1,1.7-3.5,3.91,3.91,0,0,1,1.61-.75,4.83,4.83,0,0,1,1.84,0A7.25,7.25,0,0,1,108,248.27Zm-.63,1.3a3.67,3.67,0,0,0-1.19-.35,3.44,3.44,0,0,0-1.21.06,2.89,2.89,0,0,0-1.08.51,2.91,2.91,0,0,0-1.09,2.25,2.91,2.91,0,0,0,.27,1.17,3.51,3.51,0,0,0,.7,1,3.74,3.74,0,0,0,2.2,1.07,3.49,3.49,0,0,0,1.22-.06,2.92,2.92,0,0,0,1.08-.51,2.9,2.9,0,0,0,1.09-2.25,2.89,2.89,0,0,0-.27-1.16,3.43,3.43,0,0,0-.7-1A3.72,3.72,0,0,0,107.34,249.58Z"/><path class="cls-1" d="M113,259.76c.22.07.37,0,.43-.17l2.26-7c.06-.19,0-.32-.24-.39l.11-.33,2.73.89-.11.34c-.09,0-.14,0-.16,0a1.65,1.65,0,0,0,.25.64l2.92,6.18,1.64-5c.06-.19,0-.32-.28-.4l.11-.33,2.27.74-.11.33c-.22-.07-.36,0-.42.17l-2.27,7c-.06.19,0,.32.25.39l-.11.33-2.42-.79L120,262c.09,0,.14,0,.16,0a.57.57,0,0,0-.09-.32l-.26-.56-3-6.41L115,260.1c-.06.19,0,.32.3.41l-.11.33-2.29-.74Z"/><path class="cls-1" d="M125.89,266.44a2.63,2.63,0,0,0,.72-.14,3.53,3.53,0,0,0,.78-.36,3,3,0,0,0,.63-.53,1.15,1.15,0,0,0,.31-.65c0-.06-.08-.11-.19-.14l-.32-.09a1.23,1.23,0,0,1-.75-.51,1.16,1.16,0,0,1-.15-1,1.36,1.36,0,0,1,.61-.86,1.24,1.24,0,0,1,1-.19,1.36,1.36,0,0,1,1,.82,2.34,2.34,0,0,1,.08,1.44,2.84,2.84,0,0,1-.53,1.11,4.34,4.34,0,0,1-.92.88,4.49,4.49,0,0,1-1.16.59,3.81,3.81,0,0,1-1.25.21Z"/><path class="cls-1" d="M142.56,264.09a1.49,1.49,0,0,1,0,.17,1.22,1.22,0,0,0,0,.18.67.67,0,0,0,.33.56,3.64,3.64,0,0,0,.86.48,8.67,8.67,0,0,0,1,.34,4.73,4.73,0,0,0,.8.16c.18,0,.41,0,.67,0a3.77,3.77,0,0,0,.8-.11,2,2,0,0,0,.69-.3A.73.73,0,0,0,148,265a.66.66,0,0,0-.43-.66,5.22,5.22,0,0,0-1.18-.39l-1.54-.33a8.1,8.1,0,0,1-1.53-.47,3.19,3.19,0,0,1-1.15-.79,1.72,1.72,0,0,1-.38-1.33,2.34,2.34,0,0,1,1.18-1.91,4.94,4.94,0,0,1,3-.52,7.33,7.33,0,0,1,1.56.26,7.8,7.8,0,0,1,1.08.4q.43.21.71.38a1.06,1.06,0,0,0,.41.18.45.45,0,0,0,.24,0l.2-.09.2.23-1.11,1.76-.34-.14,0-.24a.39.39,0,0,0-.16-.25,3.29,3.29,0,0,0-1.17-.66,6.67,6.67,0,0,0-1.82-.37,5.28,5.28,0,0,0-.74,0,2.45,2.45,0,0,0-.64.12,1.14,1.14,0,0,0-.45.27.69.69,0,0,0-.19.45.64.64,0,0,0,.43.65,5.6,5.6,0,0,0,1.18.38l1.54.33a7.69,7.69,0,0,1,1.53.48,3.1,3.1,0,0,1,1.15.83,1.85,1.85,0,0,1,.38,1.38,2.25,2.25,0,0,1-.52,1.37,3,3,0,0,1-1.11.78,4.28,4.28,0,0,1-1.41.31,11.05,11.05,0,0,1-1.42,0,6.92,6.92,0,0,1-1.31-.23,11.44,11.44,0,0,1-1.17-.38q-.52-.21-.88-.38a2,2,0,0,0-.44-.18.3.3,0,0,0-.24.1l-.26-.21L142.2,264Z"/><path class="cls-1" d="M158.52,258.81a7.29,7.29,0,0,1,2,.19,4.87,4.87,0,0,1,1.69.75,3.93,3.93,0,0,1,1.17,1.33,4.83,4.83,0,0,1,.17,3.89,3.91,3.91,0,0,1-1.05,1.43,4.46,4.46,0,0,1-1.62.86,8.47,8.47,0,0,1-4,.18,4.47,4.47,0,0,1-1.69-.72,3.9,3.9,0,0,1-1.17-1.33,4.79,4.79,0,0,1-.17-3.89,3.9,3.9,0,0,1,1.05-1.43,4.88,4.88,0,0,1,1.62-.89A7.32,7.32,0,0,1,158.52,258.81Zm.06,1.45a3.76,3.76,0,0,0-1.21.26,3.48,3.48,0,0,0-1,.63,2.91,2.91,0,0,0-.71,1,2.91,2.91,0,0,0,.11,2.5,2.9,2.9,0,0,0,.79.9,3.46,3.46,0,0,0,1.09.54,3.74,3.74,0,0,0,2.44-.11,3.48,3.48,0,0,0,1-.63,2.88,2.88,0,0,0,.71-1,2.9,2.9,0,0,0-.11-2.5,2.91,2.91,0,0,0-.79-.89,3.42,3.42,0,0,0-1.09-.54A3.72,3.72,0,0,0,158.58,260.26Z"/><path class="cls-1" d="M169.59,258.24q-.42.07-.37.36L170,263a1.86,1.86,0,0,0,.93,1.37,4.13,4.13,0,0,0,4.13-.71,1.87,1.87,0,0,0,.42-1.6l-.76-4.43c0-.19-.21-.26-.53-.21l-.06-.35,2.68-.46.06.35c-.28,0-.41.17-.37.36l.84,4.88a2.61,2.61,0,0,1-.07,1.19,2.81,2.81,0,0,1-.65,1.11,4.15,4.15,0,0,1-1.29.91,8.63,8.63,0,0,1-4,.7,4.15,4.15,0,0,1-1.52-.42,2.81,2.81,0,0,1-1-.83,2.59,2.59,0,0,1-.47-1.1l-.84-4.88a.24.24,0,0,0-.15-.2,1,1,0,0,0-.45,0l-.06-.35,2.76-.47Z"/><path class="cls-1" d="M184.89,263a.34.34,0,0,0,.17-.12.26.26,0,0,0,0-.24l-1.85-6.25-2.44.72a.57.57,0,0,0-.26.16.27.27,0,0,0-.06.28l-.34.1-.64-2.16.34-.1a.43.43,0,0,0,.24.32.49.49,0,0,0,.31,0l6.68-2a.49.49,0,0,0,.25-.18.43.43,0,0,0,0-.4l.34-.1.64,2.16-.34.1a.27.27,0,0,0-.2-.2.58.58,0,0,0-.3,0l-2.44.72,1.85,6.25q.08.28.42.18l.1.34-2.42.71Z"/><path class="cls-1" d="M196,258.91a.27.27,0,0,0,.17.17.32.32,0,0,0,.22,0l.14.32-2.27,1-.14-.32a.31.31,0,0,0,.16-.14.27.27,0,0,0,0-.24l-2.87-6.73a.28.28,0,0,0-.17-.17.34.34,0,0,0-.22,0l-.14-.32,2.27-1,.14.32a.33.33,0,0,0-.16.14.27.27,0,0,0,0,.24l1.08,2.54,4.82-2.06-1.08-2.54a.27.27,0,0,0-.17-.17.34.34,0,0,0-.22,0l-.14-.32,2.27-1,.14.32a.32.32,0,0,0-.16.14.27.27,0,0,0,0,.24l2.88,6.73a.27.27,0,0,0,.17.17.33.33,0,0,0,.22,0l.14.32-2.27,1-.14-.32a.34.34,0,0,0,.16-.14.27.27,0,0,0,0-.24l-1.16-2.72-4.82,2.06Z"/><path class="cls-1" d="M216.39,241.59l-.05-.06-.06-.08c0-.05-.14-.09-.31-.11a2.3,2.3,0,0,0-.64,0,4.79,4.79,0,0,0-.85.25,5,5,0,0,0-1,.51,4.17,4.17,0,0,0-1,.87,2.86,2.86,0,0,0-.53,1,2.5,2.5,0,0,0,0,1.13,3.18,3.18,0,0,0,.5,1.17,2.92,2.92,0,0,0,.92.9,3.13,3.13,0,0,0,1.11.41,2.91,2.91,0,0,0,1.15,0,3.11,3.11,0,0,0,1-.45,4.46,4.46,0,0,0,.82-.71,7.34,7.34,0,0,0,.65-.82,3.32,3.32,0,0,0,.39-.74.58.58,0,0,0,0-.48l-.09-.13a.86.86,0,0,0-.12-.15l.07-.28,2.36.92-.11.19a1.05,1.05,0,0,0-.33.1,1.38,1.38,0,0,0-.32.43q-.19.34-.52.83a7.31,7.31,0,0,1-.83,1,7.43,7.43,0,0,1-1.24,1,6.38,6.38,0,0,1-1.62.78,4.38,4.38,0,0,1-1.75.2,4.31,4.31,0,0,1-1.7-.53,4.13,4.13,0,0,1-1.43-1.36,4.08,4.08,0,0,1-.71-1.83,4.23,4.23,0,0,1,.18-1.78,4.79,4.79,0,0,1,.88-1.59,6.51,6.51,0,0,1,1.4-1.27,6.33,6.33,0,0,1,1.21-.64A8.27,8.27,0,0,1,215,240l.83-.18a1.32,1.32,0,0,0,.45-.14.25.25,0,0,0,.11-.14.73.73,0,0,1,.07-.16l.27,0,0,2.26Z"/><path class="cls-1" d="M223.33,243.75a.59.59,0,0,0,.15-.42,2.1,2.1,0,0,0,0-.41l-1.87-6.74-.14-.46a.83.83,0,0,0-.16-.29c0-.06-.09-.09-.13-.08l-.12,0-.23-.27,2.25-1.91.23.27a.48.48,0,0,1-.06.13s0,.09,0,.16a.63.63,0,0,0,.25.16l.39.17,6.71,3a.73.73,0,0,0,.33.06.93.93,0,0,0,.27-.08l.23.27-2.12,1.79-.19-.22a.43.43,0,0,0,.12-.18.22.22,0,0,0-.06-.23.6.6,0,0,0-.17-.14l-.24-.13-1.12-.51-3.2,2.7.26,1.16c0,.11.06.21.09.3a.65.65,0,0,0,.11.2c.07.08.13.11.2.09a.73.73,0,0,0,.23-.15l.23.27-2,1.69Zm2.9-6.7-3.33-1.49L224,239Z"/><path class="cls-1" d="M231.48,225a5.38,5.38,0,0,1,2.28-1.59,2.1,2.1,0,0,1,2.1.63,2.16,2.16,0,0,1,.55.79,2.4,2.4,0,0,1,.17.87,2.83,2.83,0,0,1-.13.86,4.06,4.06,0,0,1-.34.78l3.35.51a1.13,1.13,0,0,0,.47,0,1.66,1.66,0,0,0,.4-.18l.26.24-2,2.18-.26-.24c.12-.12.13-.23,0-.31a1.28,1.28,0,0,0-.64-.2l-2.74-.45-1.86,2,2,1.91a.24.24,0,0,0,.25.06.5.5,0,0,0,.22-.13l.26.24-1.78,1.9-.26-.24c.16-.17.17-.32,0-.46l-5.34-5q-.22-.2-.46.06l-.26-.24Zm2.69,2.57q1.31-1.4.43-2.23a.87.87,0,0,0-.88-.19,2.88,2.88,0,0,0-1.2.87l-2.11,2.26,1.66,1.55Z"/><path class="cls-1" d="M238.89,215.76a7.22,7.22,0,0,1,1.41-1.47,4.85,4.85,0,0,1,1.64-.85,3.93,3.93,0,0,1,1.77-.09,4.82,4.82,0,0,1,3.15,2.29,3.93,3.93,0,0,1,.46,1.71,4.48,4.48,0,0,1-.33,1.8,8.5,8.5,0,0,1-2.39,3.27,4.46,4.46,0,0,1-1.61.87,3.92,3.92,0,0,1-1.77.09,4.82,4.82,0,0,1-3.14-2.29,3.92,3.92,0,0,1-.46-1.71,4.84,4.84,0,0,1,.31-1.82A7.31,7.31,0,0,1,238.89,215.76Zm1.17.85a3.7,3.7,0,0,0-.55,1.11,3.42,3.42,0,0,0-.15,1.21,2.9,2.9,0,0,0,.31,1.16,2.91,2.91,0,0,0,2,1.48,2.91,2.91,0,0,0,1.2-.06A3.44,3.44,0,0,0,244,221a3.74,3.74,0,0,0,1.44-2,3.45,3.45,0,0,0,.15-1.21,2.86,2.86,0,0,0-.31-1.16,2.9,2.9,0,0,0-2-1.47,2.9,2.9,0,0,0-1.19.06,3.44,3.44,0,0,0-1.1.52A3.71,3.71,0,0,0,240.06,216.61Z"/><path class="cls-1" d="M245.06,206.49l.31.17q-.22.39,0,.54l5.68,3.19,2.59-4.6a.66.66,0,0,0,.1-.39.35.35,0,0,0-.19-.29l.17-.31,1.79,1-.17.31a.16.16,0,0,0-.23,0,3.44,3.44,0,0,0-.21.33l-3.76,6.68-.31-.17q.25-.44,0-.59l-6.38-3.59q-.25-.14-.5.3l-.31-.17Z"/><path class="cls-1" d="M256.85,201.69a.94.94,0,0,0,.11-.42.24.24,0,0,0-.16-.2l-6.68-3a.24.24,0,0,0-.25,0,.94.94,0,0,0-.24.36l-.32-.14,1.22-2.71.32.14c-.15.33-.13.54,0,.62l6.68,3c.18.08.34,0,.49-.38l.32.14-1.21,2.71Z"/><path class="cls-1" d="M260.1,194.3q.11-.33-.17-.42l-7-2.27c-.19-.06-.31,0-.39.24l-.33-.11.89-2.73.34.11c0,.09,0,.14,0,.16a1.6,1.6,0,0,0,.64-.25l6.18-2.93-5-1.64q-.28-.09-.4.28l-.33-.11.74-2.27.33.11c-.07.22,0,.37.17.42l7,2.27c.19.06.32,0,.39-.24l.33.11-.79,2.42-.33-.11c0-.09,0-.14-.05-.16a.59.59,0,0,0-.32.09l-.56.26-6.41,3,5.41,1.76c.19.06.32,0,.41-.3l.34.11-.75,2.29Z"/><path class="cls-1" d="M264.16,181.33a.6.6,0,0,0-.14-.42,2,2,0,0,0-.29-.29l-5.65-4.12-.39-.27a.84.84,0,0,0-.3-.13c-.08,0-.13,0-.15,0l-.09.09-.35-.07.59-2.89.34.07a.47.47,0,0,1,0,.14s0,.08.14.1a.64.64,0,0,0,.29,0l.41-.11,7.15-1.78a.71.71,0,0,0,.29-.16.84.84,0,0,0,.17-.23l.35.07L266,174l-.29-.06a.44.44,0,0,0,0-.21.23.23,0,0,0-.19-.15.57.57,0,0,0-.22,0l-.27,0-1.2.29-.83,4.1.93.75.25.18a.64.64,0,0,0,.21.09c.1,0,.17,0,.21-.06a.76.76,0,0,0,.09-.26l.34.07-.52,2.57Zm-1.88-7-3.54.9,2.94,2Z"/><path class="cls-1" d="M18,191.25l.16-.06.21-.07c.14,0,.3-.22.47-.55a5,5,0,0,0,.42-1.36,10.43,10.43,0,0,0,.15-2,11.1,11.1,0,0,0-.29-2.37,9.25,9.25,0,0,0-1-2.67,6.36,6.36,0,0,0-1.7-1.9,5.51,5.51,0,0,0-2.31-1,7,7,0,0,0-2.82.11,6.45,6.45,0,0,0-2.59,1.19,6.91,6.91,0,0,0-1.73,2A6.45,6.45,0,0,0,6.1,185a7,7,0,0,0,.1,2.51A9.86,9.86,0,0,0,7,189.75a15.77,15.77,0,0,0,1.18,2,7.28,7.28,0,0,0,1.22,1.38q.6.51,1,.42l.34-.08a1.77,1.77,0,0,0,.41-.14l.53.37-3.76,4.14-.31-.37a2.3,2.3,0,0,0,0-.76,3,3,0,0,0-.63-1Q6.49,195,5.75,194a16.12,16.12,0,0,1-1.44-2.51,16.39,16.39,0,0,1-1.12-3.36,14.07,14.07,0,0,1-.32-4,9.48,9.48,0,0,1,3.43-6.86,9.15,9.15,0,0,1,3.95-1.87,9,9,0,0,1,4.35,0,9.41,9.41,0,0,1,3.53,1.77,10.62,10.62,0,0,1,2.58,3.07,14.26,14.26,0,0,1,1.51,3.9,14,14,0,0,1,.37,3,18.26,18.26,0,0,1-.14,2.49q-.15,1.1-.29,1.84a2.93,2.93,0,0,0-.08,1,.55.55,0,0,0,.21.33,1.53,1.53,0,0,1,.28.27l-.18.57-4.64-1.87Z"/><path class="cls-1" d="M28.94,208.11c-.27-.57-.61-.76-1-.58l-9,4.29a4.12,4.12,0,0,0-2.36,2.81,7.14,7.14,0,0,0,.86,4.72A7.14,7.14,0,0,0,20.62,223a4.12,4.12,0,0,0,3.67-.08l9-4.29q.59-.28.12-1.26l.7-.34,2.6,5.42-.7.34q-.41-.86-1-.58l-9.87,4.73a5.79,5.79,0,0,1-2.58.57,6.26,6.26,0,0,1-2.76-.71A9.2,9.2,0,0,1,17,224.57a19.19,19.19,0,0,1-3.91-8.16,9.18,9.18,0,0,1,0-3.49,6.24,6.24,0,0,1,1.18-2.6,5.77,5.77,0,0,1,2.06-1.66l9.87-4.73a.53.53,0,0,0,.34-.45,2.22,2.22,0,0,0-.29-1l.7-.34,2.67,5.58Z"/><path class="cls-1" d="M46.35,236.12l-.61.48q-.62-.78-1.13-.38l-11.29,8.95,7.25,9.16a1.48,1.48,0,0,0,.72.53.77.77,0,0,0,.74-.14l.48.61L39,258.14l-.48-.61a.35.35,0,0,0,.09-.51,6.86,6.86,0,0,0-.5-.71L27.53,243l.61-.48q.7.88,1.21.48L42,233q.51-.4-.19-1.28l.61-.48Z"/><path class="cls-1" d="M49.21,266.39a2.06,2.06,0,0,0,.81.52.53.53,0,0,0,.52-.2l10.77-12.07a.53.53,0,0,0,.14-.54,2.08,2.08,0,0,0-.61-.75l.52-.58,4.91,4.38-.52.58q-.91-.81-1.34-.32L53.65,269.48q-.43.48.47,1.29l-.52.58L48.69,267Z"/><path class="cls-1" d="M65.73,280.2q.67.4,1-.16L75,266.14q.33-.56-.34-1l.4-.67,5.46,3.26-.4.67c-.19-.08-.31-.07-.37,0A3.53,3.53,0,0,0,80,270l3.29,14.76,6-10.07q.33-.56-.41-1l.4-.67,4.53,2.7-.4.67q-.67-.4-1,.16l-8.29,13.9q-.33.56.34,1l-.4.67-4.83-2.88.4-.67q.26.16.37,0a1.29,1.29,0,0,0,0-.73q-.13-.58-.29-1.33L76.3,271.09,69.85,281.9q-.33.56.45,1l-.4.67-4.57-2.73Z"/><path class="cls-1" d="M95.69,296.5a1.31,1.31,0,0,0,1-.21,4.52,4.52,0,0,0,.71-.57l10.48-11.38.69-.8a1.88,1.88,0,0,0,.36-.63c.05-.17.05-.28,0-.34l-.18-.22.24-.74,6.21,2-.24.74a1,1,0,0,1-.31,0c-.1,0-.19.09-.25.28a1.4,1.4,0,0,0,0,.66c0,.27.09.58.13.93l2.12,16.16a1.59,1.59,0,0,0,.28.68,2,2,0,0,0,.45.42l-.24.74-5.84-1.9.2-.62a1,1,0,0,0,.47,0,.49.49,0,0,0,.37-.38,1.29,1.29,0,0,0,.07-.48c0-.16,0-.36,0-.6l-.35-2.71-8.8-2.86-1.88,1.85c-.18.18-.33.35-.46.51a1.38,1.38,0,0,0-.26.44c-.07.22,0,.38.07.48a1.71,1.71,0,0,0,.55.27L101,299l-5.51-1.79Zm16-2.36-1.08-8-5.17,6Z"/><path class="cls-1" d="M142.71,288.87a11.88,11.88,0,0,1,5.86,1.87,4.63,4.63,0,0,1,1.72,4.54,4.76,4.76,0,0,1-.64,2,5.19,5.19,0,0,1-1.3,1.46,6.12,6.12,0,0,1-1.68.92,8.94,8.94,0,0,1-1.83.45l3.6,6.58a2.49,2.49,0,0,0,.68.79,3.73,3.73,0,0,0,.85.46l-.08.78-6.59-.66.08-.78q.56.06.6-.33a2.81,2.81,0,0,0-.51-1.4l-2.89-5.42-6-.6-.62,6.16a.52.52,0,0,0,.23.52,1.13,1.13,0,0,0,.52.21l-.08.78-5.73-.57.08-.78q.78.08.84-.57l1.61-16.1q.06-.65-.71-.72l.08-.77ZM141.8,297q4.22.42,4.49-2.25a1.93,1.93,0,0,0-.84-1.8,6.36,6.36,0,0,0-3.15-.95l-6.8-.68-.5,5Z"/><path class="cls-1" d="M160.57,291a1.74,1.74,0,0,0-.8-.47,2.24,2.24,0,0,0-.84-.08l-.09-.77,7.09-.84.09.77a1,1,0,0,0-.46.21.46.46,0,0,0-.21.44.75.75,0,0,0,.23.45l.45.47,5,5.16,3.2-5.78.48-.91a1,1,0,0,0,.13-.56c0-.23-.12-.36-.27-.41a1.15,1.15,0,0,0-.44,0l-.09-.77,6.57-.78.09.77a1.78,1.78,0,0,0-1.07.71,10.57,10.57,0,0,0-1,1.31l-5.57,9.28.76,6.45c0,.43.35.61.89.55l.09.77-5.71.67-.09-.77q.77-.09.7-.74l-.78-6.62Z"/><path class="cls-1" d="M212,290a3.27,3.27,0,0,1,.14.34,3.82,3.82,0,0,0,.16.38,1.49,1.49,0,0,0,1.26.71,8,8,0,0,0,2.17,0A19.18,19.18,0,0,0,218,291a10.38,10.38,0,0,0,1.71-.59q.54-.27,1.31-.73a8.25,8.25,0,0,0,1.42-1.09,4.49,4.49,0,0,0,1-1.34,1.62,1.62,0,0,0,0-1.45,1.45,1.45,0,0,0-1.56-.78,11.77,11.77,0,0,0-2.69.56q-1.54.48-3.32,1.08a17.82,17.82,0,0,1-3.45.81,7,7,0,0,1-3.07-.24,3.79,3.79,0,0,1-2.21-2.13,5.16,5.16,0,0,1,.14-5,10.92,10.92,0,0,1,5.08-4.29,16.12,16.12,0,0,1,3.28-1.23,17,17,0,0,1,2.51-.42,17.48,17.48,0,0,1,1.77-.07,2.35,2.35,0,0,0,1-.11,1,1,0,0,0,.42-.32q.11-.17.29-.4l.63.22-.17,4.6-.81.11-.3-.43a.88.88,0,0,0-.58-.3,7.28,7.28,0,0,0-3,0,14.8,14.8,0,0,0-3.89,1.31,12.05,12.05,0,0,0-1.43.82,5.36,5.36,0,0,0-1.08.93,2.5,2.5,0,0,0-.56,1,1.52,1.52,0,0,0,.13,1.07,1.42,1.42,0,0,0,1.55.76,12.56,12.56,0,0,0,2.68-.58q1.54-.48,3.32-1.08a17,17,0,0,1,3.46-.79,6.83,6.83,0,0,1,3.11.32,4.08,4.08,0,0,1,2.26,2.22,5,5,0,0,1,.52,3.21,6.57,6.57,0,0,1-1.25,2.72,9.5,9.5,0,0,1-2.35,2.15,24.62,24.62,0,0,1-2.73,1.56,15.27,15.27,0,0,1-2.75,1,25.09,25.09,0,0,1-2.66.57q-1.23.19-2.11.25a4.68,4.68,0,0,0-1,.14.66.66,0,0,0-.35.46l-.73-.12-.32-5.23Z"/><path class="cls-1" d="M237.63,260.08a16.11,16.11,0,0,1,3.9-2.29,10.74,10.74,0,0,1,4-.83,8.67,8.67,0,0,1,3.82.87,10.65,10.65,0,0,1,5.32,6.77,8.67,8.67,0,0,1-.05,3.92,9.92,9.92,0,0,1-1.79,3.64,18.83,18.83,0,0,1-7,5.53,9.89,9.89,0,0,1-4,.88,8.68,8.68,0,0,1-3.82-.87,10.66,10.66,0,0,1-5.32-6.77,8.7,8.7,0,0,1,.06-3.92,10.77,10.77,0,0,1,1.75-3.69A16.09,16.09,0,0,1,237.63,260.08Zm2,2.52a8.25,8.25,0,0,0-1.85,2,7.67,7.67,0,0,0-1.05,2.48,6.41,6.41,0,0,0,0,2.64,6.43,6.43,0,0,0,3.42,4.35,6.42,6.42,0,0,0,2.58.59,7.64,7.64,0,0,0,2.66-.44,8.26,8.26,0,0,0,4.25-3.34,7.63,7.63,0,0,0,1.05-2.48,6.4,6.4,0,0,0,0-2.65,6.43,6.43,0,0,0-3.42-4.35,6.44,6.44,0,0,0-2.58-.59,7.67,7.67,0,0,0-2.66.44A8.26,8.26,0,0,0,239.61,262.6Z"/><path class="cls-1" d="M257.61,242.49c-.39.5-.42.88-.08,1.15l7.78,6.18a4.13,4.13,0,0,0,3.56.89,9.14,9.14,0,0,0,5.75-7.25,4.12,4.12,0,0,0-1.67-3.26L265.17,234q-.51-.4-1.18.44l-.61-.49,3.74-4.71.61.48q-.59.74-.08,1.15l8.58,6.8a5.76,5.76,0,0,1,1.64,2.08,6.24,6.24,0,0,1,.57,2.8,9.19,9.19,0,0,1-.79,3.4,19.16,19.16,0,0,1-5.62,7.08,9.17,9.17,0,0,1-3.13,1.55,6.23,6.23,0,0,1-2.85.08,5.75,5.75,0,0,1-2.39-1.13l-8.57-6.8a.54.54,0,0,0-.55-.11,2.2,2.2,0,0,0-.74.69l-.61-.48L257,242Z"/><path class="cls-1" d="M290.88,223.86a.76.76,0,0,0,.05-.46.57.57,0,0,0-.35-.41l-12.95-6.32-2.47,5.05a1.29,1.29,0,0,0-.13.66.6.6,0,0,0,.37.52l-.34.7-4.47-2.18.34-.7a1,1,0,0,0,.87.09,1.1,1.1,0,0,0,.48-.49L279,206.48a1.09,1.09,0,0,0,.09-.68q-.06-.37-.6-.63l.34-.7,4.47,2.18-.34.7a.6.6,0,0,0-.64,0,1.3,1.3,0,0,0-.44.51l-2.47,5.05,12.95,6.32q.58.28.92-.42l.7.34-2.45,5Z"/><path class="cls-1" d="M301.3,195.85a.59.59,0,0,0,.53-.07.71.71,0,0,0,.26-.4l.76.19-1.3,5.29-.76-.19a.71.71,0,0,0,0-.48.59.59,0,0,0-.44-.31L284.6,196a.59.59,0,0,0-.53.07.72.72,0,0,0-.26.4l-.76-.19,1.3-5.29.76.19a.72.72,0,0,0,0,.48.59.59,0,0,0,.44.31l5.92,1.46,2.77-11.26-5.92-1.46a.6.6,0,0,0-.53.07.71.71,0,0,0-.25.4l-.76-.19,1.3-5.29.76.19a.71.71,0,0,0,0,.48.59.59,0,0,0,.44.31l15.71,3.86a.59.59,0,0,0,.53-.07.72.72,0,0,0,.26-.41l.76.19-1.3,5.29-.76-.19a.72.72,0,0,0,0-.48.59.59,0,0,0-.44-.31L297.73,183,295,194.29Z"/></g></g></svg>