<svg xmlns="http://www.w3.org/2000/svg" viewBox="0 0 33.53 35.55"><defs><style>.cls-1{fill:#af976d;}</style></defs><title>king-bean-coffee-crown</title><g id="Layer_2" data-name="Layer 2"><g id="PAGE_Tips" data-name="PAGE Tips"><path class="cls-1" d="M16.47,0h0C12,28.32,0,7.71,0,7.71,1.92,14,4.78,25.44,4.78,25.44s2.71-4,11.72-4.07,11.88,4.07,11.88,4.07S31.6,14,33.53,7.71C33.53,7.71,20.94,28.32,16.47,0Z"/><path class="cls-1" d="M28,30.75a3.56,3.56,0,0,0,.19-1.13c0-3.27-4.48-5.93-11.52-5.93-6.88,0-11.57,2.54-11.78,5.71C11.26,30.64,24.78,24.77,28,30.75Z"/><path class="cls-1" d="M23.6,29.39c-2.86-.23-6.3.42-10,1.07a15.41,15.41,0,0,1-8.68-.78c.05,3.25,4.8,5.87,11.79,5.87,6.07,0,10.23-2,11.26-4.62A9.43,9.43,0,0,0,23.6,29.39Z"/></g></g></svg>