<svg xmlns="http://www.w3.org/2000/svg" viewBox="0 0 147.29 90.1"><defs><style>.cls-1{fill:#696767;}.cls-2{fill:#af976d;}</style></defs><title>king-bean-crown</title><g id="Layer_2" data-name="Layer 2"><g id="PAGE_Shop" data-name="PAGE Shop"><path class="cls-1" d="M.86,64.15a.51.51,0,0,0,.31-.1.47.47,0,0,0,.13-.4V57.79l-.29,0-.33.06A1.17,1.17,0,0,0,.4,58a.42.42,0,0,0-.18.22H0V56H.21a.22.22,0,0,0,.16.22.83.83,0,0,0,.3.06.72.72,0,0,0,.5-.18.59.59,0,0,0,.2-.45c0-.16,0-.27-.11-.32a.9.9,0,0,0-.31-.11V55H3.79v.21a1,1,0,0,0-.35.12.29.29,0,0,0-.14.26v8a.45.45,0,0,0,.14.4.55.55,0,0,0,.32.1v.21H.86Z"/><path class="cls-1" d="M10.93,61.64l.21.11a1,1,0,0,0,0,.21.49.49,0,0,0,.1.21,1.52,1.52,0,0,0,.47.4,3.31,3.31,0,0,0,.64.27,4.08,4.08,0,0,0,.69.15,5.14,5.14,0,0,0,.63,0,2.61,2.61,0,0,0,2.92-2.76,13.31,13.31,0,0,1-1.48.63,4.56,4.56,0,0,1-1.55.26A5.63,5.63,0,0,1,12.3,61a4,4,0,0,1-1.2-.49,2.8,2.8,0,0,1-.88-.86,2.27,2.27,0,0,1-.34-1.26,2.83,2.83,0,0,1,.4-1.53,3.36,3.36,0,0,1,1-1,4.59,4.59,0,0,1,1.41-.61A6.46,6.46,0,0,1,14.27,55a4.65,4.65,0,0,1,1.77.33,4,4,0,0,1,2.27,2.31,4.83,4.83,0,0,1,.32,1.78,5.63,5.63,0,0,1-.36,2.06,4.38,4.38,0,0,1-2.62,2.58,5.89,5.89,0,0,1-2.06.34,6.76,6.76,0,0,1-1.34-.11,4.43,4.43,0,0,1-.92-.28q-.37-.17-.6-.3a.8.8,0,0,0-.37-.13.54.54,0,0,0-.33.11l-.14-.12Zm3.18-5.11a4.28,4.28,0,0,0-.83.08,2.29,2.29,0,0,0-.72.26,1.39,1.39,0,0,0-.5.49,1.67,1.67,0,0,0,0,1.53,1.39,1.39,0,0,0,.5.49,2.31,2.31,0,0,0,.72.26,4.35,4.35,0,0,0,1.65,0,2.32,2.32,0,0,0,.72-.26,1.39,1.39,0,0,0,.5-.49,1.68,1.68,0,0,0,0-1.53,1.39,1.39,0,0,0-.5-.49,2.29,2.29,0,0,0-.72-.26A4.29,4.29,0,0,0,14.11,56.53Z"/><path class="cls-1" d="M127.72,61.64l.21.11a1,1,0,0,0,0,.21.5.5,0,0,0,.1.21,1.52,1.52,0,0,0,.47.4,3.27,3.27,0,0,0,.64.27,4.08,4.08,0,0,0,.69.15,5.15,5.15,0,0,0,.63,0,2.61,2.61,0,0,0,2.92-2.76,13.31,13.31,0,0,1-1.48.63,4.56,4.56,0,0,1-1.55.26,5.64,5.64,0,0,1-1.3-.16,4,4,0,0,1-1.2-.49,2.8,2.8,0,0,1-.88-.86,2.27,2.27,0,0,1-.34-1.26,2.83,2.83,0,0,1,.4-1.53,3.37,3.37,0,0,1,1-1,4.59,4.59,0,0,1,1.41-.61,6.46,6.46,0,0,1,1.55-.19,4.64,4.64,0,0,1,1.77.33,4.05,4.05,0,0,1,1.38.91,4.11,4.11,0,0,1,.9,1.4,4.83,4.83,0,0,1,.32,1.78,5.63,5.63,0,0,1-.36,2.06,4.49,4.49,0,0,1-1,1.58,4.44,4.44,0,0,1-1.59,1,5.89,5.89,0,0,1-2.06.34A6.77,6.77,0,0,1,129,64.3a4.44,4.44,0,0,1-.92-.28q-.37-.17-.6-.3a.8.8,0,0,0-.37-.13.54.54,0,0,0-.33.11l-.14-.12Zm3.18-5.11a4.28,4.28,0,0,0-.83.08,2.29,2.29,0,0,0-.72.26,1.39,1.39,0,0,0-.5.49,1.67,1.67,0,0,0,0,1.53,1.39,1.39,0,0,0,.5.49,2.32,2.32,0,0,0,.72.26,4.35,4.35,0,0,0,1.65,0,2.32,2.32,0,0,0,.72-.26,1.4,1.4,0,0,0,.5-.49,1.67,1.67,0,0,0,0-1.53,1.4,1.4,0,0,0-.5-.49,2.29,2.29,0,0,0-.72-.26A4.29,4.29,0,0,0,130.9,56.53Z"/><path class="cls-1" d="M139.07,62.78a1,1,0,0,0-.45.08.32.32,0,0,0-.15.31h-.21v-2l4.51-4.9.35-.4a.53.53,0,0,0,.16-.29.18.18,0,0,0-.11-.18l-.19-.1v-.21h3.41v.21a.4.4,0,0,0-.26.09.3.3,0,0,0-.11.25v5.61h.56a.77.77,0,0,0,.36-.07q.13-.07.13-.35h.21v2.37h-.21q0-.3-.13-.37a.77.77,0,0,0-.36-.07H146v.88a.51.51,0,0,0,.11.4.36.36,0,0,0,.24.1v.21h-2.65v-.21a.57.57,0,0,0,.33-.1.45.45,0,0,0,.14-.4v-.88Zm5.13-5.87-4,4.36h4Z"/><path class="cls-2" d="M73,0a.45.45,0,0,0-.41,0,.62.62,0,0,0-.27.59c0,.3-.05.61-.08.91,0,.63-.11,1.26-.21,1.89-.17,1.08-.4,2.16-.63,3.23-1.53,6.87-5,22.55-15,21.53-5.75-.59-10.39-6.14-13.58-10.47a.7.7,0,0,0-1.24.62c3.07,10.63,6.72,25,7.81,29.35a.7.7,0,0,0,1.19.32C52.75,45.88,59.07,41,73,41c14.13-.05,20.59,5,22.7,7.11a.7.7,0,0,0,1.18-.3c1.22-4.32,5.35-18.9,8.55-29.61a.7.7,0,0,0-1.24-.63c-.57.68-1.1,1.4-1.67,2.08-3.52,4.15-9,9.63-15,8.51-3.74-.7-6.32-3.94-8.07-7.09q-.47-.85-.9-1.73A45.37,45.37,0,0,1,76,13.11c-.68-2.14-1.22-4.31-1.69-6.5Q74,5,73.72,3.34q-.15-.82-.28-1.63c0-.26-.21-1.25-.22-1.36A.39.39,0,0,0,73,0Z"/><path class="cls-2" d="M73.84,63.94A46.41,46.41,0,0,1,59.19,66.3a46.65,46.65,0,0,1-6.56-.46,1.29,1.29,0,0,0-1.22,2c3.45,5,12,8.62,22.1,8.62,11.32,0,20.8-4.53,23.16-10.58a2.75,2.75,0,0,0-2.15-3.7A44.48,44.48,0,0,0,73.84,63.94Z"/><path class="cls-2" d="M73.17,59.81a46.61,46.61,0,0,1,21.21-1.9,1.29,1.29,0,0,0,1.23-2c-3.45-5-12-8.62-22.1-8.62-11.32,0-20.8,4.53-23.16,10.58a2.75,2.75,0,0,0,2.15,3.7A44.47,44.47,0,0,0,73.17,59.81Z"/><path class="cls-2" d="M91.51,90.1h-36a1.09,1.09,0,0,1-.94-.54l-1.25-2.14a1.09,1.09,0,0,1,.94-1.64h38.5a1.09,1.09,0,0,1,.94,1.64l-1.25,2.14A1.09,1.09,0,0,1,91.51,90.1Z"/></g></g></svg>