<svg xmlns="http://www.w3.org/2000/svg" viewBox="0 0 273.76 54.23">
	<defs>
	  <style>.kb-logo-text-cls-1{fill:#696767;}</style>
  </defs>
  <title>king-bean-text</title>
	<path class="kb-logo-text-cls-1" d="M43.31,47.65a.3.3,0,0,0,0-.08.44.44,0,0,1,0-.1c0-.07-.07-.16-.2-.27a2.39,2.39,0,0,0-.58-.33,4.84,4.84,0,0,0-.88-.27,5.21,5.21,0,0,0-1.11-.11,4.27,4.27,0,0,0-1.33.19,3,3,0,0,0-1,.58,2.6,2.6,0,0,0-.69,1,3.27,3.27,0,0,0-.24,1.29,3,3,0,0,0,.27,1.3,3.18,3.18,0,0,0,.72,1,3,3,0,0,0,1,.63,3.23,3.23,0,0,0,1.15.21,4.58,4.58,0,0,0,1.11-.14,7.28,7.28,0,0,0,1-.34,3.4,3.4,0,0,0,.76-.41c.19-.15.29-.28.29-.4v-.16a.83.83,0,0,0,0-.2l.22-.2,1.5,2.14-.2.1a1.08,1.08,0,0,0-.34-.1,1.41,1.41,0,0,0-.53.19q-.36.18-.92.41a7.66,7.66,0,0,1-2.94.56,6.52,6.52,0,0,1-1.84-.26,4.43,4.43,0,0,1-2.77-2.28,4.26,4.26,0,0,1-.45-2,4.2,4.2,0,0,1,.45-2,4.37,4.37,0,0,1,1.17-1.43,5,5,0,0,1,1.67-.86A6.75,6.75,0,0,1,40.49,45a6.49,6.49,0,0,1,1.41.14,8.46,8.46,0,0,1,1.12.33l.81.32a1.36,1.36,0,0,0,.46.14.26.26,0,0,0,.17-.06.68.68,0,0,1,.15-.1l.24.14-1.34,1.92Z"/>
	<path class="kb-logo-text-cls-1" d="M57,45.26a5.11,5.11,0,0,1,1.71.85,4.05,4.05,0,0,1,1.15,1.42,5,5,0,0,1,0,4A4,4,0,0,1,58.68,53a4.61,4.61,0,0,1-1.71.82,8.79,8.79,0,0,1-4.19,0A4.6,4.6,0,0,1,51.07,53a4,4,0,0,1-1.15-1.43,5,5,0,0,1,0-4,4.06,4.06,0,0,1,1.15-1.42,5.1,5.1,0,0,1,1.71-.85,7.91,7.91,0,0,1,4.19,0Zm-3.36,1.43a3.57,3.57,0,0,0-1.1.61,3,3,0,0,0-.78,1,3,3,0,0,0,0,2.59,3,3,0,0,0,.78,1,3.57,3.57,0,0,0,1.1.61,3.86,3.86,0,0,0,2.53,0,3.56,3.56,0,0,0,1.1-.61,3,3,0,0,0,.78-1,3,3,0,0,0,0-2.59,3,3,0,0,0-.78-1,3.56,3.56,0,0,0-1.1-.61,3.88,3.88,0,0,0-2.53,0Z"/>
	<path class="kb-logo-text-cls-1" d="M73.89,46.88c0-.07,0-.13-.14-.19a1,1,0,0,0-.49-.09H67.78v2.14h3.56a.75.75,0,0,0,.42-.07.35.35,0,0,0,.1-.23h.36v2.12h-.36a.4.4,0,0,0-.1-.24.68.68,0,0,0-.42-.08H67.78v3.1a.24.24,0,0,0,.14.23.68.68,0,0,0,.32.07V54H65.45v-.37c.26,0,.38-.1.38-.3V45.77c0-.2-.14-.3-.43-.3V45.1h7.85a.88.88,0,0,0,.49-.1.31.31,0,0,0,.14-.26h.36v2.14Z"/>
	<path class="kb-logo-text-cls-1" d="M88,46.88q0-.1-.14-.19a1,1,0,0,0-.49-.09H81.85v2.14h3.56a.75.75,0,0,0,.42-.07.36.36,0,0,0,.1-.23h.36v2.12h-.36a.4.4,0,0,0-.1-.24.69.69,0,0,0-.42-.08H81.85v3.1a.24.24,0,0,0,.14.23.69.69,0,0,0,.32.07V54H79.53v-.37c.26,0,.38-.1.38-.3V45.77c0-.2-.14-.3-.42-.3V45.1h7.85a.88.88,0,0,0,.49-.1.31.31,0,0,0,.14-.26h.36v2.14Z"/>
	<path class="kb-logo-text-cls-1" d="M101.51,47c0-.25-.21-.38-.63-.38H96v2h3.12a1.79,1.79,0,0,0,.51,0c.11,0,.16-.12.16-.27h.36v2.14h-.4a.2.2,0,0,0-.16-.27,3.09,3.09,0,0,0-.63,0H96v2.39h5.18a.69.69,0,0,0,.4-.11.34.34,0,0,0,.16-.29h.36v2.12h-.36a.18.18,0,0,0-.16-.2l-.4,0H93.71v-.37a.34.34,0,0,0,.2-.07.26.26,0,0,0,.1-.23V45.77a.27.27,0,0,0-.1-.23.36.36,0,0,0-.2-.07V45.1h7.18c.42,0,.63-.12.63-.36h.36V47Z"/>
	<path class="kb-logo-text-cls-1" d="M115.59,47c0-.25-.21-.38-.63-.38H110v2h3.11a1.79,1.79,0,0,0,.5,0c.11,0,.16-.12.16-.27h.36v2.14h-.4a.2.2,0,0,0-.16-.27,3.1,3.1,0,0,0-.63,0h-3v2.39h5.18a.7.7,0,0,0,.4-.11.34.34,0,0,0,.16-.29h.36v2.12h-.36a.18.18,0,0,0-.16-.2l-.4,0h-7.42v-.37a.34.34,0,0,0,.2-.07.26.26,0,0,0,.1-.23V45.77a.27.27,0,0,0-.1-.23.36.36,0,0,0-.2-.07V45.1H115c.42,0,.63-.12.63-.36H116V47Z"/>
	<path class="kb-logo-text-cls-1" d="M139.17,45.7a2.16,2.16,0,0,1,1,2,2.23,2.23,0,0,1-.2,1,2.42,2.42,0,0,1-.54.74,2.89,2.89,0,0,1-.74.51,4.14,4.14,0,0,1-.83.29l2,2.89a1.2,1.2,0,0,0,.35.34,1.78,1.78,0,0,0,.42.17V54h-3.1v-.37c.17,0,.26-.06.26-.18a1.32,1.32,0,0,0-.3-.63l-1.6-2.39h-2.81v2.89a.24.24,0,0,0,.13.23.5.5,0,0,0,.25.07V54h-2.69v-.37c.24,0,.36-.1.36-.3V45.77c0-.2-.12-.3-.36-.3V45.1h5.58A5.53,5.53,0,0,1,139.17,45.7Zm-2.85,3.25q2,0,2-1.25a.9.9,0,0,0-.48-.8,3,3,0,0,0-1.51-.29h-3.2v2.35Z"/>
	<path class="kb-logo-text-cls-1" d="M152.65,45.26a5.1,5.1,0,0,1,1.71.85,4.05,4.05,0,0,1,1.15,1.42,5,5,0,0,1,0,4A4,4,0,0,1,154.36,53a4.6,4.6,0,0,1-1.71.82,8.79,8.79,0,0,1-4.19,0,4.6,4.6,0,0,1-1.71-.82,4,4,0,0,1-1.15-1.43,5,5,0,0,1,0-4,4.07,4.07,0,0,1,1.15-1.42,5.1,5.1,0,0,1,1.71-.85,7.91,7.91,0,0,1,4.19,0Zm-3.36,1.43a3.55,3.55,0,0,0-1.1.61,3,3,0,0,0-.78,1,3,3,0,0,0,0,2.59,3,3,0,0,0,.78,1,3.55,3.55,0,0,0,1.1.61,3.86,3.86,0,0,0,2.53,0,3.58,3.58,0,0,0,1.1-.61,3,3,0,0,0,.78-1,3,3,0,0,0,0-2.59,3,3,0,0,0-.78-1,3.58,3.58,0,0,0-1.1-.61,3.88,3.88,0,0,0-2.53,0Z"/>
	<path class="kb-logo-text-cls-1" d="M159.88,53.64a.61.61,0,0,0,.4-.23,2.1,2.1,0,0,0,.23-.35l3-6.57.19-.46a.85.85,0,0,0,.07-.33c0-.08,0-.13-.05-.15l-.11-.07V45.1h3.06v.37l-.13.06s-.07.07-.07.16a.63.63,0,0,0,.09.29l.19.4L170,53.25a.76.76,0,0,0,.22.26.93.93,0,0,0,.26.12V54h-2.87v-.3a.44.44,0,0,0,.21-.06.23.23,0,0,0,.11-.22.6.6,0,0,0,0-.22l-.1-.26-.55-1.15H163l-.57,1.09-.13.29a.65.65,0,0,0,0,.23c0,.11,0,.18.1.2a.79.79,0,0,0,.28,0V54h-2.71Zm6.76-3.36L165,46.88l-1.43,3.4Z"/>
	<path class="kb-logo-text-cls-1" d="M175.9,50.91c0,.05,0,.11,0,.17a1.6,1.6,0,0,0,0,.19.7.7,0,0,0,.38.56,3.75,3.75,0,0,0,.92.42,8.55,8.55,0,0,0,1.07.27,4.69,4.69,0,0,0,.84.1c.19,0,.42,0,.7,0a4,4,0,0,0,.82-.17,2.07,2.07,0,0,0,.69-.36.76.76,0,0,0,.28-.62.68.68,0,0,0-.5-.65,5.37,5.37,0,0,0-1.24-.31l-1.62-.22a8.52,8.52,0,0,1-1.62-.36,3.28,3.28,0,0,1-1.25-.73,1.78,1.78,0,0,1-.49-1.34,2.41,2.41,0,0,1,1.07-2.06,5.09,5.09,0,0,1,3-.77,7.54,7.54,0,0,1,1.63.15,7.88,7.88,0,0,1,1.14.34c.31.12.56.23.76.33a1.11,1.11,0,0,0,.44.15.46.46,0,0,0,.24-.05l.2-.11.22.22-1,1.9-.37-.12,0-.24a.42.42,0,0,0-.18-.24,3.41,3.41,0,0,0-1.25-.58,6.86,6.86,0,0,0-1.9-.24,5.72,5.72,0,0,0-.77,0,2.48,2.48,0,0,0-.65.17A1.15,1.15,0,0,0,177,47a.71.71,0,0,0-.16.48.66.66,0,0,0,.5.64,5.68,5.68,0,0,0,1.24.3l1.62.22a8.22,8.22,0,0,1,1.62.38,3.21,3.21,0,0,1,1.24.77,1.91,1.91,0,0,1,.5,1.4,2.31,2.31,0,0,1-.44,1.46,3,3,0,0,1-1.08.89,4.4,4.4,0,0,1-1.42.43,11.59,11.59,0,0,1-1.47.1,7.31,7.31,0,0,1-1.36-.13,11.9,11.9,0,0,1-1.23-.3c-.37-.11-.68-.22-.94-.32a2.12,2.12,0,0,0-.47-.15.31.31,0,0,0-.24.12l-.28-.2.93-2.27Z"/>
	<path class="kb-logo-text-cls-1" d="M191.72,53.57a.26.26,0,0,0,.1-.23V46.6h-2.63a.62.62,0,0,0-.3.08.28.28,0,0,0-.14.26h-.36V44.62h.36a.45.45,0,0,0,.14.39.52.52,0,0,0,.3.1h7.2a.53.53,0,0,0,.31-.1.45.45,0,0,0,.14-.39h.36v2.33h-.36a.28.28,0,0,0-.14-.26.62.62,0,0,0-.31-.08h-2.63v6.73c0,.2.12.3.37.3V54h-2.61v-.37A.35.35,0,0,0,191.72,53.57Z"/>
	<path class="kb-logo-text-cls-1" d="M210.14,47c0-.25-.21-.38-.63-.38h-4.93v2h3.11a1.8,1.8,0,0,0,.51,0,.25.25,0,0,0,.16-.27h.37v2.14h-.4a.2.2,0,0,0-.16-.27,3.08,3.08,0,0,0-.63,0h-3v2.39h5.18a.69.69,0,0,0,.4-.11.34.34,0,0,0,.16-.29h.36v2.12h-.36a.18.18,0,0,0-.16-.2l-.4,0h-7.42v-.37a.33.33,0,0,0,.2-.07.26.26,0,0,0,.1-.23V45.77a.27.27,0,0,0-.1-.23.35.35,0,0,0-.2-.07V45.1h7.18c.42,0,.63-.12.63-.36h.37V47Z"/>
	<path class="kb-logo-text-cls-1" d="M224.73,45.7a2.16,2.16,0,0,1,1,2,2.23,2.23,0,0,1-.21,1,2.37,2.37,0,0,1-.53.74,2.9,2.9,0,0,1-.74.51,4.13,4.13,0,0,1-.83.29l2,2.89a1.21,1.21,0,0,0,.35.34,1.75,1.75,0,0,0,.41.17V54h-3.09v-.37c.18,0,.26-.06.26-.18a1.32,1.32,0,0,0-.31-.63l-1.6-2.39h-2.81v2.89a.24.24,0,0,0,.13.23.51.51,0,0,0,.25.07V54h-2.69v-.37c.24,0,.36-.1.36-.3V45.77c0-.2-.12-.3-.36-.3V45.1h5.58A5.54,5.54,0,0,1,224.73,45.7Zm-2.85,3.25q2,0,2-1.25a.91.91,0,0,0-.48-.8,3,3,0,0,0-1.51-.29h-3.2v2.35Z"/>
	<path class="kb-logo-text-cls-1" d="M232.19,50.91a1.43,1.43,0,0,1,0,.17,1.91,1.91,0,0,0,0,.19.7.7,0,0,0,.39.56,3.75,3.75,0,0,0,.92.42,8.53,8.53,0,0,0,1.07.27,4.71,4.71,0,0,0,.84.1c.19,0,.42,0,.7,0a4,4,0,0,0,.82-.17,2.07,2.07,0,0,0,.69-.36.76.76,0,0,0,.28-.62.68.68,0,0,0-.5-.65,5.35,5.35,0,0,0-1.24-.31l-1.62-.22a8.55,8.55,0,0,1-1.62-.36,3.27,3.27,0,0,1-1.24-.73,1.77,1.77,0,0,1-.49-1.34,2.41,2.41,0,0,1,1.07-2.06,5.1,5.1,0,0,1,3-.77,7.55,7.55,0,0,1,1.63.15,8,8,0,0,1,1.14.34c.31.12.56.23.76.33a1.11,1.11,0,0,0,.44.15.46.46,0,0,0,.24-.05l.2-.11.22.22-1,1.9-.36-.12,0-.24a.42.42,0,0,0-.18-.24,3.41,3.41,0,0,0-1.25-.58,6.87,6.87,0,0,0-1.9-.24,5.78,5.78,0,0,0-.77,0,2.48,2.48,0,0,0-.65.17,1.16,1.16,0,0,0-.45.31.71.71,0,0,0-.16.48.66.66,0,0,0,.5.64,5.68,5.68,0,0,0,1.24.3l1.62.22a8.2,8.2,0,0,1,1.62.38,3.22,3.22,0,0,1,1.24.77,1.91,1.91,0,0,1,.49,1.4,2.32,2.32,0,0,1-.43,1.46,3,3,0,0,1-1.08.89,4.41,4.41,0,0,1-1.42.43,11.59,11.59,0,0,1-1.47.1,7.28,7.28,0,0,1-1.36-.13,11.88,11.88,0,0,1-1.23-.3c-.37-.11-.68-.22-.94-.32a2.1,2.1,0,0,0-.47-.15.31.31,0,0,0-.24.12l-.28-.2.93-2.27Z"/>
	<path class="kb-logo-text-cls-1" d="M6.88,26a.8.8,0,0,0,.3.68,1.15,1.15,0,0,0,.71.23v.91H0v-.91c.74,0,1.11-.3,1.11-.91V3q0-.91-1.11-.91V1.21H7.9v.91a1.15,1.15,0,0,0-.71.23.8.8,0,0,0-.3.68v9.62L17.36,4.4q.71-.61,1.11-1c.27-.25.41-.46.41-.63a.56.56,0,0,0-.23-.51.94.94,0,0,0-.53-.15V1.21H28.75v.91a2.85,2.85,0,0,0-1.82.76L15.29,12.15l10.63,12.3a12.87,12.87,0,0,0,1.54,1.49,4.94,4.94,0,0,0,1.75,1v.91H19.84v-.91c.44,0,.66-.12.66-.35a2.89,2.89,0,0,0-.71-1.12l-8.65-10L6.88,18.78Z"/>
	<path class="kb-logo-text-cls-1" d="M34.27,26.93q1.31,0,1.32-.91V3q0-.91-1.32-.91V1.21h8.4v.91q-1.32,0-1.32.91V26q0,.91,1.32.91v.91h-8.4Z"/>
	<path class="kb-logo-text-cls-1" d="M51.52,26.93c.64,0,1-.3,1-.91V3q0-.91-1-.91V1.21h8.65v.91q-.4,0-.4.51t1,1.42L75.31,19.13V3q0-.91-1.32-.91V1.21h7.64v.91q-1,0-1,.91V26c0,.61.32.91,1,.91v.91h-8.2v-.91c.44,0,.66-.15.66-.46s-.27-.62-.81-1.16L57.85,9.21V26c0,.61.39.91,1.16.91v.91H51.52Z"/>
	<path class="kb-logo-text-cls-1" d="M113.88,9.41l-1-.3a1.93,1.93,0,0,0,.1-.61A1.68,1.68,0,0,0,112,7.14a9.24,9.24,0,0,0-2.38-1,18.76,18.76,0,0,0-3.14-.63,27.2,27.2,0,0,0-3.21-.2,13.4,13.4,0,0,0-3.72.53,9.73,9.73,0,0,0-3.29,1.64A8.22,8.22,0,0,0,94,10.33a9.53,9.53,0,0,0-.89,4.3A9.56,9.56,0,0,0,94,18.9a8.17,8.17,0,0,0,2.33,2.91,9.73,9.73,0,0,0,3.29,1.64,13.42,13.42,0,0,0,3.72.53,25.5,25.5,0,0,0,5.19-.48,32.86,32.86,0,0,0,3.92-1V18.12h-6.48a1.59,1.59,0,0,0-1.06.3,2,2,0,0,0-.46,1.32h-.91V13.26h.91a1.45,1.45,0,0,0,.46,1.09,2,2,0,0,0,1.06.23h12.65v.91a3.17,3.17,0,0,0-1.26.35,1.09,1.09,0,0,0-.25.86v5.72a.66.66,0,0,0,.3.66l.71.35v.81a18.28,18.28,0,0,1-3.52,1.92,23.49,23.49,0,0,1-3.75,1.19,22.49,22.49,0,0,1-3.8.53q-1.9.1-3.72.1a22.11,22.11,0,0,1-6.45-.89,14,14,0,0,1-5-2.63,12,12,0,0,1-3.21-4.25,13.63,13.63,0,0,1-1.14-5.7,13.61,13.61,0,0,1,1.14-5.69,12.19,12.19,0,0,1,3.21-4.28,14.34,14.34,0,0,1,5-2.71A21,21,0,0,1,103.3.91a28.56,28.56,0,0,1,4.25.3q2,.3,3.59.68t2.61.71a6.31,6.31,0,0,0,1.29.33,1.1,1.1,0,0,0,.71-.2,4.57,4.57,0,0,1,.51-.35l.61.35Z"/>
	<path class="kb-logo-text-cls-1" d="M159.53,1.59a13.93,13.93,0,0,1,3.85,1.21A7.49,7.49,0,0,1,166.05,5a5.34,5.34,0,0,1,1,3.31A4.63,4.63,0,0,1,165.6,12a10.48,10.48,0,0,1-3.49,2v.1a9.9,9.9,0,0,1,4,2.25,5.77,5.77,0,0,1,1.64,4.43,6.08,6.08,0,0,1-.66,2.81,6.46,6.46,0,0,1-1.95,2.25A9.72,9.72,0,0,1,162,27.31a15.61,15.61,0,0,1-4.25.53H139.18v-.91q1.42,0,1.42-.91V3q0-.91-1.42-.91V1.21H155A26.19,26.19,0,0,1,159.53,1.59Zm-3.49,10a10.46,10.46,0,0,0,3.77-.58A2.36,2.36,0,0,0,161.3,8.6a2.36,2.36,0,0,0-1.49-2.46A10.5,10.5,0,0,0,156,5.57h-9.67v6.07Zm0,11.54a8.12,8.12,0,0,0,4.58-1,3.14,3.14,0,0,0,0-5.21A8.14,8.14,0,0,0,156,16h-9.67v7.19Z"/>
	<path class="kb-logo-text-cls-1" d="M200.88,6.68a.93.93,0,0,0-.43-.84A2.91,2.91,0,0,0,199,5.57h-16.4v6.28h9.92a3.58,3.58,0,0,0,1.57-.28c.37-.18.56-.67.56-1.44h.91V18h-.91c0-.78-.18-1.27-.56-1.49a3.11,3.11,0,0,0-1.57-.33h-9.92v7h16.91a2,2,0,0,0,1.24-.35,1.13,1.13,0,0,0,.48-1h.91V28.8h-.91c0-.51-.16-.79-.48-.86a6.12,6.12,0,0,0-1.24-.1H175.87v-.91a1,1,0,0,0,.63-.23.83.83,0,0,0,.28-.68V3a.83.83,0,0,0-.28-.68,1,1,0,0,0-.63-.23V1.21H199a2.53,2.53,0,0,0,1.49-.33,1.05,1.05,0,0,0,.43-.88h.91V6.68Z"/>
	<path class="kb-logo-text-cls-1" d="M206.34,26.93a1.48,1.48,0,0,0,1-.66,10.92,10.92,0,0,0,.73-1.27l9.36-19.69q.35-.66.63-1.21a2.23,2.23,0,0,0,.28-1,.75.75,0,0,0-.35-.71,3.07,3.07,0,0,0-.76-.3V1.21h8.55v.91a4.3,4.3,0,0,0-.71.28.74.74,0,0,0-.35.73,2,2,0,0,0,.18.81c.12.27.29.62.53,1.06L236,25.61a1.73,1.73,0,0,0,.68.81,10.33,10.33,0,0,0,1,.51v.91h-8.91v-.91a1.19,1.19,0,0,0,.51-.15.49.49,0,0,0,.31-.46,3.16,3.16,0,0,0-.41-1.32l-1.92-3.75H214.9l-1.82,3.59a4.22,4.22,0,0,0-.51,1.52c0,.37.32.56,1,.56v.91h-7.19Zm19.08-9.41L221.17,8.1l-4.76,9.41Z"/>
	<path class="kb-logo-text-cls-1" d="M243.64,26.93c.64,0,1-.3,1-.91V3c0-.61-.32-.91-1-.91V1.21h8.66v.91q-.41,0-.41.51t1,1.42l14.53,15.08V3q0-.91-1.32-.91V1.21h7.64v.91q-1,0-1,.91V26c0,.61.32.91,1,.91v.91h-8.2v-.91c.44,0,.66-.15.66-.46s-.27-.62-.81-1.16L250,9.21V26c0,.61.39.91,1.16.91v.91h-7.49Z"/>
</svg>