<svg xmlns="http://www.w3.org/2000/svg" viewBox="0 0 17.17 22.18"><defs><style>.cls-1{fill:#af976d;}</style></defs><title>pint</title><g id="Layer_2" data-name="Layer 2"><g id="PAGE_Home" data-name="PAGE Home"><g id="WcLFA7"><path class="cls-1" d="M7.15,14.54c-.29,1.11-.56,2.13-.81,3.16A11.9,11.9,0,0,1,4.08,22a1.06,1.06,0,0,1-.26.18,1.2,1.2,0,0,1-.16-.32A14,14,0,0,1,4,16.08c.47-1.77.87-3.56,1.27-5.34a1.76,1.76,0,0,0,0-.83A4.54,4.54,0,0,1,5.6,6,2.1,2.1,0,0,1,7.24,5,1.54,1.54,0,0,1,9.05,6.51a9.7,9.7,0,0,1-.31,2.27c-.19.85-.51,1.67-.71,2.51a2,2,0,0,0,2.53,2.53,3.43,3.43,0,0,0,2.22-1.7A8.9,8.9,0,0,0,14,6.4a4.42,4.42,0,0,0-3.89-4.08A6.23,6.23,0,0,0,3.61,4.69,5.63,5.63,0,0,0,2.55,9.2a4.54,4.54,0,0,0,.68,1.5,1.07,1.07,0,0,1,.2,1c-.08.23-.12.47-.18.71-.14.5-.34.6-.81.38A3.89,3.89,0,0,1,.35,10.29,7.72,7.72,0,0,1,4.56,1a9.75,9.75,0,0,1,8-.31A7.26,7.26,0,0,1,17.1,8.6a9.76,9.76,0,0,1-1.89,5A6,6,0,0,1,10.11,16a3.65,3.65,0,0,1-2.69-1.23Z"/></g></g></g></svg>