<svg xmlns="http://www.w3.org/2000/svg" viewBox="0 0 12.79 11.72"><defs><style>.cls-1{fill:#af976d;}</style></defs><title>x</title><g id="Layer_2" data-name="Layer 2"><g id="PAGE_Shop" data-name="PAGE Shop"><path class="cls-1" d="M4.32.48Q4,.48,4,.77a.65.65,0,0,0,.16.35l.4.51L6.42,3.89l2-2.48A1.51,1.51,0,0,0,8.87.69c0-.14-.12-.21-.35-.21V0H12.6V.48a.94.94,0,0,0-.69.27l-4,4.85,3.7,4.66q.21.24.51.61a.86.86,0,0,0,.69.37v.48H8.71v-.48A.19.19,0,0,0,8.9,11a2.06,2.06,0,0,0-.29-.53L6.29,7.64,4,10.42a1.37,1.37,0,0,0-.37.64c0,.13.08.19.24.19v.48H0v-.48a1.19,1.19,0,0,0,.39-.08.92.92,0,0,0,.41-.32l4-5L1.17,1.28A3.76,3.76,0,0,0,.56.65.76.76,0,0,0,.13.48V0H4.32Z"/></g></g></svg>