<svg xmlns="http://www.w3.org/2000/svg" viewBox="0 0 308.81 42.25"><defs><style>.cls-1{fill:#af976d;}</style></defs><title>and-we-will</title><g id="Layer_2" data-name="Layer 2"><g id="PAGE_FAQ" data-name="PAGE FAQ"><path class="cls-1" d="M11.37,11.9a2,2,0,0,0-.16.67c0,.51.31.75.92.75a3,3,0,0,0,.47-.08.63.63,0,0,1,.79.55c0,.37-.26.61-.79.71a3.26,3.26,0,0,1-.73.08,2.07,2.07,0,0,1-1.94-1,5.9,5.9,0,0,1-3.44.94c-1.63,0-2.44-.39-3-1.37A4.45,4.45,0,0,1,.71,14.5.61.61,0,0,1,0,13.91c0-.35.22-.57.69-.65a3.49,3.49,0,0,0,2.4-1.49A28.85,28.85,0,0,0,4.42,8.94,4.85,4.85,0,0,1,9.21,5.81a3.36,3.36,0,0,1,2.67,1.14l.2-.45c.22-.47.49-.69.83-.69a.65.65,0,0,1,.73.73,1.39,1.39,0,0,1-.14.59Zm-.25-3.3a.72.72,0,0,0,.06-.29,1,1,0,0,0-.57-.88A3.35,3.35,0,0,0,8.84,7a2.77,2.77,0,0,0-2,.9A5.38,5.38,0,0,0,5.68,9.72L5.13,11a2.1,2.1,0,0,0-.16.75c0,.9.77,1.47,1.91,1.47a4,4,0,0,0,1.69-.39,2.94,2.94,0,0,0,1.06-.75A6,6,0,0,1,10,11Z"/><path class="cls-1" d="M26.24,5.81a3,3,0,0,1,2.22.83,2.55,2.55,0,0,1,.77,1.85A2.77,2.77,0,0,1,29,9.57L28,11.9A2.88,2.88,0,0,0,27.64,13q0,.43.55.43a2.6,2.6,0,0,0,.51-.06l.41-.08c.43-.08.65.1.65.57a.66.66,0,0,1-.65.69,6.83,6.83,0,0,1-1,.12c-1,0-1.59-.22-1.87-.69A1.55,1.55,0,0,1,26,13.1a2.05,2.05,0,0,1,.16-.79l1.18-2.75a2.71,2.71,0,0,0,.22-1A1.52,1.52,0,0,0,25.89,7a3.81,3.81,0,0,0-3.61,2.63l-1.81,4c-.24.55-.57.82-1,.82s-.73-.2-.73-.63a.78.78,0,0,1,.08-.35l2.4-5.3a1.47,1.47,0,0,0,.14-.61c0-.47-.22-.69-.67-.69-.79,0-1.87,1.24-3.26,3.75a8.13,8.13,0,0,1-2.53,2.91,5.59,5.59,0,0,1-2.32.94.58.58,0,0,1-.71-.57c0-.39.24-.61.73-.69A3.78,3.78,0,0,0,14,12.67a7.76,7.76,0,0,0,2.1-2.06l1.43-2.18a9,9,0,0,1,1.79-2.16,2.67,2.67,0,0,1,1.59-.47A1.66,1.66,0,0,1,22.76,7,4.91,4.91,0,0,1,26.24,5.81Z"/><path class="cls-1" d="M40.2,11.94a1.62,1.62,0,0,0-.16.63.66.66,0,0,0,.61.73,4.31,4.31,0,0,0,1.2-.06.54.54,0,0,1,.63.57.65.65,0,0,1-.63.69,7.71,7.71,0,0,1-1.75.1,1.44,1.44,0,0,1-1.53-1.37,5.65,5.65,0,0,1-3.85,1.26,2.24,2.24,0,0,1-2.49-1.61,3,3,0,0,1-1.2,1,6.48,6.48,0,0,1-1.92.65.57.57,0,0,1-.61-.61.62.62,0,0,1,.59-.65,4.73,4.73,0,0,0,3.18-2.79l.55-1.2A5.54,5.54,0,0,1,38.2,5.81a3.09,3.09,0,0,1,1.51.45,2,2,0,0,1,.88.71l2.53-5.7A.93.93,0,0,1,44,.59c.47,0,.71.24.71.75a1.35,1.35,0,0,1-.12.53Zm-.49-3a1.22,1.22,0,0,0,.1-.47c0-.75-.9-1.43-1.89-1.43a4.28,4.28,0,0,0-3.61,2.53L33.64,11a2,2,0,0,0-.18.81c0,.92.59,1.38,1.77,1.38a4.13,4.13,0,0,0,2.08-.59,3.49,3.49,0,0,0,1.47-1.57Z"/><path class="cls-1" d="M64.18,11.67a1.91,1.91,0,0,0-.2.79c0,.55.33.81,1,.81a4.71,4.71,0,0,0,.49,0c.39-.06.57.12.57.57a.62.62,0,0,1-.55.69,5.52,5.52,0,0,1-.9.1,2.3,2.3,0,0,1-1-.24,1.5,1.5,0,0,1-.86-1,7.39,7.39,0,0,1-1.14.88A3.94,3.94,0,0,1,60,14.5,2.76,2.76,0,0,1,58.27,14a2.54,2.54,0,0,1-.75-1,5.33,5.33,0,0,1-1.26,1.06,4.1,4.1,0,0,1-2,.45,2.61,2.61,0,0,1-2.4-1.57,3.68,3.68,0,0,1-1.71,1.22,9.44,9.44,0,0,1-1.59.37c-.43.06-.63-.12-.63-.57a.65.65,0,0,1,.63-.69,4.48,4.48,0,0,0,1.53-.51,4.08,4.08,0,0,0,1.49-1.85l1.88-4.16c.29-.63.65-.94,1.08-.94s.61.2.61.63a1.08,1.08,0,0,1-.12.49s-.57,1.32-1.71,3.87a2.12,2.12,0,0,0-.2.9,1.51,1.51,0,0,0,1.49,1.55,2.65,2.65,0,0,0,2.38-1.77l.24-.57,1.88-4.36q.3-.73.86-.73c.51,0,.77.22.77.69a2.26,2.26,0,0,1,0,.35L58.88,11a1.85,1.85,0,0,0-.18.75,1.33,1.33,0,0,0,.55,1.1,1.53,1.53,0,0,0,1,.39,2.53,2.53,0,0,0,2.24-1.77c.31-.69,1-2.34,2.12-4.93a1,1,0,0,1,1-.73.59.59,0,0,1,.57.35,1.1,1.1,0,0,1-.06,1Z"/><path class="cls-1" d="M73.26,13.4a13.76,13.76,0,0,0,2.08-.16c.47-.06.77.2.77.55s-.26.63-.79.73a11.94,11.94,0,0,1-2,.18,8.77,8.77,0,0,1-2.4-.33,3.22,3.22,0,0,1-1.71-1,7.54,7.54,0,0,1-1.47.59,20.5,20.5,0,0,1-2.26.57c-.37.06-.59-.1-.65-.51s.16-.67.67-.75A13.84,13.84,0,0,0,67,12.87a15.19,15.19,0,0,0,1.55-.61,4.88,4.88,0,0,1-.29-1.67,3.87,3.87,0,0,1,.29-1.53l.35-.75a4.05,4.05,0,0,1,1.51-1.79A4.65,4.65,0,0,1,73,5.81a3.57,3.57,0,0,1,2,.57A1.93,1.93,0,0,1,76,8q0,1.16-2.08,2.69a37.29,37.29,0,0,1-3.22,2A4,4,0,0,0,73.26,13.4Zm-1-3.16c1.43-1,2.14-1.69,2.16-2.24a.83.83,0,0,0-.55-.73,2,2,0,0,0-.94-.2,3,3,0,0,0-2.61,1.75L70,9.37a2.73,2.73,0,0,0-.16,1,3,3,0,0,0,.18,1.14C70.9,11,71.61,10.63,72.22,10.25Z"/><path class="cls-1" d="M97.65,11.67a1.91,1.91,0,0,0-.2.79c0,.55.33.81,1,.81a4.71,4.71,0,0,0,.49,0c.39-.06.57.12.57.57a.62.62,0,0,1-.55.69,5.52,5.52,0,0,1-.9.1,2.3,2.3,0,0,1-1-.24,1.5,1.5,0,0,1-.86-1,7.39,7.39,0,0,1-1.14.88,3.94,3.94,0,0,1-1.65.29A2.76,2.76,0,0,1,91.74,14,2.54,2.54,0,0,1,91,13a5.33,5.33,0,0,1-1.26,1.06,4.1,4.1,0,0,1-2,.45,2.61,2.61,0,0,1-2.4-1.57,3.68,3.68,0,0,1-1.71,1.22,9.44,9.44,0,0,1-1.59.37c-.43.06-.63-.12-.63-.57a.65.65,0,0,1,.63-.69,4.48,4.48,0,0,0,1.53-.51A4.08,4.08,0,0,0,85,10.9l1.88-4.16c.29-.63.65-.94,1.08-.94s.61.2.61.63a1.08,1.08,0,0,1-.12.49s-.57,1.32-1.71,3.87a2.12,2.12,0,0,0-.2.9A1.51,1.51,0,0,0,88,13.24a2.65,2.65,0,0,0,2.38-1.77l.24-.57,1.88-4.36q.3-.73.86-.73c.51,0,.77.22.77.69a2.26,2.26,0,0,1,0,.35L92.35,11a1.85,1.85,0,0,0-.18.75,1.33,1.33,0,0,0,.55,1.1,1.53,1.53,0,0,0,1,.39A2.53,2.53,0,0,0,96,11.47c.31-.69,1-2.34,2.12-4.93a1,1,0,0,1,1-.73.59.59,0,0,1,.57.35,1.1,1.1,0,0,1-.06,1Z"/><path class="cls-1" d="M104.78,10.82a2.31,2.31,0,0,0-.24,1,1.36,1.36,0,0,0,.63,1.2,1.67,1.67,0,0,0,1.22.29l.24,0a.6.6,0,0,1,.77.55c0,.39-.26.63-.77.71a4.06,4.06,0,0,1-.69.06,2.75,2.75,0,0,1-2.75-1.69,8.27,8.27,0,0,1-4.26,1.65.58.58,0,0,1-.67-.59c0-.39.22-.61.67-.69a11,11,0,0,0,2.14-.55,4.05,4.05,0,0,0,2-2L105,6.44a.9.9,0,0,1,.86-.61c.51,0,.77.24.77.73a1,1,0,0,1-.1.39Zm3.28-7.33a1.08,1.08,0,0,1-1,1.1.92.92,0,0,1-.88-1,1.08,1.08,0,0,1,1-1.1A.93.93,0,0,1,108.06,3.48Z"/><path class="cls-1" d="M109.08,13.81a9.82,9.82,0,0,1-2.44.71q-.67.12-.67-.55c0-.39.22-.63.67-.71a8.35,8.35,0,0,0,1.36-.39,4.32,4.32,0,0,0,1.49-1,4.89,4.89,0,0,0,1-1.18,27.6,27.6,0,0,1,1.34-4c.31-.79.77-1.87,1.41-3.28a11.27,11.27,0,0,1,1.2-2A3,3,0,0,1,116.7.08a1.79,1.79,0,0,1,1.55.65A1.89,1.89,0,0,1,118.55,2c-.14,1.61-1.75,4.07-4.87,7.42L112,11.26a1.64,1.64,0,0,0,0,.33c0,1,.59,1.57,1.77,1.75a2.55,2.55,0,0,0,.65,0c.27,0,.94-.16,1.2-.16s.51.22.51.65-.22.55-.69.63a5.86,5.86,0,0,1-.69.1c-.43,0-.73.06-.9.06a5,5,0,0,1-1.73-.31,2.44,2.44,0,0,1-1.51-1.65A5.06,5.06,0,0,1,109.08,13.81Zm5.87-10.57c-.24.47-.84,1.71-1.75,3.77a14.32,14.32,0,0,0-.79,2l1.51-1.71A14.06,14.06,0,0,0,116,4.6,6.28,6.28,0,0,0,117.11,2a1.89,1.89,0,0,0,0-.47c-.06-.14-.22-.2-.47-.2Q116,1.34,114.95,3.24Z"/><path class="cls-1" d="M117.82,13.81a9.82,9.82,0,0,1-2.44.71q-.67.12-.67-.55c0-.39.22-.63.67-.71a8.35,8.35,0,0,0,1.36-.39,4.32,4.32,0,0,0,1.49-1,4.89,4.89,0,0,0,1-1.18,27.6,27.6,0,0,1,1.34-4c.31-.79.77-1.87,1.41-3.28a11.27,11.27,0,0,1,1.2-2A3,3,0,0,1,125.44.08,1.79,1.79,0,0,1,127,.73,1.89,1.89,0,0,1,127.29,2c-.14,1.61-1.75,4.07-4.87,7.42l-1.71,1.83a1.64,1.64,0,0,0,0,.33c0,1,.59,1.57,1.77,1.75a2.55,2.55,0,0,0,.65,0c.27,0,.94-.16,1.2-.16s.51.22.51.65-.22.55-.69.63a5.86,5.86,0,0,1-.69.1c-.43,0-.73.06-.9.06a5,5,0,0,1-1.73-.31,2.44,2.44,0,0,1-1.51-1.65A5.06,5.06,0,0,1,117.82,13.81Zm5.87-10.57c-.24.47-.84,1.71-1.75,3.77a14.32,14.32,0,0,0-.79,2l1.51-1.71a14.06,14.06,0,0,0,2.06-2.71A6.28,6.28,0,0,0,125.85,2a1.89,1.89,0,0,0,0-.47c-.06-.14-.22-.2-.47-.2Q124.7,1.34,123.69,3.24Z"/><path class="cls-1" d="M138,8a15.83,15.83,0,0,1-2,3.28,8.16,8.16,0,0,1-2.71,2.44,8.85,8.85,0,0,1-2.44.77c-.51.08-.75-.1-.75-.53s.25-.65.75-.75A7,7,0,0,0,135,10.37a13.47,13.47,0,0,0,2-4,1,1,0,0,1,1.06-.82A1.25,1.25,0,0,1,139,6l.57.77a1.74,1.74,0,0,0,1,.75,3.84,3.84,0,0,0,1.85,0c.22-.06.35,0,.35.24a.32.32,0,0,1-.14.26A8.18,8.18,0,0,0,140.88,10a4.23,4.23,0,0,0-.75,1.67,3.18,3.18,0,0,0-.06.57c0,.81.39,1.2,1.16,1.14a6.49,6.49,0,0,0,.86-.1.62.62,0,0,1,.77.59c0,.35-.26.57-.77.67s-.77.12-1.12.14c-1.61.1-2.4-.67-2.4-2.3a5.93,5.93,0,0,1,1.3-3.65,1.78,1.78,0,0,1-.75-.24c-.59-.35-.73-.84-.87-.84S138.05,7.76,138,8Z"/><path class="cls-1" d="M149.89,13.4a13.77,13.77,0,0,0,2.08-.16c.47-.06.77.2.77.55s-.26.63-.79.73a11.92,11.92,0,0,1-2,.18,8.79,8.79,0,0,1-2.4-.33,3.23,3.23,0,0,1-1.71-1,7.56,7.56,0,0,1-1.47.59,20.44,20.44,0,0,1-2.26.57c-.37.06-.59-.1-.65-.51s.16-.67.67-.75a13.94,13.94,0,0,0,1.53-.39,15.22,15.22,0,0,0,1.55-.61,4.86,4.86,0,0,1-.29-1.67,3.85,3.85,0,0,1,.29-1.53l.35-.75a4.05,4.05,0,0,1,1.51-1.79,4.64,4.64,0,0,1,2.55-.71,3.57,3.57,0,0,1,2,.57,1.92,1.92,0,0,1,1,1.61q0,1.16-2.08,2.69a36.93,36.93,0,0,1-3.22,2A4,4,0,0,0,149.89,13.4Zm-1-3.16C150.28,9.29,151,8.56,151,8a.82.82,0,0,0-.55-.73,2,2,0,0,0-.94-.2,3,3,0,0,0-2.61,1.75l-.24.55a2.71,2.71,0,0,0-.16,1,3,3,0,0,0,.18,1.14C147.53,11,148.24,10.63,148.85,10.25Z"/><path class="cls-1" d="M165.09,13.69c0,.43-.29.71-.83.82a7.91,7.91,0,0,1-1.34.16,1.69,1.69,0,0,1-1.59-1,4.3,4.3,0,0,1-2.89.79c-1.57,0-2.83-.57-3.24-1.41a5.7,5.7,0,0,1-3.24,1.43.6.6,0,0,1-.65-.61c0-.37.22-.59.65-.67a4.56,4.56,0,0,0,1.85-.71,13.15,13.15,0,0,0,1.77-1.59,20.3,20.3,0,0,0,3-4.05l.47-1.06a.79.79,0,0,1,.73-.53.66.66,0,0,1,.55.26,1.86,1.86,0,0,0,.45.33,10.41,10.41,0,0,1,2,1.61A3.73,3.73,0,0,1,163.7,10a4.09,4.09,0,0,1-.79,2.32,1.27,1.27,0,0,0-.29.63c0,.26.26.41.82.41a4.92,4.92,0,0,0,.86-.08C164.82,13.16,165.09,13.3,165.09,13.69Zm-4.71-6.23a.56.56,0,0,0-.29-.08c-.18,0-.39.18-.57.53a19.86,19.86,0,0,1-3.28,4.22,1.3,1.3,0,0,1,.73.26l.49.41a2.5,2.5,0,0,0,1.26.45,3.15,3.15,0,0,0,2.32-1,3.31,3.31,0,0,0,1-2.36,2.55,2.55,0,0,0-.08-.67A3,3,0,0,0,160.38,7.46Z"/><path class="cls-1" d="M166.35,20.78a1,1,0,0,1-.92.67.64.64,0,0,1-.71-.73,1.46,1.46,0,0,1,.14-.61l3.5-7.86s0-.06-.08,0a6.11,6.11,0,0,1-4,2.3.57.57,0,0,1-.67-.59q0-.55.67-.67a5.5,5.5,0,0,0,3-1.49,21.32,21.32,0,0,0,1.85-2.26,14.77,14.77,0,0,0,1.63-2.61l.2-.45a1,1,0,0,1,1-.63.59.59,0,0,1,.65.55A5.51,5.51,0,0,1,175,5.81a2.71,2.71,0,0,1,2.16,1,3.11,3.11,0,0,1,.77,2.1,3,3,0,0,1-.22,1.12l-.67,1.55a3.15,3.15,0,0,0-.29.88c0,.57.53.92,1.18.81.47-.08.77.18.77.53,0,.51-.43.77-1.3.77a1.58,1.58,0,0,1-1.73-1,4.22,4.22,0,0,1-3.12,1.06,4.58,4.58,0,0,1-.75-.06,2.12,2.12,0,0,1-2.18-1.16Zm9.8-10.8a2.83,2.83,0,0,0,.24-1.1A1.78,1.78,0,0,0,174.56,7a3.34,3.34,0,0,0-1.61.43,3.14,3.14,0,0,0-1.3,1.32l-.94,2a2.14,2.14,0,0,0-.2.92,1.53,1.53,0,0,0,1.71,1.53,3.36,3.36,0,0,0,3.38-2.06Z"/><path class="cls-1" d="M190.07,11.67c-.87,1.89-2.67,2.83-5.4,2.83a4.56,4.56,0,0,1-1.94-.35,2.89,2.89,0,0,1-1.38-1.36,3.75,3.75,0,0,1-1.83,1.38,13.12,13.12,0,0,1-1.57.33.55.55,0,0,1-.69-.55c0-.39.24-.63.71-.71a3.88,3.88,0,0,0,3-2,13.94,13.94,0,0,1,.51-1.92l.29-.61c.92-2,2.65-3,5.17-3a4,4,0,0,1,2.85,1,3.39,3.39,0,0,1,.79,1.14,3.06,3.06,0,0,1,.2,1.18,4.58,4.58,0,0,1-.41,1.89Zm-1.2-1.26a2.85,2.85,0,0,0,.22-1.08,2.21,2.21,0,0,0-.61-1.59,2.38,2.38,0,0,0-1.75-.67,3.82,3.82,0,0,0-2.34.79,3.44,3.44,0,0,0-1.22,1.47l-.26.65a3.09,3.09,0,0,0-.24,1.2c0,1.36.79,2.06,2.38,2.06a4.09,4.09,0,0,0,2.08-.57,3.18,3.18,0,0,0,1.43-1.47Z"/><path class="cls-1" d="M204.23,5.81a3,3,0,0,1,2.22.83,2.55,2.55,0,0,1,.77,1.85A2.77,2.77,0,0,1,207,9.57l-1,2.32a2.88,2.88,0,0,0-.33,1.06q0,.43.55.43a2.61,2.61,0,0,0,.51-.06l.41-.08c.43-.08.65.1.65.57a.66.66,0,0,1-.65.69,6.84,6.84,0,0,1-1,.12c-1,0-1.59-.22-1.87-.69a1.55,1.55,0,0,1-.22-.84,2.05,2.05,0,0,1,.16-.79l1.18-2.75a2.71,2.71,0,0,0,.22-1A1.52,1.52,0,0,0,203.88,7a3.81,3.81,0,0,0-3.61,2.63l-1.81,4c-.25.55-.57.82-1,.82s-.73-.2-.73-.63a.77.77,0,0,1,.08-.35l2.4-5.3a1.46,1.46,0,0,0,.14-.61c0-.47-.22-.69-.67-.69-.79,0-1.87,1.24-3.26,3.75a8.13,8.13,0,0,1-2.53,2.91,5.59,5.59,0,0,1-2.32.94.58.58,0,0,1-.71-.57c0-.39.24-.61.73-.69a3.79,3.79,0,0,0,1.43-.59,7.78,7.78,0,0,0,2.1-2.06l1.43-2.18a9,9,0,0,1,1.79-2.16,2.67,2.67,0,0,1,1.59-.47A1.66,1.66,0,0,1,200.74,7,4.91,4.91,0,0,1,204.23,5.81Z"/><path class="cls-1" d="M218.18,11.94a1.6,1.6,0,0,0-.16.63.66.66,0,0,0,.61.73,4.31,4.31,0,0,0,1.2-.06.54.54,0,0,1,.63.57.65.65,0,0,1-.63.69,7.71,7.71,0,0,1-1.75.1,1.45,1.45,0,0,1-1.53-1.37,5.65,5.65,0,0,1-3.85,1.26,2.24,2.24,0,0,1-2.49-1.61,3,3,0,0,1-1.2,1,6.48,6.48,0,0,1-1.92.65.57.57,0,0,1-.61-.61.62.62,0,0,1,.59-.65,4.72,4.72,0,0,0,3.18-2.79l.55-1.2a5.55,5.55,0,0,1,5.38-3.46,3.09,3.09,0,0,1,1.51.45,1.94,1.94,0,0,1,.88.71l2.53-5.7A.93.93,0,0,1,222,.59c.47,0,.71.24.71.75a1.32,1.32,0,0,1-.12.53Zm-.49-3a1.22,1.22,0,0,0,.1-.47c0-.75-.9-1.43-1.89-1.43a4.28,4.28,0,0,0-3.61,2.53L211.62,11a2,2,0,0,0-.18.81c0,.92.59,1.38,1.77,1.38a4.13,4.13,0,0,0,2.08-.59,3.49,3.49,0,0,0,1.47-1.57Z"/><path class="cls-1" d="M239.66,13.69c0,.43-.29.71-.83.82a7.91,7.91,0,0,1-1.34.16,1.69,1.69,0,0,1-1.59-1,4.3,4.3,0,0,1-2.89.79c-1.57,0-2.83-.57-3.24-1.41a5.7,5.7,0,0,1-3.24,1.43.6.6,0,0,1-.65-.61c0-.37.22-.59.65-.67a4.56,4.56,0,0,0,1.85-.71,13.15,13.15,0,0,0,1.77-1.59,20.3,20.3,0,0,0,3-4.05l.47-1.06a.79.79,0,0,1,.73-.53.66.66,0,0,1,.55.26,1.86,1.86,0,0,0,.45.33,10.41,10.41,0,0,1,2,1.61,3.73,3.73,0,0,1,.88,2.46,4.09,4.09,0,0,1-.79,2.32,1.27,1.27,0,0,0-.29.63c0,.26.26.41.82.41a4.92,4.92,0,0,0,.86-.08C239.39,13.16,239.66,13.3,239.66,13.69ZM235,7.46a.56.56,0,0,0-.29-.08c-.18,0-.39.18-.57.53a19.86,19.86,0,0,1-3.28,4.22,1.3,1.3,0,0,1,.73.26l.49.41a2.5,2.5,0,0,0,1.26.45,3.15,3.15,0,0,0,2.32-1,3.3,3.3,0,0,0,1-2.36,2.55,2.55,0,0,0-.08-.67A3,3,0,0,0,235,7.46Z"/><path class="cls-1" d="M250.21,14.56a2.17,2.17,0,0,1-1.79-.83,1.85,1.85,0,0,1-.35-1.14,2.43,2.43,0,0,1,.2-1l.9-2a2,2,0,0,0,.2-.88,1.77,1.77,0,0,0-2-1.65,3.42,3.42,0,0,0-1.63.43,2.79,2.79,0,0,0-1.28,1.32l-.81,1.79A8.1,8.1,0,0,1,242,13.16a6.47,6.47,0,0,1-3.2,1.37c-.43.08-.65-.1-.65-.55a.67.67,0,0,1,.65-.71,3.56,3.56,0,0,0,2.2-1.41,12.25,12.25,0,0,0,1.59-2.79L246.38.61a.9.9,0,0,1,.86-.61.74.74,0,0,1,.75.73.94.94,0,0,1-.08.39l-2.36,5.24a4.78,4.78,0,0,1,2.32-.55,3,3,0,0,1,2.26.92,2.66,2.66,0,0,1,.81,2,2.28,2.28,0,0,1-.18.9l-1,2.18a1.82,1.82,0,0,0-.2.77c0,.49.33.73,1,.73a2.19,2.19,0,0,0,.37,0,.55.55,0,0,1,.71.53c0,.39-.25.63-.71.73A4.89,4.89,0,0,1,250.21,14.56Z"/><path class="cls-1" d="M263,11.67c-.87,1.89-2.67,2.83-5.4,2.83a4.56,4.56,0,0,1-1.94-.35,2.89,2.89,0,0,1-1.38-1.36,3.75,3.75,0,0,1-1.83,1.38,13.12,13.12,0,0,1-1.57.33.55.55,0,0,1-.69-.55c0-.39.24-.63.71-.71a3.88,3.88,0,0,0,3-2,13.94,13.94,0,0,1,.51-1.92l.29-.61c.92-2,2.65-3,5.17-3a4,4,0,0,1,2.85,1,3.39,3.39,0,0,1,.79,1.14,3.06,3.06,0,0,1,.2,1.18,4.58,4.58,0,0,1-.41,1.89Zm-1.2-1.26A2.85,2.85,0,0,0,262,9.33a2.21,2.21,0,0,0-.61-1.59,2.38,2.38,0,0,0-1.75-.67,3.82,3.82,0,0,0-2.34.79,3.44,3.44,0,0,0-1.22,1.47l-.26.65a3.09,3.09,0,0,0-.24,1.2c0,1.36.79,2.06,2.38,2.06a4.1,4.1,0,0,0,2.08-.57,3.18,3.18,0,0,0,1.43-1.47Z"/><path class="cls-1" d="M270.69,8a15.83,15.83,0,0,1-2,3.28A8.16,8.16,0,0,1,266,13.75a8.87,8.87,0,0,1-2.44.77c-.51.08-.75-.1-.75-.53s.24-.65.75-.75a7,7,0,0,0,4.22-2.87,13.49,13.49,0,0,0,2-4,1,1,0,0,1,1.06-.82,1.25,1.25,0,0,1,.88.41l.57.77a1.73,1.73,0,0,0,1,.75,3.84,3.84,0,0,0,1.85,0c.22-.06.35,0,.35.24a.32.32,0,0,1-.14.26A8.2,8.2,0,0,0,273.62,10a4.24,4.24,0,0,0-.75,1.67,3.18,3.18,0,0,0-.06.57c0,.81.39,1.2,1.16,1.14a6.49,6.49,0,0,0,.86-.1.62.62,0,0,1,.77.59c0,.35-.26.57-.77.67s-.77.12-1.12.14c-1.61.1-2.4-.67-2.4-2.3a5.93,5.93,0,0,1,1.3-3.65,1.77,1.77,0,0,1-.75-.24c-.59-.35-.73-.84-.88-.84S270.79,7.76,270.69,8Z"/><path class="cls-1" d="M280,5.81a.85.85,0,0,0,.83-.57L282.3,2a.92.92,0,0,1,.88-.63.61.61,0,0,1,.69.69,1.24,1.24,0,0,1-.14.57l-1.41,3.22h2.75c.47,0,.69.2.69.63s-.22.63-.69.63h-2.61a1,1,0,0,0-.94.55l-.37.79-1,2.38a2.41,2.41,0,0,0-.16.88,1.6,1.6,0,0,0,.22.92,2.66,2.66,0,0,0,2.26.79,3.06,3.06,0,0,0,.79-.08l.26-.06c.47-.08.71.1.71.57s-.24.63-.71.69a9.71,9.71,0,0,1-1.45.12c-1.85,0-3-.59-3.42-1.79a4.43,4.43,0,0,1-1.41,1,7.46,7.46,0,0,1-2.4.67c-.51.06-.75-.14-.77-.57s.25-.59.77-.69l.69-.14a4.12,4.12,0,0,0,1.89-1,4.81,4.81,0,0,0,1-1.38l1.61-3.63h-1.22c-.51,0-.75-.2-.75-.63s.25-.63.75-.63Z"/><path class="cls-1" d="M285.95,13.81a9.83,9.83,0,0,1-2.44.71q-.67.12-.67-.55c0-.39.22-.63.67-.71a8.41,8.41,0,0,0,1.37-.39,4.31,4.31,0,0,0,1.49-1,4.84,4.84,0,0,0,1-1.18,27.75,27.75,0,0,1,1.34-4c.31-.79.77-1.87,1.41-3.28a11.32,11.32,0,0,1,1.2-2A3,3,0,0,1,293.57.08a1.79,1.79,0,0,1,1.55.65A1.9,1.9,0,0,1,295.42,2c-.14,1.61-1.75,4.07-4.87,7.42l-1.71,1.83a1.57,1.57,0,0,0,0,.33c0,1,.59,1.57,1.77,1.75a2.55,2.55,0,0,0,.65,0c.26,0,.94-.16,1.2-.16s.51.22.51.65-.22.55-.69.63a5.86,5.86,0,0,1-.69.1c-.43,0-.73.06-.9.06a5,5,0,0,1-1.73-.31,2.44,2.44,0,0,1-1.51-1.65A5.06,5.06,0,0,1,285.95,13.81Zm5.87-10.57C291.57,3.71,291,5,290.06,7a14.2,14.2,0,0,0-.79,2l1.51-1.71a14.1,14.1,0,0,0,2.06-2.71A6.3,6.3,0,0,0,294,2a1.87,1.87,0,0,0,0-.47c-.06-.14-.22-.2-.47-.2Q292.82,1.34,291.82,3.24Z"/><path class="cls-1" d="M296.73,11.9a1.1,1.1,0,0,0,.43,1,3.51,3.51,0,0,0,4.18-.67l1.14-2.67,1.34-3a1,1,0,0,1,.92-.71c.53,0,.79.24.79.75a1.24,1.24,0,0,1-.14.57l-2.85,6.25c.12,0,.35,0,.65,0l1-.1c.49-.08.81.2.81.55s-.26.61-.81.71l-1.47.14-.77.08-1.38,3.1a6.16,6.16,0,0,1-2.63,3.06,4.47,4.47,0,0,1-2.18.57,3.52,3.52,0,0,1-1.89-.47,1.67,1.67,0,0,1-.81-1.51,3.06,3.06,0,0,1,1.08-2,13,13,0,0,1,2.28-1.73l2-1.14s0,0,0,0,0,0-.06,0c-1.65,0-2.67-.43-3-1.3a4.88,4.88,0,0,1-3.08,1.32.64.64,0,0,1-.67-.65c0-.39.22-.59.67-.63a3.26,3.26,0,0,0,2.22-1,3.9,3.9,0,0,0,.79-1.28l.43-1.22a20.74,20.74,0,0,1,1.45-3.26,1,1,0,0,1,.88-.63.62.62,0,0,1,.69.71,1,1,0,0,1-.08.41,18.08,18.08,0,0,0-1.69,3.79A4.33,4.33,0,0,0,296.73,11.9Zm3.3,3.28-1.22.61c-.37.2-.82.49-1.34.83-1.81,1.18-2.71,2.14-2.71,2.85,0,.47.37.71,1.08.71a2.7,2.7,0,0,0,1.39-.45,4.28,4.28,0,0,0,1.63-1.94Z"/><path class="cls-1" d="M308.81,13.36a1.23,1.23,0,0,1-1.22,1.2,1.05,1.05,0,0,1-1.06-1.06,1.24,1.24,0,0,1,1.22-1.2A1.05,1.05,0,0,1,308.81,13.36Z"/><path class="cls-1" d="M98.3,41.83a.35.35,0,0,0,.2-.07.26.26,0,0,0,.1-.23V34.74H96a.62.62,0,0,0-.31.08.28.28,0,0,0-.14.27h-.37V32.74h.37a.45.45,0,0,0,.14.39.52.52,0,0,0,.31.1h7.25a.51.51,0,0,0,.31-.1.45.45,0,0,0,.14-.39H104v2.34h-.37a.28.28,0,0,0-.14-.27.61.61,0,0,0-.31-.08h-2.65v6.79q0,.3.37.3v.37H98.3Z"/><path class="cls-1" d="M110.26,41.52a.28.28,0,0,0,.09.23.34.34,0,0,0,.21.07v.37H108v-.37a.34.34,0,0,0,.21-.07.28.28,0,0,0,.09-.23V33.9a.28.28,0,0,0-.09-.23.34.34,0,0,0-.21-.07v-.37h2.57v.37a.34.34,0,0,0-.21.07.28.28,0,0,0-.09.23v2.87h5.46V33.9a.28.28,0,0,0-.09-.23.34.34,0,0,0-.21-.07v-.37H118v.37a.34.34,0,0,0-.21.07.28.28,0,0,0-.09.23v7.62a.28.28,0,0,0,.09.23.34.34,0,0,0,.21.07v.37h-2.57v-.37a.34.34,0,0,0,.21-.07.28.28,0,0,0,.09-.23V38.44h-5.46Z"/><path class="cls-1" d="M121.63,41.83a.61.61,0,0,0,.4-.23,2.13,2.13,0,0,0,.23-.36l3-6.62.19-.46a.87.87,0,0,0,.07-.34c0-.08,0-.13-.05-.15l-.11-.07v-.37h3.08v.37l-.13.06s-.07.07-.07.16a.67.67,0,0,0,.09.3c.06.12.13.25.19.4l3.3,6.93a.74.74,0,0,0,.22.26.92.92,0,0,0,.26.12v.37h-2.89v-.31a.45.45,0,0,0,.21-.06.23.23,0,0,0,.11-.22.6.6,0,0,0,0-.22l-.1-.26L129.09,40h-4.36l-.57,1.1c-.05.11-.1.21-.13.29a.69.69,0,0,0-.05.23c0,.11,0,.18.1.2a.8.8,0,0,0,.29,0v.37h-2.73Zm6.81-3.38L126.79,35l-1.45,3.42Z"/><path class="cls-1" d="M135.83,41.83c.25,0,.37-.1.37-.3V33.9c0-.2-.12-.31-.37-.31v-.37h3v.37c-.1,0-.14,0-.14.1s.15.25.45.55L144,39.42V33.9q0-.31-.41-.31v-.37h2.49v.37c-.24,0-.37.1-.37.31v7.62c0,.2.12.3.37.3v.37h-2.65v-.37c.09,0,.14,0,.14-.1s-.06-.15-.19-.29L143,41l-5.05-5.38v5.93q0,.3.43.3v.37h-2.51Z"/><path class="cls-1" d="M153.09,41.52q0,.3.39.3v.37h-2.67v-.37q.33,0,.33-.3V33.9q0-.31-.33-.31v-.37h2.67v.37q-.39,0-.39.31v3.32l1.43-1.15L155.84,35l1-.83c.26-.22.39-.36.39-.42a.18.18,0,0,0-.11-.16.44.44,0,0,0-.21-.06v-.31h3.36v.37a2.84,2.84,0,0,0-.73.47l-3.4,2.75,3.22,4c.16.2.34.41.53.62a1.27,1.27,0,0,0,.57.4v.37h-3v-.37c.15,0,.22,0,.22-.12a.46.46,0,0,0-.09-.22,4.46,4.46,0,0,0-.36-.45L154.68,38l-1.59,1.26Z"/><path class="cls-1" d="M171.12,33.94a.83.83,0,0,0-.35-.26,1.05,1.05,0,0,0-.39-.08v-.37h3.36v.37a.44.44,0,0,0-.22.07.22.22,0,0,0-.12.19.35.35,0,0,0,.08.22l.18.25L175.73,37l1.81-2.53.27-.4a.45.45,0,0,0,.09-.25c0-.11,0-.18-.1-.2a.56.56,0,0,0-.2,0v-.37h3.12v.37a.84.84,0,0,0-.54.27,4.82,4.82,0,0,0-.52.56l-3.12,4v3.06q0,.3.39.3v.37h-2.71v-.37c.24,0,.37-.1.37-.3V38.38Z"/><path class="cls-1" d="M189,33.11a7.57,7.57,0,0,1,2.11.29,5.07,5.07,0,0,1,1.72.86A4.09,4.09,0,0,1,194,35.68a5,5,0,0,1,0,4.05,4.09,4.09,0,0,1-1.16,1.44,4.68,4.68,0,0,1-1.72.83,8.85,8.85,0,0,1-4.22,0,4.67,4.67,0,0,1-1.72-.83A4.07,4.07,0,0,1,184,39.74a5,5,0,0,1,0-4.05,4.08,4.08,0,0,1,1.16-1.44,5.07,5.07,0,0,1,1.72-.86A7.56,7.56,0,0,1,189,33.11Zm0,1.51a3.89,3.89,0,0,0-1.27.21,3.61,3.61,0,0,0-1.11.61,3,3,0,0,0-.78,1,3,3,0,0,0,0,2.61,3,3,0,0,0,.78,1,3.59,3.59,0,0,0,1.11.61,3.9,3.9,0,0,0,2.55,0,3.58,3.58,0,0,0,1.11-.61,3,3,0,0,0,.79-1,3,3,0,0,0,0-2.61,3,3,0,0,0-.79-1,3.6,3.6,0,0,0-1.11-.61A3.89,3.89,0,0,0,189,34.61Z"/><path class="cls-1" d="M201.15,33.6c-.3,0-.45.1-.45.31v4.68a1.94,1.94,0,0,0,.71,1.57,4.3,4.3,0,0,0,4.36,0,1.94,1.94,0,0,0,.71-1.57V33.9c0-.21-.17-.31-.51-.31v-.37h2.83v.37q-.45,0-.45.31v5.15a2.72,2.72,0,0,1-.29,1.21,2.93,2.93,0,0,1-.87,1,4.33,4.33,0,0,1-1.49.7,9,9,0,0,1-4.26,0,4.33,4.33,0,0,1-1.49-.7,2.93,2.93,0,0,1-.87-1,2.71,2.71,0,0,1-.29-1.21V33.9a.25.25,0,0,0-.12-.23,1,1,0,0,0-.47-.07v-.37h2.91Z"/></g></g></svg>