<svg xmlns="http://www.w3.org/2000/svg" viewBox="0 0 147.65 63.76">
	<defs>
	<style>.blog-cls-1{fill:none;stroke:#fff;stroke-width:2.03px;}</style>
</defs>
	<path class="blog-cls-1" d="M1,1.52H13.72C25,1.52,29.15,8.94,29.15,16.87v2.22c0,6.48-2.13,8.87-6,11.25,4.09,2,6,5.63,6,11.94v3.41c0,10.57-5,16.54-16.29,16.54H1Zm8.7,24.9h3.92c5.8,0,7.33-3,7.33-8.53,0-5.37-2-8.19-7.67-8.19H9.71Zm0,27.11h3.75c7,0,7.5-4.26,7.5-10.23s-1.11-9.21-7.42-9.21H9.71Z"/>
	<path class="blog-cls-1" d="M41.6,1.52h8.7v52H67.52v8.7H41.6Z"/>
	<path class="blog-cls-1" d="M76.89,15.85C76.89,6,84.4,1,91.47,1S106.05,6,106.05,15.85V47.91c0,9.89-7.5,14.84-14.58,14.84S76.89,57.8,76.89,47.91Zm8.7,32.06c0,4.18,2.73,6.14,5.88,6.14s5.88-2,5.88-6.14V15.85c0-4.18-2.73-6.14-5.88-6.14s-5.88,2-5.88,6.14Z"/>
	<path class="blog-cls-1" d="M117.48,15.85C117.48,6,125,1,132.06,1S146.64,6,146.64,15.85v3.07h-8.7V15.85c0-4.18-2.73-6.14-5.88-6.14s-5.88,2-5.88,6.14V47.91c0,4.18,2.73,6.14,5.88,6.14s5.88-2,5.88-6.14V36.48H131V28.81h15.6v19.1c0,9.89-7.5,14.84-14.58,14.84s-14.58-4.95-14.58-14.84Z"/>
</svg>