<svg xmlns="http://www.w3.org/2000/svg" viewBox="0 0 237.82 229.88"><defs><style>.cls-1{fill:#696767;}</style></defs><title>coffee-tamp</title><g id="Layer_2" data-name="Layer 2"><g id="PAGE_Wholesale" data-name="PAGE Wholesale"><path class="cls-1" d="M102,217.93a16.92,16.92,0,1,0,31.74-11.59l-36-88.44A5.11,5.11,0,0,0,91.28,115l-15.65,5.72a5.11,5.11,0,0,0-3.11,6.38Z"/><path class="cls-1" d="M45.1,12.85A38.69,38.69,0,1,0,94.71,35.92,38.74,38.74,0,0,0,45.1,12.85ZM33.55,68a3.21,3.21,0,1,1,1.91-4.11A3.21,3.21,0,0,1,33.55,68ZM29.47,56.83a3.21,3.21,0,1,1,1.91-4.11A3.21,3.21,0,0,1,29.47,56.83ZM48.82,75.11A3.21,3.21,0,1,1,50.73,71,3.21,3.21,0,0,1,48.82,75.11ZM44.74,63.92a3.21,3.21,0,1,1,1.91-4.11A3.21,3.21,0,0,1,44.74,63.92ZM40.65,52.74a3.21,3.21,0,1,1,1.91-4.11A3.21,3.21,0,0,1,40.65,52.74ZM36.57,41.56a3.21,3.21,0,1,1,1.91-4.11A3.21,3.21,0,0,1,36.57,41.56ZM64.09,82.21A3.21,3.21,0,1,1,66,78.1,3.21,3.21,0,0,1,64.09,82.21ZM60,71a3.21,3.21,0,1,1,1.91-4.11A3.21,3.21,0,0,1,60,71ZM55.92,59.84a3.21,3.21,0,1,1,1.91-4.11A3.21,3.21,0,0,1,55.92,59.84ZM51.84,48.66a3.21,3.21,0,1,1,1.91-4.11A3.21,3.21,0,0,1,51.84,48.66ZM47.75,37.47a3.21,3.21,0,1,1,1.91-4.11A3.21,3.21,0,0,1,47.75,37.47ZM43.67,26.29a3.21,3.21,0,1,1,1.91-4.11A3.21,3.21,0,0,1,43.67,26.29Zm31.6,51.83A3.21,3.21,0,1,1,77.18,74,3.21,3.21,0,0,1,75.27,78.12ZM71.19,66.94a3.21,3.21,0,1,1,1.91-4.11A3.21,3.21,0,0,1,71.19,66.94ZM67.1,55.76A3.21,3.21,0,1,1,69,51.65,3.21,3.21,0,0,1,67.1,55.76ZM63,44.57a3.21,3.21,0,1,1,1.91-4.11A3.21,3.21,0,0,1,63,44.57ZM58.94,33.39a3.21,3.21,0,1,1,1.91-4.11A3.21,3.21,0,0,1,58.94,33.39ZM54.85,22.21a3.21,3.21,0,1,1,1.91-4.11A3.21,3.21,0,0,1,54.85,22.21ZM82.37,62.86a3.21,3.21,0,1,1,1.91-4.11A3.21,3.21,0,0,1,82.37,62.86ZM78.29,51.67a3.21,3.21,0,1,1,1.91-4.11A3.21,3.21,0,0,1,78.29,51.67ZM74.2,40.49a3.21,3.21,0,1,1,1.91-4.11A3.21,3.21,0,0,1,74.2,40.49ZM70.12,29.31A3.21,3.21,0,1,1,72,25.19,3.21,3.21,0,0,1,70.12,29.31ZM89.47,47.59a3.21,3.21,0,1,1,1.91-4.11A3.21,3.21,0,0,1,89.47,47.59ZM83.19,30.38a3.21,3.21,0,1,1-1.91,4.11A3.21,3.21,0,0,1,83.19,30.38Z"/><path class="cls-1" d="M104.15,16.85A10.62,10.62,0,0,1,93,14.28,49.2,49.2,0,0,0,9.37,44.83,10.62,10.62,0,0,1,2.52,54h0A3.84,3.84,0,0,0,.23,58.88L7.67,79.26a3.84,3.84,0,0,0,4.92,2.29h0a10.32,10.32,0,0,1,10.86,2.3A49.29,49.29,0,0,0,63.12,98.16l4.41,13.58A5.11,5.11,0,0,0,74.14,115l14.56-5.32a5.11,5.11,0,0,0,3-6.72L86.29,89.7A49.29,49.29,0,0,0,107.4,53.19a10.32,10.32,0,0,1,6.82-8.75h0a3.84,3.84,0,0,0,2.29-4.92l-7.44-20.38a3.84,3.84,0,0,0-4.92-2.29ZM73.68,91.12a44.63,44.63,0,1,1,26.61-57.23A44.68,44.68,0,0,1,73.68,91.12Z"/><path class="cls-1" d="M235.87,110.5h0A1.92,1.92,0,0,1,234,109a23.73,23.73,0,0,0-5.7-10.45,36.64,36.64,0,0,1-9.56-25v-.73a28.69,28.69,0,0,1,6-17.68,20.66,20.66,0,0,0,4.32-14.39,20.78,20.78,0,0,0-41.49,1.64A20.63,20.63,0,0,0,191.79,55,29.25,29.25,0,0,1,198,72.58v1a36.64,36.64,0,0,1-9.56,25,23.73,23.73,0,0,0-5.7,10.45,1.92,1.92,0,0,1-1.88,1.45h0a2,2,0,0,0-1.95,1.95v4.42a2,2,0,0,0,1.95,1.95h55a2,2,0,0,0,1.95-1.95v-4.42A2,2,0,0,0,235.87,110.5Z"/><rect class="cls-1" x="178.92" y="122.57" width="58.9" height="8.32" rx="1.95" ry="1.95"/></g></g></svg>