<svg xmlns="http://www.w3.org/2000/svg" viewBox="0 0 304.24 45.25"><defs><style>.cls-1{fill:#af976d;}</style></defs><title>coffe-for-cul</title><g id="Layer_2" data-name="Layer 2"><g id="PAGE_Home" data-name="PAGE Home"><path class="cls-1" d="M2.63,3.87A7.87,7.87,0,0,1,5.5,1.14a7.54,7.54,0,0,1,3.71-1c1.53,0,2.38.63,2.38,1.55s-.79,1.93-2.4,2.77a10.87,10.87,0,0,1-4.89.88c-.26,0-.51,0-.73,0l-.29.57C3.18,6,3,6.46,2.73,7a6.35,6.35,0,0,0-.61,2.57c0,2.38,1.89,3.93,5,3.93a15.44,15.44,0,0,0,2.77-.27.58.58,0,0,1,.71.57c0,.37-.22.59-.69.69a15.53,15.53,0,0,1-3,.31,7.27,7.27,0,0,1-4.89-1.51A4.53,4.53,0,0,1,.41,9.72,6.36,6.36,0,0,1,1.06,7l.63-1.45L2,5A6.08,6.08,0,0,1,.45,4.36.78.78,0,0,1,0,3.69C0,3.26.2,3,.61,3a.82.82,0,0,1,.35.1A8.16,8.16,0,0,0,2.63,3.87Zm2.14.33A10.65,10.65,0,0,0,6.7,4,7.08,7.08,0,0,0,8.45,3.4c1.1-.59,1.65-1.1,1.65-1.57s-.35-.49-1-.49a5.25,5.25,0,0,0-2.65.9,6.7,6.7,0,0,0-2.1,1.93A2.72,2.72,0,0,0,4.77,4.2Z"/><path class="cls-1" d="M22,11.71c-.88,1.89-2.67,2.83-5.4,2.83a4.56,4.56,0,0,1-1.94-.35,2.9,2.9,0,0,1-1.39-1.36,3.75,3.75,0,0,1-1.83,1.38,13.18,13.18,0,0,1-1.57.33A.55.55,0,0,1,9.17,14c0-.39.24-.63.71-.71a3.88,3.88,0,0,0,3-2,13.84,13.84,0,0,1,.51-1.92l.29-.61c.92-2,2.65-3,5.17-3a4,4,0,0,1,2.85,1A3.4,3.4,0,0,1,22.49,8a3.06,3.06,0,0,1,.2,1.18A4.59,4.59,0,0,1,22.29,11Zm-1.2-1.26A2.85,2.85,0,0,0,21,9.37a2.22,2.22,0,0,0-.61-1.59,2.38,2.38,0,0,0-1.75-.67,3.83,3.83,0,0,0-2.34.79,3.44,3.44,0,0,0-1.22,1.47l-.26.65a3.09,3.09,0,0,0-.24,1.2c0,1.36.79,2.06,2.38,2.06A4.09,4.09,0,0,0,19,12.71a3.18,3.18,0,0,0,1.43-1.47Z"/><path class="cls-1" d="M32.88,5.81a41.06,41.06,0,0,1-3.3,3.69L28,11a2.17,2.17,0,0,1,.79.9,2.31,2.31,0,0,0,2.14,1.41,2.82,2.82,0,0,0,.55-.06.56.56,0,0,1,.69.57c0,.37-.22.59-.69.69a3.07,3.07,0,0,1-.63.06,2.67,2.67,0,0,1-2.4-1.06c.1,1.45.14,2.44.14,3a5.27,5.27,0,0,1-1.28,3.54,3.58,3.58,0,0,1-2.69,1.39,3.43,3.43,0,0,1-1.51-.31,1.13,1.13,0,0,1-.77-1,2.28,2.28,0,0,1,.22-1l2.2-4.87a5.35,5.35,0,0,1,.29-.59s0-.06,0-.08,0,0-.06,0a5.13,5.13,0,0,1-2.12.77,2.85,2.85,0,0,0-.37,0c-.35.06-.61-.2-.61-.63s.2-.55.59-.63a9.64,9.64,0,0,0,1.32-.37A4.73,4.73,0,0,0,26.2,11l4-8.74A3.1,3.1,0,0,1,33.11.12a1.72,1.72,0,0,1,1.41.65A1.87,1.87,0,0,1,34.9,2C34.86,2.87,34.19,4.12,32.88,5.81Zm-5.6,7.68c0-.14-.06-.2-.16-.2s-.31.27-.55.75L24.12,19.5a1.44,1.44,0,0,0-.08.33c0,.26.18.41.59.41A2.15,2.15,0,0,0,26.47,19a6.38,6.38,0,0,0,.81-3.44ZM31.7,2.57C30.87,4.4,30,6.36,29,8.45l.61-.61a20.81,20.81,0,0,0,2.36-3,7.14,7.14,0,0,0,1.47-2.83c0-.45-.18-.67-.57-.67S32,1.77,31.7,2.57Z"/><path class="cls-1" d="M41.89,5.81a41.06,41.06,0,0,1-3.3,3.69L37,11a2.17,2.17,0,0,1,.79.9A2.31,2.31,0,0,0,40,13.34a2.82,2.82,0,0,0,.55-.06.56.56,0,0,1,.69.57c0,.37-.22.59-.69.69a3.07,3.07,0,0,1-.63.06,2.67,2.67,0,0,1-2.4-1.06c.1,1.45.14,2.44.14,3a5.27,5.27,0,0,1-1.28,3.54,3.58,3.58,0,0,1-2.69,1.39,3.43,3.43,0,0,1-1.51-.31,1.13,1.13,0,0,1-.77-1,2.28,2.28,0,0,1,.22-1l2.2-4.87a5.35,5.35,0,0,1,.29-.59s0-.06,0-.08,0,0-.06,0a5.13,5.13,0,0,1-2.12.77,2.85,2.85,0,0,0-.37,0c-.35.06-.61-.2-.61-.63s.2-.55.59-.63a9.64,9.64,0,0,0,1.32-.37A4.73,4.73,0,0,0,35.21,11l4-8.74A3.1,3.1,0,0,1,42.11.12a1.72,1.72,0,0,1,1.41.65A1.87,1.87,0,0,1,43.9,2C43.86,2.87,43.19,4.12,41.89,5.81Zm-5.6,7.68c0-.14-.06-.2-.16-.2s-.31.27-.55.75L33.13,19.5a1.44,1.44,0,0,0-.08.33c0,.26.18.41.59.41A2.15,2.15,0,0,0,35.47,19a6.38,6.38,0,0,0,.81-3.44ZM40.71,2.57C39.87,4.4,39,6.36,38,8.45l.61-.61a20.81,20.81,0,0,0,2.36-3,7.14,7.14,0,0,0,1.47-2.83c0-.45-.18-.67-.57-.67S41.05,1.77,40.71,2.57Z"/><path class="cls-1" d="M48.31,13.44a13.76,13.76,0,0,0,2.08-.16c.47-.06.77.2.77.55s-.26.63-.79.73a11.93,11.93,0,0,1-2,.18,8.78,8.78,0,0,1-2.4-.33,3.22,3.22,0,0,1-1.71-1,7.55,7.55,0,0,1-1.47.59,20.47,20.47,0,0,1-2.26.57c-.37.06-.59-.1-.65-.51s.16-.67.67-.75a13.89,13.89,0,0,0,1.53-.39,15.21,15.21,0,0,0,1.55-.61,4.87,4.87,0,0,1-.29-1.67,3.86,3.86,0,0,1,.29-1.53L44,8.35a4.05,4.05,0,0,1,1.51-1.79A4.65,4.65,0,0,1,48,5.85a3.57,3.57,0,0,1,2,.57A1.92,1.92,0,0,1,51,8Q51,9.19,49,10.71a37.11,37.11,0,0,1-3.22,2A4,4,0,0,0,48.31,13.44Zm-1-3.16c1.43-1,2.14-1.69,2.16-2.24a.83.83,0,0,0-.55-.73,2,2,0,0,0-.94-.2,3,3,0,0,0-2.61,1.75l-.24.55a2.72,2.72,0,0,0-.16,1,3,3,0,0,0,.18,1.14C45.94,11.08,46.66,10.67,47.27,10.29Z"/><path class="cls-1" d="M58.17,13.44a13.76,13.76,0,0,0,2.08-.16c.47-.06.77.2.77.55s-.26.63-.79.73a11.93,11.93,0,0,1-2,.18,8.78,8.78,0,0,1-2.4-.33,3.22,3.22,0,0,1-1.71-1,7.56,7.56,0,0,1-1.47.59,20.5,20.5,0,0,1-2.26.57c-.37.06-.59-.1-.65-.51s.16-.67.67-.75a13.89,13.89,0,0,0,1.53-.39,15.21,15.21,0,0,0,1.55-.61,4.86,4.86,0,0,1-.29-1.67,3.85,3.85,0,0,1,.29-1.53l.35-.75a4.05,4.05,0,0,1,1.51-1.79,4.65,4.65,0,0,1,2.55-.71,3.57,3.57,0,0,1,2,.57A1.92,1.92,0,0,1,60.9,8q0,1.16-2.08,2.69a37.11,37.11,0,0,1-3.22,2A4,4,0,0,0,58.17,13.44Zm-1-3.16c1.43-1,2.14-1.69,2.16-2.24a.83.83,0,0,0-.55-.73,2,2,0,0,0-.94-.2,3,3,0,0,0-2.61,1.75l-.24.55a2.72,2.72,0,0,0-.16,1A3,3,0,0,0,55,11.53C55.8,11.08,56.52,10.67,57.13,10.29Z"/><path class="cls-1" d="M77.3,5.81A41.06,41.06,0,0,1,74,9.49L72.43,11a2.17,2.17,0,0,1,.79.9,2.31,2.31,0,0,0,2.14,1.41,2.82,2.82,0,0,0,.55-.06.56.56,0,0,1,.69.57c0,.37-.22.59-.69.69a3.07,3.07,0,0,1-.63.06,2.67,2.67,0,0,1-2.4-1.06C73,15,73,16,73,16.56a5.27,5.27,0,0,1-1.28,3.54A3.58,3.58,0,0,1,69,21.49a3.43,3.43,0,0,1-1.51-.31,1.13,1.13,0,0,1-.77-1,2.28,2.28,0,0,1,.22-1l2.2-4.87a5.43,5.43,0,0,1,.29-.59s0-.06,0-.08,0,0-.06,0a5.13,5.13,0,0,1-2.12.77,2.85,2.85,0,0,0-.37,0c-.35.06-.61-.2-.61-.63s.2-.55.59-.63a9.64,9.64,0,0,0,1.32-.37A4.73,4.73,0,0,0,70.62,11l4-8.74A3.1,3.1,0,0,1,77.52.12a1.72,1.72,0,0,1,1.41.65A1.87,1.87,0,0,1,79.31,2C79.27,2.87,78.6,4.12,77.3,5.81Zm-5.6,7.68c0-.14-.06-.2-.16-.2s-.31.27-.55.75L68.54,19.5a1.41,1.41,0,0,0-.08.33c0,.26.18.41.59.41A2.15,2.15,0,0,0,70.88,19a6.38,6.38,0,0,0,.81-3.44ZM76.12,2.57c-.84,1.83-1.73,3.79-2.67,5.89l.61-.61a20.81,20.81,0,0,0,2.36-3,7.14,7.14,0,0,0,1.47-2.83c0-.45-.18-.67-.57-.67S76.46,1.77,76.12,2.57Z"/><path class="cls-1" d="M88,11.71c-.88,1.89-2.67,2.83-5.4,2.83a4.56,4.56,0,0,1-1.94-.35,2.9,2.9,0,0,1-1.39-1.36,3.75,3.75,0,0,1-1.83,1.38,13.18,13.18,0,0,1-1.57.33A.55.55,0,0,1,75.2,14c0-.39.24-.63.71-.71a3.88,3.88,0,0,0,3-2,13.84,13.84,0,0,1,.51-1.92l.29-.61c.92-2,2.65-3,5.17-3a4,4,0,0,1,2.85,1A3.4,3.4,0,0,1,88.52,8a3.06,3.06,0,0,1,.2,1.18A4.59,4.59,0,0,1,88.32,11Zm-1.2-1.26A2.85,2.85,0,0,0,87,9.37a2.22,2.22,0,0,0-.61-1.59,2.38,2.38,0,0,0-1.75-.67,3.83,3.83,0,0,0-2.34.79,3.44,3.44,0,0,0-1.22,1.47l-.26.65a3.09,3.09,0,0,0-.24,1.2c0,1.36.79,2.06,2.38,2.06a4.09,4.09,0,0,0,2.08-.57,3.18,3.18,0,0,0,1.43-1.47Z"/><path class="cls-1" d="M95.67,8.07a15.8,15.8,0,0,1-2,3.28A8.17,8.17,0,0,1,91,13.79a8.86,8.86,0,0,1-2.44.77c-.51.08-.75-.1-.75-.53s.24-.65.75-.75a7,7,0,0,0,4.22-2.87,13.46,13.46,0,0,0,2-4,1,1,0,0,1,1.06-.82,1.25,1.25,0,0,1,.88.41l.57.77a1.73,1.73,0,0,0,1,.75,3.84,3.84,0,0,0,1.85,0c.22-.06.35,0,.35.24a.32.32,0,0,1-.14.26A8.18,8.18,0,0,0,98.61,10a4.25,4.25,0,0,0-.75,1.67,3.22,3.22,0,0,0-.06.57c0,.81.39,1.2,1.16,1.14a6.5,6.5,0,0,0,.86-.1.62.62,0,0,1,.77.59c0,.35-.26.57-.77.67s-.77.12-1.12.14c-1.61.1-2.4-.67-2.4-2.3a5.93,5.93,0,0,1,1.3-3.65,1.77,1.77,0,0,1-.75-.24c-.59-.35-.73-.84-.88-.84S95.78,7.8,95.67,8.07Z"/><path class="cls-1" d="M111.71,5.85a.85.85,0,0,0,.83-.57L114,2a.92.92,0,0,1,.88-.63.61.61,0,0,1,.69.69,1.24,1.24,0,0,1-.14.57L114,5.85h2.75c.47,0,.69.2.69.63s-.22.63-.69.63h-2.61a1,1,0,0,0-.94.55l-.37.79-1,2.38a2.4,2.4,0,0,0-.16.88,1.6,1.6,0,0,0,.22.92,2.66,2.66,0,0,0,2.26.79,3.06,3.06,0,0,0,.79-.08l.26-.06c.47-.08.71.1.71.57s-.24.63-.71.69a9.71,9.71,0,0,1-1.45.12c-1.85,0-3-.59-3.42-1.79a4.42,4.42,0,0,1-1.41,1,7.46,7.46,0,0,1-2.4.67c-.51.06-.75-.14-.77-.57s.24-.59.77-.69l.69-.14a4.12,4.12,0,0,0,1.89-1,4.81,4.81,0,0,0,1-1.38l1.61-3.63h-1.22c-.51,0-.75-.2-.75-.63s.24-.63.75-.63Z"/><path class="cls-1" d="M126.56,14.61a2.17,2.17,0,0,1-1.79-.83,1.85,1.85,0,0,1-.35-1.14,2.42,2.42,0,0,1,.2-1l.9-2a2,2,0,0,0,.2-.88,1.77,1.77,0,0,0-2-1.65,3.42,3.42,0,0,0-1.63.43,2.79,2.79,0,0,0-1.28,1.32L120,10.61a8.08,8.08,0,0,1-1.65,2.59,6.47,6.47,0,0,1-3.2,1.37c-.43.08-.65-.1-.65-.55a.67.67,0,0,1,.65-.71,3.56,3.56,0,0,0,2.2-1.41A12.25,12.25,0,0,0,119,9.11L122.73.65a.9.9,0,0,1,.86-.61.73.73,0,0,1,.75.73.94.94,0,0,1-.08.39L121.9,6.4a4.78,4.78,0,0,1,2.32-.55,3,3,0,0,1,2.26.92,2.67,2.67,0,0,1,.81,2,2.27,2.27,0,0,1-.18.9l-1,2.18a1.82,1.82,0,0,0-.2.77c0,.49.33.73,1,.73a2.2,2.2,0,0,0,.37,0,.55.55,0,0,1,.71.53c0,.39-.24.63-.71.73A4.9,4.9,0,0,1,126.56,14.61Z"/><path class="cls-1" d="M135.08,13.44a13.76,13.76,0,0,0,2.08-.16c.47-.06.77.2.77.55s-.26.63-.79.73a11.93,11.93,0,0,1-2,.18,8.78,8.78,0,0,1-2.4-.33,3.22,3.22,0,0,1-1.71-1,7.55,7.55,0,0,1-1.47.59,20.47,20.47,0,0,1-2.26.57c-.37.06-.59-.1-.65-.51s.16-.67.67-.75a13.89,13.89,0,0,0,1.53-.39,15.21,15.21,0,0,0,1.55-.61,4.87,4.87,0,0,1-.29-1.67,3.86,3.86,0,0,1,.29-1.53l.35-.75a4.05,4.05,0,0,1,1.51-1.79,4.65,4.65,0,0,1,2.55-.71,3.57,3.57,0,0,1,2,.57,1.92,1.92,0,0,1,1,1.61q0,1.16-2.08,2.69a37.11,37.11,0,0,1-3.22,2A4,4,0,0,0,135.08,13.44Zm-1-3.16c1.43-1,2.14-1.69,2.16-2.24a.83.83,0,0,0-.55-.73,2,2,0,0,0-.94-.2,3,3,0,0,0-2.61,1.75l-.24.55a2.72,2.72,0,0,0-.16,1,3,3,0,0,0,.18,1.14C132.72,11.08,133.43,10.67,134,10.29Z"/><path class="cls-1" d="M148.75,3.87a7.87,7.87,0,0,1,2.87-2.73,7.54,7.54,0,0,1,3.71-1c1.53,0,2.38.63,2.38,1.55s-.79,1.93-2.4,2.77a10.87,10.87,0,0,1-4.89.88c-.26,0-.51,0-.73,0l-.29.57c-.1.18-.29.59-.55,1.18a6.35,6.35,0,0,0-.61,2.57c0,2.38,1.89,3.93,5,3.93a15.43,15.43,0,0,0,2.77-.27.58.58,0,0,1,.71.57c0,.37-.22.59-.69.69a15.53,15.53,0,0,1-3,.31,7.27,7.27,0,0,1-4.89-1.51,4.53,4.53,0,0,1-1.65-3.63A6.36,6.36,0,0,1,147.18,7l.63-1.45L148.1,5a6.08,6.08,0,0,1-1.53-.63.78.78,0,0,1-.45-.67c0-.43.2-.65.61-.65a.82.82,0,0,1,.35.1A8.16,8.16,0,0,0,148.75,3.87Zm2.14.33A10.63,10.63,0,0,0,152.82,4a7.07,7.07,0,0,0,1.75-.57c1.1-.59,1.65-1.1,1.65-1.57s-.35-.49-1-.49a5.25,5.25,0,0,0-2.65.9,6.68,6.68,0,0,0-2.1,1.93A2.71,2.71,0,0,0,150.89,4.2Z"/><path class="cls-1" d="M167.41,12a1.33,1.33,0,0,0-.12.51c0,.53.37.79,1.12.79a2.75,2.75,0,0,0,.41,0c.39-.06.59.1.59.53a.68.68,0,0,1-.59.73,4.12,4.12,0,0,1-.71.06,2.54,2.54,0,0,1-1.47-.39,1.5,1.5,0,0,1-.55-.86,5.44,5.44,0,0,1-1.22.88,6.67,6.67,0,0,1-2.36.31A3.29,3.29,0,0,1,159.3,13a4.44,4.44,0,0,1-1.83,1.26,8.29,8.29,0,0,1-1.47.33c-.43.06-.65-.12-.65-.55s.22-.61.65-.69a4.51,4.51,0,0,0,1.63-.61A3.42,3.42,0,0,0,159,10.92l1.87-4.16c.29-.63.65-.94,1.08-.94s.61.2.61.63a1.08,1.08,0,0,1-.12.49s-.57,1.32-1.71,3.87a1.91,1.91,0,0,0-.16.71,1.53,1.53,0,0,0,.73,1.28,2.44,2.44,0,0,0,1.51.49,3.37,3.37,0,0,0,3-1.81c.31-.69,1-2.34,2.12-4.93a1,1,0,0,1,.94-.73.64.64,0,0,1,.59.35,1.24,1.24,0,0,1-.06,1Z"/><path class="cls-1" d="M171.26,13.85a9.83,9.83,0,0,1-2.44.71q-.67.12-.67-.55c0-.39.22-.63.67-.71a8.41,8.41,0,0,0,1.37-.39,4.31,4.31,0,0,0,1.49-1,4.84,4.84,0,0,0,1-1.18,27.75,27.75,0,0,1,1.34-4c.31-.79.77-1.87,1.41-3.28a11.32,11.32,0,0,1,1.2-2A3,3,0,0,1,178.88.12a1.79,1.79,0,0,1,1.55.65,1.9,1.9,0,0,1,.31,1.28c-.14,1.61-1.75,4.07-4.87,7.42l-1.71,1.83a1.57,1.57,0,0,0,0,.33c0,1,.59,1.57,1.77,1.75a2.55,2.55,0,0,0,.65,0c.26,0,.94-.16,1.2-.16s.51.22.51.65-.22.55-.69.63a5.83,5.83,0,0,1-.69.1c-.43,0-.73.06-.9.06a5,5,0,0,1-1.73-.31,2.44,2.44,0,0,1-1.51-1.65A5.06,5.06,0,0,1,171.26,13.85Zm5.87-10.57c-.25.47-.84,1.71-1.75,3.77a14.2,14.2,0,0,0-.79,2l1.51-1.71a14.1,14.1,0,0,0,2.06-2.71,6.3,6.3,0,0,0,1.14-2.59,1.87,1.87,0,0,0,0-.47c-.06-.14-.22-.2-.47-.2Q178.14,1.39,177.13,3.28Z"/><path class="cls-1" d="M183.41,10.86a2.31,2.31,0,0,0-.25,1,1.36,1.36,0,0,0,.63,1.2,1.67,1.67,0,0,0,1.22.29l.24,0a.6.6,0,0,1,.77.55c0,.39-.27.63-.77.71a4.05,4.05,0,0,1-.69.06,2.75,2.75,0,0,1-2.75-1.69,8.28,8.28,0,0,1-4.26,1.65.58.58,0,0,1-.67-.59c0-.39.22-.61.67-.69a11,11,0,0,0,2.14-.55,4,4,0,0,0,2-2l1.92-4.22a.9.9,0,0,1,.86-.61c.51,0,.77.24.77.73a1,1,0,0,1-.1.39Zm3.28-7.33a1.08,1.08,0,0,1-1,1.1.92.92,0,0,1-.88-1,1.08,1.08,0,0,1,1-1.1A.93.93,0,0,1,186.69,3.52Z"/><path class="cls-1" d="M198.91,5.85a3,3,0,0,1,2.22.83,2.55,2.55,0,0,1,.77,1.85,2.77,2.77,0,0,1-.22,1.08l-1,2.32a2.88,2.88,0,0,0-.33,1.06q0,.43.55.43a2.61,2.61,0,0,0,.51-.06l.41-.08c.43-.08.65.1.65.57a.66.66,0,0,1-.65.69,6.84,6.84,0,0,1-1,.12c-1,0-1.59-.22-1.87-.69a1.55,1.55,0,0,1-.22-.84,2.05,2.05,0,0,1,.16-.79L200,9.59a2.71,2.71,0,0,0,.22-1,1.52,1.52,0,0,0-1.71-1.51A3.81,3.81,0,0,0,195,9.7l-1.81,4c-.25.55-.57.82-1,.82s-.73-.2-.73-.63a.77.77,0,0,1,.08-.35l2.4-5.3a1.46,1.46,0,0,0,.14-.61c0-.47-.22-.69-.67-.69-.79,0-1.87,1.24-3.26,3.75a8.13,8.13,0,0,1-2.53,2.91,5.59,5.59,0,0,1-2.32.94.58.58,0,0,1-.71-.57c0-.39.24-.61.73-.69a3.79,3.79,0,0,0,1.43-.59,7.78,7.78,0,0,0,2.1-2.06l1.43-2.18A9,9,0,0,1,192,6.32a2.67,2.67,0,0,1,1.59-.47,1.66,1.66,0,0,1,1.81,1.22A4.91,4.91,0,0,1,198.91,5.85Z"/><path class="cls-1" d="M212.44,11.94a2,2,0,0,0-.16.67c0,.51.3.75.92.75a3,3,0,0,0,.47-.08.63.63,0,0,1,.79.55c0,.37-.27.61-.79.71a3.26,3.26,0,0,1-.73.08,2.07,2.07,0,0,1-1.94-1,5.9,5.9,0,0,1-3.44.94c-1.63,0-2.44-.39-3-1.37a4.45,4.45,0,0,1-2.77,1.37.61.61,0,0,1-.71-.59c0-.35.22-.57.69-.65a3.5,3.5,0,0,0,2.4-1.49A29.21,29.21,0,0,0,205.49,9a4.85,4.85,0,0,1,4.79-3.14A3.36,3.36,0,0,1,212.95,7l.2-.45c.22-.47.49-.69.83-.69a.65.65,0,0,1,.73.73,1.39,1.39,0,0,1-.14.59Zm-.24-3.3a.72.72,0,0,0,.06-.29,1,1,0,0,0-.57-.88,3.35,3.35,0,0,0-1.77-.41,2.77,2.77,0,0,0-2,.9,5.39,5.39,0,0,0-1.18,1.79l-.55,1.32a2.1,2.1,0,0,0-.16.75c0,.9.77,1.47,1.91,1.47a4,4,0,0,0,1.69-.39,3,3,0,0,0,1.06-.75,6,6,0,0,1,.39-1.08Z"/><path class="cls-1" d="M220.81,8.07a15.83,15.83,0,0,1-2,3.28,8.16,8.16,0,0,1-2.71,2.44,8.87,8.87,0,0,1-2.44.77c-.51.08-.75-.1-.75-.53s.24-.65.75-.75a7,7,0,0,0,4.22-2.87,13.49,13.49,0,0,0,2-4A1,1,0,0,1,221,5.62a1.25,1.25,0,0,1,.88.41l.57.77a1.73,1.73,0,0,0,1,.75,3.84,3.84,0,0,0,1.85,0c.22-.06.35,0,.35.24a.32.32,0,0,1-.14.26A8.2,8.2,0,0,0,223.75,10a4.24,4.24,0,0,0-.75,1.67,3.18,3.18,0,0,0-.06.57c0,.81.39,1.2,1.16,1.14a6.49,6.49,0,0,0,.86-.1.62.62,0,0,1,.77.59c0,.35-.26.57-.77.67s-.77.12-1.12.14c-1.61.1-2.4-.67-2.4-2.3a5.93,5.93,0,0,1,1.3-3.65A1.77,1.77,0,0,1,222,8.5c-.59-.35-.73-.84-.88-.84S220.91,7.8,220.81,8.07Z"/><path class="cls-1" d="M229.43,11.94a1.1,1.1,0,0,0,.43,1,3.51,3.51,0,0,0,4.18-.67l1.14-2.67,1.34-3a1,1,0,0,1,.92-.71c.53,0,.79.24.79.75a1.24,1.24,0,0,1-.14.57l-2.85,6.25c.12,0,.35,0,.65,0l1-.1c.49-.08.81.2.81.55s-.26.61-.81.71l-1.47.14-.77.08-1.38,3.1a6.16,6.16,0,0,1-2.63,3.06,4.47,4.47,0,0,1-2.18.57,3.52,3.52,0,0,1-1.89-.47,1.67,1.67,0,0,1-.81-1.51,3.06,3.06,0,0,1,1.08-2,13,13,0,0,1,2.28-1.73l2-1.14s0,0,0,0,0,0-.06,0c-1.65,0-2.67-.43-3-1.3a4.88,4.88,0,0,1-3.08,1.32.64.64,0,0,1-.67-.65c0-.39.22-.59.67-.63a3.26,3.26,0,0,0,2.22-1A3.9,3.9,0,0,0,228,11l.43-1.22a20.74,20.74,0,0,1,1.45-3.26,1,1,0,0,1,.88-.63.62.62,0,0,1,.69.71,1,1,0,0,1-.08.41,18.08,18.08,0,0,0-1.69,3.79A4.33,4.33,0,0,0,229.43,11.94Zm3.3,3.28-1.22.61c-.37.2-.82.49-1.34.83-1.81,1.18-2.71,2.14-2.71,2.85,0,.47.37.71,1.08.71a2.7,2.7,0,0,0,1.39-.45,4.28,4.28,0,0,0,1.63-1.94Z"/><path class="cls-1" d="M254.45,6.15c1.08,1.22,1.67,1.87,1.73,2a4.2,4.2,0,0,1,1,2.44,3.39,3.39,0,0,1-1.45,2.83,7.08,7.08,0,0,1-4.3,1.2,10,10,0,0,1-2.26-.2,6.18,6.18,0,0,1-2.53-1.32l-1.55,1.34a1,1,0,0,1-.63.24c-.31,0-.45-.18-.45-.55q0-.31.49-.73l1.32-1.16a.78.78,0,0,1-.33-.61.8.8,0,0,1,.73-.77,1,1,0,0,1,.73.41l5.52-4.89a6.84,6.84,0,0,0-.57-.59,3.92,3.92,0,0,1-1.26-2.85A2.49,2.49,0,0,1,251,1.65a2.51,2.51,0,0,1,.77-.88,4.37,4.37,0,0,1,1.61-.69A7.79,7.79,0,0,1,254.86,0a2.44,2.44,0,0,1,1.59.59,2.23,2.23,0,0,1,.82,1.83,3.2,3.2,0,0,1-1,2.16C256.18,4.64,255.59,5.15,254.45,6.15Zm-1.2,1.06c-1.2,1.1-3,2.73-5.44,4.87a5.37,5.37,0,0,0,3.63,1.22,4.93,4.93,0,0,0,3-.81,2.38,2.38,0,0,0,.69-.86,2.43,2.43,0,0,0,.35-1.08,2.32,2.32,0,0,0-.67-1.61C254.47,8.51,253.94,7.94,253.25,7.21Zm-.33-5.48A1.53,1.53,0,0,0,252.13,3c0,.61.53,1.38,1.57,2.34.31-.24.73-.65,1.32-1.22a2.29,2.29,0,0,0,.88-1.63c0-.83-.47-1.26-1.43-1.26A2.64,2.64,0,0,0,252.92,1.73Z"/><path class="cls-1" d="M269.42,11.71c-.87,1.89-2.67,2.83-5.4,2.83a4.56,4.56,0,0,1-1.94-.35,2.89,2.89,0,0,1-1.38-1.36,3.75,3.75,0,0,1-1.83,1.38,13.12,13.12,0,0,1-1.57.33.55.55,0,0,1-.69-.55c0-.39.24-.63.71-.71a3.88,3.88,0,0,0,3-2,13.94,13.94,0,0,1,.51-1.92l.29-.61c.92-2,2.65-3,5.17-3a4,4,0,0,1,2.85,1A3.39,3.39,0,0,1,269.93,8a3.06,3.06,0,0,1,.2,1.18,4.58,4.58,0,0,1-.41,1.89Zm-1.2-1.26a2.85,2.85,0,0,0,.22-1.08,2.21,2.21,0,0,0-.61-1.59,2.38,2.38,0,0,0-1.75-.67,3.82,3.82,0,0,0-2.34.79,3.44,3.44,0,0,0-1.22,1.47l-.26.65a3.09,3.09,0,0,0-.24,1.2c0,1.36.79,2.06,2.38,2.06a4.09,4.09,0,0,0,2.08-.57,3.18,3.18,0,0,0,1.43-1.47Z"/><path class="cls-1" d="M281.34,12a1.33,1.33,0,0,0-.12.51c0,.53.37.79,1.12.79a2.75,2.75,0,0,0,.41,0c.39-.06.59.1.59.53a.68.68,0,0,1-.59.73,4.12,4.12,0,0,1-.71.06,2.54,2.54,0,0,1-1.47-.39,1.5,1.5,0,0,1-.55-.86,5.44,5.44,0,0,1-1.22.88,6.67,6.67,0,0,1-2.36.31,3.29,3.29,0,0,1-3.2-1.59,4.44,4.44,0,0,1-1.83,1.26,8.29,8.29,0,0,1-1.47.33c-.43.06-.65-.12-.65-.55s.22-.61.65-.69a4.51,4.51,0,0,0,1.63-.61,3.42,3.42,0,0,0,1.38-1.77l1.87-4.16c.29-.63.65-.94,1.08-.94s.61.2.61.63a1.08,1.08,0,0,1-.12.49s-.57,1.32-1.71,3.87a1.91,1.91,0,0,0-.16.71,1.53,1.53,0,0,0,.73,1.28,2.44,2.44,0,0,0,1.51.49,3.37,3.37,0,0,0,3-1.81c.31-.69,1-2.34,2.12-4.93a1,1,0,0,1,.94-.73.64.64,0,0,1,.59.35,1.24,1.24,0,0,1-.06,1Z"/><path class="cls-1" d="M288,5.85a.85.85,0,0,0,.83-.57L290.23,2a.92.92,0,0,1,.88-.63.61.61,0,0,1,.69.69,1.24,1.24,0,0,1-.14.57l-1.41,3.22H293c.47,0,.69.2.69.63s-.22.63-.69.63h-2.61a1,1,0,0,0-.94.55l-.37.79-1,2.38a2.41,2.41,0,0,0-.16.88,1.6,1.6,0,0,0,.22.92,2.66,2.66,0,0,0,2.26.79,3.06,3.06,0,0,0,.79-.08l.26-.06c.47-.08.71.1.71.57s-.24.63-.71.69a9.71,9.71,0,0,1-1.45.12c-1.85,0-3-.59-3.42-1.79a4.43,4.43,0,0,1-1.41,1,7.46,7.46,0,0,1-2.4.67c-.51.06-.75-.14-.77-.57s.25-.59.77-.69l.69-.14a4.12,4.12,0,0,0,1.89-1,4.81,4.81,0,0,0,1-1.38L288,7.11h-1.22c-.51,0-.75-.2-.75-.63s.25-.63.75-.63Z"/><path class="cls-1" d="M302.82,14.61a2.17,2.17,0,0,1-1.79-.83,1.85,1.85,0,0,1-.35-1.14,2.43,2.43,0,0,1,.2-1l.9-2a2,2,0,0,0,.2-.88,1.77,1.77,0,0,0-2-1.65,3.42,3.42,0,0,0-1.63.43,2.79,2.79,0,0,0-1.28,1.32l-.81,1.79a8.1,8.1,0,0,1-1.65,2.59,6.47,6.47,0,0,1-3.2,1.37c-.43.08-.65-.1-.65-.55a.67.67,0,0,1,.65-.71,3.56,3.56,0,0,0,2.2-1.41,12.25,12.25,0,0,0,1.59-2.79L299,.65a.9.9,0,0,1,.86-.61.74.74,0,0,1,.75.73.94.94,0,0,1-.08.39L298.15,6.4a4.78,4.78,0,0,1,2.32-.55,3,3,0,0,1,2.26.92,2.66,2.66,0,0,1,.81,2,2.28,2.28,0,0,1-.18.9l-1,2.18a1.82,1.82,0,0,0-.2.77c0,.49.33.73,1,.73a2.19,2.19,0,0,0,.37,0,.55.55,0,0,1,.71.53c0,.39-.25.63-.71.73A4.89,4.89,0,0,1,302.82,14.61Z"/><path class="cls-1" d="M72.43,35.84a.34.34,0,0,0,0-.08.42.42,0,0,1,0-.1c0-.07-.07-.16-.2-.28a2.38,2.38,0,0,0-.58-.34,4.9,4.9,0,0,0-.89-.27,5.19,5.19,0,0,0-1.12-.11,4.34,4.34,0,0,0-1.33.19,3,3,0,0,0-1,.58,2.6,2.6,0,0,0-.69,1,3.28,3.28,0,0,0-.24,1.3A3,3,0,0,0,66.57,39a3.23,3.23,0,0,0,.72,1,3,3,0,0,0,1,.63,3.28,3.28,0,0,0,1.16.21,4.58,4.58,0,0,0,1.12-.14,7.44,7.44,0,0,0,1-.34A3.39,3.39,0,0,0,72.4,40q.3-.22.3-.41v-.16a.86.86,0,0,0,0-.2l.22-.2,1.51,2.16-.2.1a1.08,1.08,0,0,0-.35-.1,1.42,1.42,0,0,0-.53.18q-.37.18-.93.42a7.6,7.6,0,0,1-1.3.4,7.8,7.8,0,0,1-1.66.16A6.64,6.64,0,0,1,67.58,42a4.47,4.47,0,0,1-2.79-2.29,4.3,4.3,0,0,1-.45-2,4.24,4.24,0,0,1,.45-2A4.42,4.42,0,0,1,66,34.3a5,5,0,0,1,1.68-.87,6.7,6.7,0,0,1,1.95-.29,6.56,6.56,0,0,1,1.42.14,8.47,8.47,0,0,1,1.13.33l.81.33a1.39,1.39,0,0,0,.47.14A.26.26,0,0,0,73.6,34l.15-.1.24.14L72.65,36Z"/><path class="cls-1" d="M80.6,41.56a.28.28,0,0,0,.09.23.34.34,0,0,0,.21.07v.37H78.34v-.37a.34.34,0,0,0,.21-.07.28.28,0,0,0,.09-.23V33.94a.28.28,0,0,0-.09-.23.34.34,0,0,0-.21-.07v-.37h2.57v.37a.34.34,0,0,0-.21.07.28.28,0,0,0-.09.23v2.87h5.46V33.94a.28.28,0,0,0-.09-.23.34.34,0,0,0-.21-.07v-.37h2.57v.37a.34.34,0,0,0-.21.07.28.28,0,0,0-.09.23v7.62a.28.28,0,0,0,.09.23.34.34,0,0,0,.21.07v.37H85.75v-.37a.34.34,0,0,0,.21-.07.28.28,0,0,0,.09-.23V38.48H80.6Z"/><path class="cls-1" d="M92,41.87a.62.62,0,0,0,.4-.23,2.1,2.1,0,0,0,.23-.36l3-6.62.19-.46a.88.88,0,0,0,.07-.34c0-.08,0-.13-.05-.15l-.11-.07v-.37h3.08v.37l-.13.06s-.07.07-.07.16a.65.65,0,0,0,.09.3c.06.12.13.25.19.4l3.3,6.93a.74.74,0,0,0,.22.26.91.91,0,0,0,.26.12v.37H99.79v-.31a.45.45,0,0,0,.21-.06.23.23,0,0,0,.11-.22.6.6,0,0,0,0-.22l-.1-.26L99.42,40H95.06l-.57,1.1c-.05.11-.1.21-.13.29a.67.67,0,0,0-.05.23c0,.11,0,.18.1.2a.79.79,0,0,0,.29,0v.37H92Zm6.81-3.38-1.65-3.42-1.45,3.42Z"/><path class="cls-1" d="M111.73,33.27a5.59,5.59,0,0,1,2.83.6,2.18,2.18,0,0,1,1,2,2.25,2.25,0,0,1-.2,1,2.45,2.45,0,0,1-.54.74,2.89,2.89,0,0,1-.74.51,4.2,4.2,0,0,1-.84.29l2,2.91a1.17,1.17,0,0,0,.36.34,1.69,1.69,0,0,0,.42.17v.37h-3.12v-.37c.18,0,.27-.06.27-.18a1.33,1.33,0,0,0-.31-.63l-1.61-2.4h-2.83v2.91a.24.24,0,0,0,.13.23.53.53,0,0,0,.25.07v.37h-2.71v-.37q.37,0,.37-.3V33.94q0-.31-.37-.31v-.37Zm0,3.87q2,0,2-1.26a.9.9,0,0,0-.48-.8,3,3,0,0,0-1.52-.3h-3.22v2.36Z"/><path class="cls-1" d="M123,33.27v.37c-.31,0-.47.1-.47.31v6.78H128a.7.7,0,0,0,.41-.11.36.36,0,0,0,.16-.32H129v2.14h-.37a.17.17,0,0,0-.16-.18l-.41,0h-8v-.37q.53,0,.53-.3V33.94q0-.31-.53-.31v-.37Z"/><path class="cls-1" d="M140.89,35.16q0-.39-.63-.39h-5v2h3.14a1.85,1.85,0,0,0,.51-.05c.11,0,.16-.12.16-.27h.37v2.16h-.41a.2.2,0,0,0-.16-.28,3.07,3.07,0,0,0-.63-.05h-3v2.4h5.22a.7.7,0,0,0,.41-.11.34.34,0,0,0,.16-.29h.37v2.14h-.37a.18.18,0,0,0-.16-.2l-.41,0H133v-.37a.35.35,0,0,0,.2-.07.26.26,0,0,0,.1-.23V33.94a.27.27,0,0,0-.1-.23.35.35,0,0,0-.2-.07v-.37h7.23q.63,0,.63-.37h.37v2.26Z"/><path class="cls-1" d="M146.47,39.12a1.67,1.67,0,0,1,0,.17,1.64,1.64,0,0,0,0,.19.7.7,0,0,0,.39.56,3.77,3.77,0,0,0,.93.43,8.74,8.74,0,0,0,1.08.28,4.82,4.82,0,0,0,.85.1c.19,0,.42,0,.7,0a3.86,3.86,0,0,0,.82-.17,2.11,2.11,0,0,0,.69-.37.77.77,0,0,0,.29-.62.68.68,0,0,0-.5-.65,5.52,5.52,0,0,0-1.25-.32l-1.63-.22a8.38,8.38,0,0,1-1.63-.37,3.29,3.29,0,0,1-1.25-.73,1.79,1.79,0,0,1-.5-1.35,2.43,2.43,0,0,1,1.08-2.08,5.14,5.14,0,0,1,3-.77,7.64,7.64,0,0,1,1.64.15,8,8,0,0,1,1.15.34,8.32,8.32,0,0,1,.76.34,1.12,1.12,0,0,0,.44.15.47.47,0,0,0,.25-.05L154,34l.22.22-1,1.92-.37-.12,0-.24a.42.42,0,0,0-.18-.25,3.45,3.45,0,0,0-1.26-.59,7,7,0,0,0-1.92-.24,5.59,5.59,0,0,0-.77.05,2.57,2.57,0,0,0-.65.17,1.19,1.19,0,0,0-.45.32.72.72,0,0,0-.16.48.67.67,0,0,0,.5.64,5.84,5.84,0,0,0,1.25.31l1.63.22a7.89,7.89,0,0,1,1.63.38,3.24,3.24,0,0,1,1.25.77,1.93,1.93,0,0,1,.5,1.41,2.33,2.33,0,0,1-.44,1.47,3.1,3.1,0,0,1-1.09.9,4.46,4.46,0,0,1-1.44.43,11.44,11.44,0,0,1-1.48.1,7.23,7.23,0,0,1-1.37-.13,11.83,11.83,0,0,1-1.24-.31q-.56-.17-.95-.33a2.14,2.14,0,0,0-.47-.15.31.31,0,0,0-.24.12l-.29-.2.94-2.28Z"/><path class="cls-1" d="M160.87,41.87a.35.35,0,0,0,.2-.07.26.26,0,0,0,.1-.23V34.78h-2.65a.61.61,0,0,0-.31.08.28.28,0,0,0-.14.27h-.37V32.78h.37a.45.45,0,0,0,.14.39.51.51,0,0,0,.31.1h7.25a.51.51,0,0,0,.3-.1.45.45,0,0,0,.14-.39h.37v2.34h-.37a.28.28,0,0,0-.14-.27.61.61,0,0,0-.3-.08h-2.65v6.79q0,.3.37.3v.37h-2.63Z"/><path class="cls-1" d="M175,33.15a7.57,7.57,0,0,1,2.11.29,5.07,5.07,0,0,1,1.72.86A4.09,4.09,0,0,1,180,35.72a5,5,0,0,1,0,4.05,4.09,4.09,0,0,1-1.16,1.44,4.68,4.68,0,0,1-1.72.83,8.85,8.85,0,0,1-4.22,0,4.67,4.67,0,0,1-1.72-.83A4.07,4.07,0,0,1,170,39.78a5,5,0,0,1,0-4.05,4.08,4.08,0,0,1,1.16-1.44,5.07,5.07,0,0,1,1.72-.86A7.56,7.56,0,0,1,175,33.15Zm0,1.51a3.89,3.89,0,0,0-1.27.21,3.61,3.61,0,0,0-1.11.61,3,3,0,0,0-.78,1,3,3,0,0,0,0,2.61,3,3,0,0,0,.78,1,3.59,3.59,0,0,0,1.11.61,3.9,3.9,0,0,0,2.55,0,3.58,3.58,0,0,0,1.11-.61,3,3,0,0,0,.79-1,3,3,0,0,0,0-2.61,3,3,0,0,0-.79-1,3.6,3.6,0,0,0-1.11-.61A3.89,3.89,0,0,0,175,34.65Z"/><path class="cls-1" d="M184.41,41.87q.37,0,.37-.3V33.94q0-.31-.37-.31v-.37h3v.37c-.1,0-.14,0-.14.1s.15.25.45.55l4.89,5.18V33.94q0-.31-.41-.31v-.37h2.49v.37q-.37,0-.37.31v7.62q0,.3.37.3v.37H192v-.37c.09,0,.14,0,.14-.1s-.06-.15-.19-.29l-.44-.47-5.05-5.38v5.93q0,.3.43.3v.37h-2.51Z"/><path class="cls-1" d="M198.93,44.6a2.74,2.74,0,0,0,.69-.32,3.71,3.71,0,0,0,.7-.55,3.06,3.06,0,0,0,.52-.68,1.21,1.21,0,0,0,.16-.73c0-.05-.1-.09-.22-.1l-.35,0a1.29,1.29,0,0,1-.89-.34,1.2,1.2,0,0,1-.38-.95,1.41,1.41,0,0,1,.42-1,1.29,1.29,0,0,1,.95-.43,1.41,1.41,0,0,1,1.23.59,2.44,2.44,0,0,1,.42,1.45,3,3,0,0,1-.28,1.25,4.51,4.51,0,0,1-.72,1.11,4.61,4.61,0,0,1-1,.88,4,4,0,0,1-1.22.51Z"/><path class="cls-1" d="M215.62,39.12a1.55,1.55,0,0,1,0,.17,1.75,1.75,0,0,0,0,.19A.7.7,0,0,0,216,40a3.76,3.76,0,0,0,.93.43,8.75,8.75,0,0,0,1.08.28,4.83,4.83,0,0,0,.85.1c.19,0,.42,0,.7,0a3.86,3.86,0,0,0,.83-.17,2.1,2.1,0,0,0,.69-.37.76.76,0,0,0,.29-.62.68.68,0,0,0-.5-.65,5.53,5.53,0,0,0-1.25-.32L218,38.45a8.37,8.37,0,0,1-1.63-.37,3.29,3.29,0,0,1-1.25-.73,1.79,1.79,0,0,1-.5-1.35,2.43,2.43,0,0,1,1.08-2.08,5.14,5.14,0,0,1,3-.77,7.64,7.64,0,0,1,1.64.15,8,8,0,0,1,1.15.34,8.35,8.35,0,0,1,.76.34,1.11,1.11,0,0,0,.44.15.47.47,0,0,0,.25-.05l.2-.11.22.22-1,1.92L222,36l0-.24a.42.42,0,0,0-.18-.25,3.44,3.44,0,0,0-1.26-.59,7,7,0,0,0-1.92-.24,5.61,5.61,0,0,0-.77.05,2.56,2.56,0,0,0-.65.17,1.18,1.18,0,0,0-.45.32.71.71,0,0,0-.16.48.67.67,0,0,0,.5.64,5.83,5.83,0,0,0,1.25.31l1.63.22a7.91,7.91,0,0,1,1.63.38,3.23,3.23,0,0,1,1.25.77,1.92,1.92,0,0,1,.5,1.41,2.34,2.34,0,0,1-.44,1.47,3.1,3.1,0,0,1-1.09.9,4.46,4.46,0,0,1-1.44.43,11.44,11.44,0,0,1-1.48.1,7.23,7.23,0,0,1-1.37-.13,11.89,11.89,0,0,1-1.24-.31q-.56-.17-.95-.33a2.12,2.12,0,0,0-.47-.15.31.31,0,0,0-.24.12l-.29-.2.94-2.28Z"/><path class="cls-1" d="M235,35.84a.34.34,0,0,0,0-.08.42.42,0,0,1,0-.1c0-.07-.07-.16-.2-.28a2.38,2.38,0,0,0-.58-.34,4.88,4.88,0,0,0-.89-.27,5.2,5.2,0,0,0-1.12-.11,4.34,4.34,0,0,0-1.33.19,3,3,0,0,0-1,.58,2.6,2.6,0,0,0-.69,1,3.28,3.28,0,0,0-.24,1.3A3,3,0,0,0,229.1,39a3.23,3.23,0,0,0,.72,1,3,3,0,0,0,1,.63,3.28,3.28,0,0,0,1.16.21,4.58,4.58,0,0,0,1.12-.14,7.46,7.46,0,0,0,1-.34,3.42,3.42,0,0,0,.76-.42q.3-.22.3-.41v-.16a.91.91,0,0,0,0-.2l.22-.2,1.51,2.16-.2.1a1.07,1.07,0,0,0-.35-.1,1.42,1.42,0,0,0-.53.18q-.37.18-.93.42a7.63,7.63,0,0,1-1.3.4,7.8,7.8,0,0,1-1.66.16,6.64,6.64,0,0,1-1.85-.27,4.54,4.54,0,0,1-1.63-.84,4.5,4.5,0,0,1-1.16-1.45,4.3,4.3,0,0,1-.45-2,4.24,4.24,0,0,1,.45-2,4.4,4.4,0,0,1,1.18-1.44,5,5,0,0,1,1.68-.87,6.7,6.7,0,0,1,1.95-.29,6.55,6.55,0,0,1,1.42.14,8.42,8.42,0,0,1,1.13.33l.82.33a1.39,1.39,0,0,0,.47.14.26.26,0,0,0,.17-.06l.15-.1.25.14L235.18,36Z"/></g></g></svg>