<svg xmlns="http://www.w3.org/2000/svg" viewBox="0 0 245.8 248.27"><defs><style>.cls-1{fill:#696767;}</style></defs><title>coffee-dripper</title><g id="Layer_2" data-name="Layer 2"><g id="PAGE_Wholesale" data-name="PAGE Wholesale"><path class="cls-1" d="M68.34,124.65l-7.06-21.17a1.34,1.34,0,0,0-2.54,0l-7.06,21.17a9.17,9.17,0,0,0,1.06,8,8.62,8.62,0,0,0,6.51,3.9q.37,0,.75,0c.25,0,.5,0,.75,0a8.62,8.62,0,0,0,6.51-3.9A9.17,9.17,0,0,0,68.34,124.65Z"/><path class="cls-1" d="M221.66,67.23,153.28,36.84a2,2,0,0,0-2.72,1.48,16.26,16.26,0,0,1-3.06,6.88,2,2,0,0,0,.72,3L216.6,78.61a2,2,0,0,0,2.72-1.48,16.26,16.26,0,0,1,3.06-6.88A2,2,0,0,0,221.66,67.23Z"/><path class="cls-1" d="M217.53,86.14l-72.81,56.63a2,2,0,0,0,0,3.1,16.42,16.42,0,0,1,4.63,6,2,2,0,0,0,3,.78L225.17,96a2,2,0,0,0,0-3.1,16.42,16.42,0,0,1-4.63-6A2,2,0,0,0,217.53,86.14Z"/><path class="cls-1" d="M245.78,79.94a10.41,10.41,0,1,0-13.13,10.21,10.29,10.29,0,0,0,2.73.41A10.43,10.43,0,0,0,245.8,80.14C245.8,80.07,245.78,80,245.78,79.94Z"/><path class="cls-1" d="M144.91,158.4a10.4,10.4,0,0,0-7.67-9.81,10.28,10.28,0,0,0-2.73-.41,10.39,10.39,0,0,0-6.23,18.72,10.42,10.42,0,0,0,16.65-8.3C144.93,158.53,144.91,158.47,144.91,158.4Z"/><path class="cls-1" d="M144.65,33a10.42,10.42,0,0,0-20.57,2.3A10.42,10.42,0,1,0,144.65,33Z"/><path class="cls-1" d="M149.63,212.52l-2.84-9.95a2.38,2.38,0,0,0-2.29-1.73h-1.38a2.38,2.38,0,0,1-2.38-2.38V176.39a2,2,0,0,0-2.43-1.88,16.28,16.28,0,0,1-7.59,0,2,2,0,0,0-2.43,1.88v22.07a2.38,2.38,0,0,1-2.38,2.38h-1.38a2.38,2.38,0,0,0-2.29,1.73l-2.84,9.95a2.38,2.38,0,0,1-2.29,1.73H4a4,4,0,0,0-4,4v26a4,4,0,0,0,4,4H155.38a4,4,0,0,0,4-4v-26a4,4,0,0,0-4-4h-3.46A2.38,2.38,0,0,1,149.63,212.52Z"/><path class="cls-1" d="M77.15,80.64h0a.76.76,0,0,1-.72-1L103.25,5.86A4.37,4.37,0,0,0,99.15,0H22a4.37,4.37,0,0,0-4.11,5.86L44.67,79.61a.76.76,0,0,1-.72,1h0a3.88,3.88,0,0,0-3.89,3.07,3.74,3.74,0,0,0,3.68,4.41H77.37A3.74,3.74,0,0,0,81,83.71,3.88,3.88,0,0,0,77.15,80.64Z"/><path class="cls-1" d="M116.72,41.54a2,2,0,0,0,1.88-2.43,16.28,16.28,0,0,1,0-7.59,2,2,0,0,0-1.88-2.43H102.5a2,2,0,0,0-1.84,1.29l-3.11,8.54a2,2,0,0,0,1.84,2.63Z"/></g></g></svg>