<svg xmlns="http://www.w3.org/2000/svg" viewBox="0 0 33.8 31.83"><defs><style>.cls-1{fill:#635d59;}</style></defs><title>crown</title><g id="Layer_2" data-name="Layer 2"><g id="PAGE_Learn" data-name="PAGE Learn"><path class="cls-1" d="M27.8,31.83H6a.91.91,0,0,1-.79-.45l-1-1.79a.91.91,0,0,1,.79-1.38H28.85a.91.91,0,0,1,.79,1.38l-1,1.79A.91.91,0,0,1,27.8,31.83Z"/><path class="cls-1" d="M16.63,0a.24.24,0,0,0-.21,0,.33.33,0,0,0-.14.31c0,.16,0,.32,0,.48,0,.33-.06.67-.11,1C16,2.4,15.91,3,15.79,3.54,15,7.18,13.14,15.48,7.87,14.94c-3-.31-5.5-3.25-7.19-5.55A.37.37,0,0,0,0,9.72C1.64,15.36,3.57,23,4.15,25.27l25.1,0c.64-2.29,2.83-10,4.53-15.68a.37.37,0,0,0-.66-.33c-.3.36-.58.74-.88,1.1-1.86,2.2-4.77,5.1-8,4.51-2-.37-3.35-2.09-4.27-3.75q-.25-.45-.48-.92a24,24,0,0,1-1.29-3.28c-.36-1.13-.65-2.28-.89-3.44q-.18-.87-.34-1.74-.08-.43-.15-.86c0-.14-.11-.66-.11-.72A.21.21,0,0,0,16.63,0Z"/></g></g></svg>