<svg xmlns="http://www.w3.org/2000/svg" viewBox="0 0 63.63 65.56"><defs><style>.cls-1{fill:#af976d;}.cls-2{fill:#fff;}</style></defs><title>exploding-bean</title><g id="Layer_2" data-name="Layer 2"><g id="PAGE_Home" data-name="PAGE Home"><path class="cls-1" d="M63.45,33l-.7-.11-.84-.15-1.68-.33c-1.12-.24-2.24-.52-3.33-.87a23.15,23.15,0,0,1-3.18-1.25q-.45-.22-.89-.46c-1.61-.9-3.28-2.22-3.63-4.14-.57-3.09,2.24-5.9,4.37-7.7.35-.3.72-.56,1.07-.86a.36.36,0,0,0-.32-.63c-2.65.79-5.76,1.7-8.52,2.49.86-3,1.91-6.62,2.81-9.63A.36.36,0,0,0,48,9c-.29.35-.56.72-.86,1.07-1.81,2.13-4.62,4.94-7.7,4.37-1.92-.36-3.24-2-4.14-3.63q-.24-.44-.46-.89a23.3,23.3,0,0,1-1.25-3.18c-.35-1.1-.63-2.21-.87-3.33q-.18-.84-.33-1.68L32.21.87c0-.13-.11-.64-.11-.7A.2.2,0,0,0,32,0a.23.23,0,0,0-.21,0,.32.32,0,0,0-.14.3c0,.16,0,.31,0,.47,0,.32-.06.65-.11,1-.09.56-.2,1.11-.33,1.65-.78,3.52-2.56,11.56-7.67,11-2.95-.3-5.33-3.15-7-5.37a.36.36,0,0,0-.64.32c.88,3.06,1.86,6.71,2.65,9.73-2.93-.84-6.35-1.83-9.23-2.69a.36.36,0,0,0-.32.63c.35.29.72.56,1.07.86,2.13,1.81,4.94,4.62,4.37,7.7-.36,1.92-2,3.24-3.63,4.14q-.44.24-.89.46A23.15,23.15,0,0,1,6.73,31.5c-1.1.35-2.21.63-3.33.87l-1.68.33-.84.15L.18,33a.2.2,0,0,0-.16.11.23.23,0,0,0,0,.21.32.32,0,0,0,.3.14l.47,0c.32,0,.65.06,1,.11.56.09,1.11.2,1.65.33,3.52.78,11.56,2.56,11,7.67-.3,2.95-3.15,5.33-5.37,7a.36.36,0,0,0,.32.64c2.91-.84,6.36-1.76,9.29-2.53-.86,3-1.9,6.61-2.81,9.62a.36.36,0,0,0,.63.32c.29-.35.56-.72.86-1.07,1.81-2.13,4.62-4.94,7.7-4.37,1.92.36,3.24,2,4.14,3.63q.24.44.46.89a23.22,23.22,0,0,1,1.25,3.18c.35,1.1.63,2.21.87,3.33q.18.84.33,1.68.08.42.15.84c0,.13.11.64.11.7a.2.2,0,0,0,.11.16.23.23,0,0,0,.21,0,.32.32,0,0,0,.14-.3c0-.15,0-.31,0-.47,0-.32.06-.65.11-1,.09-.55.2-1.1.33-1.65.78-3.52,2.56-11.56,7.67-11,2.95.3,5.33,3.15,7,5.37a.36.36,0,0,0,.64-.32c-.83-2.89-1.75-6.3-2.51-9.21,2.65.7,5.59,1.49,8.12,2.22a.36.36,0,0,0,.32-.64c-2.22-1.64-5.07-4-5.37-7-.52-5.11,7.52-6.89,11-7.67.55-.12,1.1-.24,1.65-.33.32-.05.64-.08,1-.11l.47,0a.32.32,0,0,0,.3-.14.23.23,0,0,0,0-.21A.2.2,0,0,0,63.45,33Z"/><path class="cls-2" d="M32,33.73a21.5,21.5,0,0,1-9.78.88.59.59,0,0,0-.56.93c1.59,2.33,5.55,4,10.19,4,5.22,0,9.59-2.09,10.68-4.88a1.27,1.27,0,0,0-1-1.7A20.52,20.52,0,0,0,32,33.73Z"/><path class="cls-2" d="M31.66,31.83A21.5,21.5,0,0,1,41.44,31,.59.59,0,0,0,42,30c-1.59-2.33-5.55-4-10.19-4-5.22,0-9.59,2.09-10.68,4.88a1.27,1.27,0,0,0,1,1.7A20.51,20.51,0,0,0,31.66,31.83Z"/></g></g></svg>