<svg xmlns="http://www.w3.org/2000/svg" viewBox="0 0 55.63 57.32">
	<defs>
	  <style>.ex-kb-cls-1{fill:#af976d;}.ex-kb-cls-2{fill:#fff;}</style>
  </defs>
  <title>exploding-kb</title>
	<path class="ex-kb-cls-1" d="M55.47,28.81l-.61-.1-.73-.13-1.47-.29c-1-.21-2-.45-2.91-.76A20.24,20.24,0,0,1,47,26.45l-.78-.4c-1.41-.78-2.87-1.94-3.18-3.62-.5-2.7,2-5.16,3.82-6.73.3-.26.63-.49.93-.75a.32.32,0,0,0-.28-.55c-2.32.69-5,1.48-7.45,2.18.75-2.63,1.67-5.79,2.45-8.42a.32.32,0,0,0-.55-.28c-.26.31-.49.63-.75.93-1.58,1.86-4,4.32-6.73,3.82-1.68-.31-2.83-1.77-3.62-3.18q-.21-.38-.4-.78a20.37,20.37,0,0,1-1.09-2.78c-.3-1-.55-1.93-.76-2.91q-.16-.73-.29-1.47L28.16.76c0-.12-.09-.56-.1-.61A.17.17,0,0,0,28,0a.2.2,0,0,0-.18,0,.28.28,0,0,0-.12.27c0,.14,0,.27,0,.41s0,.57-.09.85c-.08.49-.18,1-.28,1.45-.69,3.08-2.24,10.11-6.71,9.65C18,12.39,15.89,9.9,14.46,8a.32.32,0,0,0-.56.28c.77,2.67,1.63,5.87,2.31,8.51-2.56-.73-5.55-1.6-8.07-2.35a.32.32,0,0,0-.28.55c.31.26.63.49.93.75,1.86,1.58,4.32,4,3.82,6.73C12.3,24.1,10.85,25.26,9.44,26l-.78.4a20.24,20.24,0,0,1-2.78,1.1c-1,.3-1.93.55-2.91.76l-1.47.29-.73.13-.61.1a.17.17,0,0,0-.14.1.21.21,0,0,0,0,.18.28.28,0,0,0,.27.12l.41,0c.28,0,.57,0,.85.09.49.08,1,.18,1.45.29,3.08.69,10.11,2.24,9.65,6.71C12.39,38.91,9.9,41,8,42.42a.32.32,0,0,0,.28.56c2.55-.74,5.56-1.54,8.12-2.21-.75,2.63-1.66,5.78-2.45,8.41a.32.32,0,0,0,.55.28c.26-.31.49-.63.75-.93,1.58-1.86,4-4.32,6.73-3.82,1.68.31,2.83,1.77,3.62,3.18q.21.38.4.78a20.3,20.3,0,0,1,1.09,2.78c.3,1,.55,1.93.76,2.91q.16.73.29,1.47l.13.73c0,.11.09.56.1.61a.18.18,0,0,0,.1.14.2.2,0,0,0,.18,0,.28.28,0,0,0,.12-.27c0-.14,0-.27,0-.41s0-.57.09-.85c.08-.48.18-1,.28-1.45.68-3.08,2.24-10.11,6.71-9.65,2.58.26,4.66,2.75,6.09,4.7a.32.32,0,0,0,.56-.28C41.76,46.56,41,43.58,40.29,41c2.32.61,4.89,1.3,7.1,1.94a.32.32,0,0,0,.28-.56C45.73,41,43.24,38.91,43,36.33c-.46-4.46,6.57-6,9.65-6.71.48-.11,1-.21,1.45-.29.28,0,.56-.07.85-.09l.41,0a.28.28,0,0,0,.27-.12.2.2,0,0,0,0-.18A.17.17,0,0,0,55.47,28.81Z"/>
	<path class="ex-kb-cls-2" d="M24.29,31.82a.2.2,0,0,0-.12-.19.6.6,0,0,0-.26-.06v-.3h5.17a3.52,3.52,0,0,1,1.09.15,2.28,2.28,0,0,1,.76.41,1.66,1.66,0,0,1,.46.59,1.68,1.68,0,0,1,.15.7,1.53,1.53,0,0,1-.1.56,1.91,1.91,0,0,1-.26.46,2.45,2.45,0,0,1-.35.37,1.88,1.88,0,0,1-.39.27v0a2.54,2.54,0,0,1,.46.27,2,2,0,0,1,.42.4,2.05,2.05,0,0,1,.3.53,1.77,1.77,0,0,1,.12.65,1.88,1.88,0,0,1-.15.75,1.61,1.61,0,0,1-.47.61,2.41,2.41,0,0,1-.85.42,4.36,4.36,0,0,1-1.25.16H23.9v-.3a.6.6,0,0,0,.26-.06.2.2,0,0,0,.13-.19Zm4.55,2.34a1.71,1.71,0,0,0,.75-.17.67.67,0,0,0,.35-.68.72.72,0,0,0-.35-.67.87.87,0,0,0-.35-.12l-.4,0h-3v1.66Zm0,3.19a1.63,1.63,0,0,0,1-.25.88.88,0,0,0,.28-.7.86.86,0,0,0-.37-.76,2.27,2.27,0,0,0-1.23-.25H25.88v2Z"/>
	<path class="ex-kb-cls-2" d="M26.29,24.49c0,.17.1.25.32.25V25H24.43v-.3c.18,0,.27-.08.27-.25V18.28c0-.17-.09-.25-.27-.25v-.3H26.6V18c-.21,0-.32.08-.32.25V21l1.16-.94,1.08-.87.8-.67q.31-.27.32-.34a.15.15,0,0,0-.09-.13.37.37,0,0,0-.17,0v-.25h2.74V18a2.38,2.38,0,0,0-.6.38l-2.77,2.24,2.62,3.25q.2.25.43.51a1,1,0,0,0,.46.32V25H29.81v-.3c.12,0,.18,0,.18-.1a.38.38,0,0,0-.07-.18,3.88,3.88,0,0,0-.29-.37l-2-2.49-1.29,1Z"/>
	<path class="ex-kb-cls-2" d="M31,28.52H24.59a.2.2,0,0,1-.17-.1L24.2,28a.2.2,0,0,1,.17-.29h6.9a.2.2,0,0,1,.17.29l-.22.38A.2.2,0,0,1,31,28.52Z"/>
</svg>