<svg xmlns="http://www.w3.org/2000/svg" viewBox="0 0 22.94 22.95"><defs><style>.cls-1{fill:#af976d;fill-rule:evenodd;}</style></defs><title>inst</title><g id="Layer_2" data-name="Layer 2"><g id="PAGE_Home" data-name="PAGE Home"><path class="cls-1" d="M4.92.32S5,.15,5.1.13c3.18-.23,7.51-.12,11,0,.62,0,1.32-.08,1.86,0,0,0,0,.18.19.19a2.61,2.61,0,0,1,.75.18,3.55,3.55,0,0,1,.75.19c.13.06.27.31.37.37s.32-.06.37,0c.28.34.91,1,1.3,1.49.08.11.32.27.37.37s-.06.33,0,.38a1.33,1.33,0,0,1,.37.56c0,.07-.06.33,0,.37.24.19.1.38.18.75,0,.16.16.19.19.37.32,2.63,0,4.56,0,7.83a26.72,26.72,0,0,1-.19,5,3.4,3.4,0,0,1-.37,1.3,4.64,4.64,0,0,1-.18.57c-.19.15-.21.38-.37.56s-.31.1-.37.19.06.32,0,.37a6.46,6.46,0,0,1-.93.56c-.1.05,0,.18-.19.19,0,0-.15,0-.18,0-.26.17-.42.5-.56.56s-.65.12-.93.19c-1.56.39-5,.19-7.08.19s-5.29.32-7.26-.19a5.89,5.89,0,0,1-1.3-.56c-.13-.09-.26-.29-.37-.37a10.07,10.07,0,0,1-.93-.56c-.13-.13-.07-.43-.19-.56s-.33-.12-.38-.19-.25-.64-.37-.94c0,0-.15-.71-.18-.74a4.78,4.78,0,0,1-.37-2c-.16-2.58,0-6.23,0-8.94A15.12,15.12,0,0,1,.27,4.61c.09-.45.35-.79.37-1.12a2.8,2.8,0,0,1,.56-.93,5.44,5.44,0,0,1,.93-.93c.14-.13.22-.46.37-.56S3,1,3.25.88c.1,0,0-.18.18-.19S4.06.43,4.55.32C4.67.3,4.8.35,4.92.32ZM20.19,4.23c-.06-.05,0-.3,0-.37s-.28-.27-.37-.37-.71-.72-.75-.74-.49-.05-.93-.19c0,0,0-.17,0-.19s-.49,0-.56,0-.17-.18-.18-.19c-1.13-.18-3.45,0-5.78,0S6.35,2,5.1,2.37A3.3,3.3,0,0,0,2.69,4.23a1.89,1.89,0,0,0-.19.37c0,.16-.17.14-.18.18-.22.89.15,2,0,3,2.29-.35,5.31.56,6.51-.19.12-.07.24-.31.37-.37a7,7,0,0,1,3.54-.37c.68.11,1.2.75,2.23.93,1.61.28,3.4-.2,5.59,0C20.55,6.78,20.71,4.65,20.19,4.23ZM2.31,9.82c.29,3.21-.7,8.07.75,9.68a3.38,3.38,0,0,0,1.3.94c.19,0,.12.16.19.19a14.55,14.55,0,0,0,3.35.19h3.54c1.75,0,6.28.37,6.89-.37.05-.05.31,0,.37,0s0-.17,0-.19.31,0,.37,0a19.58,19.58,0,0,0,1.31-1.49,6.28,6.28,0,0,0,.19-2c.08-2.46-.06-4.36,0-6.89h-4.1a6.85,6.85,0,0,1,.18,3.91,1.49,1.49,0,0,1-.18.56,11.65,11.65,0,0,1-.93,1.49,5.5,5.5,0,0,1-5.4,1.49c-.24-.06-.4-.15-.56-.18s-.25,0-.37-.19-.31.05-.37,0-.23-.26-.37-.37A5.64,5.64,0,0,1,6.6,14.29a6.43,6.43,0,0,1,0-4.47Zm7.63.74a2.38,2.38,0,0,0-.56,1.12,2.19,2.19,0,1,0,4.28,0,3.46,3.46,0,0,0-.56-1.12c-.26-.25-.64-.44-.74-.56s-1.09-.19-.93-.19V10A2.11,2.11,0,0,0,9.94,10.57Z"/><path class="cls-1" d="M18.41,3.82a4.25,4.25,0,0,1,0,2.4H16V3.82A4.1,4.1,0,0,1,18.41,3.82Z"/></g></g></svg>