<svg xmlns="http://www.w3.org/2000/svg" viewBox="0 0 180 31.56"><defs><style>.cls-1{fill:#af976d;}</style></defs><title>itssimple</title><g id="Layer_2" data-name="Layer 2"><g id="PAGE_Local_Pickup" data-name="PAGE Local Pickup"><path class="cls-1" d="M7.92,12.91a2.72,2.72,0,0,1-2.79-2.81,4.06,4.06,0,0,1,1-2.61,22.4,22.4,0,0,1,8.62-6.09c.14-.06.64-.23,1.51-.49a2.22,2.22,0,0,1,.44-.06c.67,0,1,.32,1,.93a1.43,1.43,0,0,1-.14.58L10,18.59a9.32,9.32,0,0,1-3,3.54,5.12,5.12,0,0,1-3.16,1,6.76,6.76,0,0,1-2.26-.44C.52,22.31,0,21.84,0,21.29a1,1,0,0,1,1-1,1.9,1.9,0,0,1,1,.29A5.19,5.19,0,0,0,4,21.12c1.74,0,3.22-1.28,4.47-3.86l2.41-5,4.09-8.64A.64.64,0,0,0,15,3.36c0-.23-.14-.26-.46-.09a20.76,20.76,0,0,0-6.64,5.1A2.59,2.59,0,0,0,7.19,10c0,.72.44,1.1,1.31,1.1a3.76,3.76,0,0,0,1.19-.23,1,1,0,0,1,.38-.09c.44,0,.67.17.67.55s-.49.93-1.48,1.31A3.76,3.76,0,0,1,7.92,12.91Z"/><path class="cls-1" d="M21.35,9.28a1.21,1.21,0,0,0,1.19-.81l2-4.67a1.31,1.31,0,0,1,1.25-.9.86.86,0,0,1,1,1,1.76,1.76,0,0,1-.2.81l-2,4.58h3.92c.67,0,1,.29,1,.9s-.32.9-1,.9H24.8a1.36,1.36,0,0,0-1.33.78L22.94,13l-1.48,3.39a3.4,3.4,0,0,0-.23,1.25,2.27,2.27,0,0,0,.32,1.3q.83,1.13,3.22,1.13A4.37,4.37,0,0,0,25.9,20l.38-.09c.67-.12,1,.14,1,.81s-.35.9-1,1a13.74,13.74,0,0,1-2.06.17c-2.64,0-4.26-.84-4.87-2.55a6.32,6.32,0,0,1-2,1.42,10.64,10.64,0,0,1-3.42,1c-.73.09-1.07-.2-1.1-.81s.35-.84,1.1-1l1-.2a5.88,5.88,0,0,0,2.7-1.45,6.9,6.9,0,0,0,1.48-2l2.29-5.16H19.63c-.73,0-1.07-.29-1.07-.9s.35-.9,1.07-.9Z"/><path class="cls-1" d="M35.12,6c-.46.41-.84.46-1.13.2s-.23-.52.15-.87c.72-.67,1.1-1.22,1.1-1.71a.16.16,0,0,0-.12-.17,1.12,1.12,0,0,1-.93-1.16A2,2,0,0,1,35,.7,2.67,2.67,0,0,1,36.77,0c.87,0,1.3.38,1.3,1.16a1.38,1.38,0,0,1-.12.58A10,10,0,0,1,35.12,6Z"/><path class="cls-1" d="M53,20.51c0,.61-.41,1-1.19,1.16a11.19,11.19,0,0,1-1.92.23,2.41,2.41,0,0,1-2.26-1.36,6.13,6.13,0,0,1-4.12,1.13c-2.23,0-4-.81-4.61-2a8.13,8.13,0,0,1-4.61,2,.85.85,0,0,1-.93-.87c0-.52.32-.84.93-1a6.51,6.51,0,0,0,2.64-1,18.74,18.74,0,0,0,2.52-2.26,28.91,28.91,0,0,0,4.29-5.77l.67-1.51a1.13,1.13,0,0,1,1-.75.94.94,0,0,1,.78.38,2.65,2.65,0,0,0,.64.46,14.73,14.73,0,0,1,2.9,2.29A5.31,5.31,0,0,1,51,15.2a5.83,5.83,0,0,1-1.13,3.31,1.8,1.8,0,0,0-.41.9c0,.38.38.58,1.16.58a7,7,0,0,0,1.22-.12C52.64,19.75,53,20,53,20.51Zm-6.7-8.88a.79.79,0,0,0-.41-.12c-.26,0-.55.26-.81.75a28.24,28.24,0,0,1-4.67,6,1.85,1.85,0,0,1,1,.38l.7.58a3.54,3.54,0,0,0,1.8.64,4.48,4.48,0,0,0,3.31-1.48A4.71,4.71,0,0,0,48.69,15a3.61,3.61,0,0,0-.12-1A4.24,4.24,0,0,0,46.32,11.63Z"/><path class="cls-1" d="M80,20.51c0,.61-.41,1-1.19,1.16a11.19,11.19,0,0,1-1.92.23,2.41,2.41,0,0,1-2.26-1.36,6.13,6.13,0,0,1-4.12,1.13c-2.23,0-4-.81-4.61-2a8.13,8.13,0,0,1-4.61,2,.85.85,0,0,1-.93-.87c0-.52.32-.84.93-1a6.51,6.51,0,0,0,2.64-1,18.74,18.74,0,0,0,2.52-2.26,28.91,28.91,0,0,0,4.29-5.77l.67-1.51a1.13,1.13,0,0,1,1-.75.94.94,0,0,1,.78.38,2.65,2.65,0,0,0,.64.46,14.73,14.73,0,0,1,2.9,2.29,5.31,5.31,0,0,1,1.25,3.51,5.83,5.83,0,0,1-1.13,3.31,1.8,1.8,0,0,0-.41.9c0,.38.38.58,1.16.58a7,7,0,0,0,1.22-.12C79.67,19.75,80,20,80,20.51Zm-6.7-8.88a.79.79,0,0,0-.41-.12c-.26,0-.55.26-.81.75a28.24,28.24,0,0,1-4.67,6,1.85,1.85,0,0,1,1,.38l.7.58a3.54,3.54,0,0,0,1.8.64,4.48,4.48,0,0,0,3.31-1.48A4.71,4.71,0,0,0,75.72,15a3.61,3.61,0,0,0-.12-1A4.24,4.24,0,0,0,73.34,11.63Z"/><path class="cls-1" d="M87.17,16.42a3.28,3.28,0,0,0-.35,1.39,1.94,1.94,0,0,0,.9,1.71,2.38,2.38,0,0,0,1.74.41l.35-.06a.85.85,0,0,1,1.1.78c0,.55-.38.9-1.1,1a5.61,5.61,0,0,1-1,.09,3.91,3.91,0,0,1-3.92-2.41c-1.07,1-3.08,1.83-6.06,2.35a.83.83,0,0,1-1-.84c0-.55.32-.87,1-1a15.85,15.85,0,0,0,3-.78,5.77,5.77,0,0,0,2.84-2.9l2.73-6a1.28,1.28,0,0,1,1.22-.87c.73,0,1.1.35,1.1,1a1.42,1.42,0,0,1-.14.55ZM91.84,6a1.54,1.54,0,0,1-1.45,1.57,1.3,1.3,0,0,1-1.25-1.36,1.53,1.53,0,0,1,1.42-1.57A1.33,1.33,0,0,1,91.84,6Z"/><path class="cls-1" d="M108.46,9.28a4.16,4.16,0,0,1,1.77.41A2.73,2.73,0,0,1,111.6,11a5.31,5.31,0,0,1,4.12-1.71,3.8,3.8,0,0,1,2.78,1.07,3.47,3.47,0,0,1,.9,2.5,5.76,5.76,0,0,1-.49,2.23l-1.19,2.73a3.24,3.24,0,0,0-.38,1.33.76.76,0,0,0,.84.87,1.07,1.07,0,0,0,.32,0l.64-.12a.87.87,0,0,1,1,.84q0,.74-1,1c-.44.09-.78.12-1,.15-1.65.14-3.34-.78-3.19-2.21a3.3,3.3,0,0,1,.23-1.16l1.71-4.06a4,4,0,0,0,.35-1.54c0-1.19-.64-1.8-1.94-1.8s-2.58,1.22-3.65,3.65L109,20.51c-.35.78-.81,1.16-1.36,1.16s-1-.29-1-.9a1.1,1.1,0,0,1,.12-.49l2.55-5.69a4.25,4.25,0,0,0,.46-1.83c0-1.13-.61-1.71-1.8-1.71-1.77,0-3.22,1.25-4.35,3.71L101,20.51c-.35.78-.81,1.16-1.42,1.16s-1-.29-1-.9a1.1,1.1,0,0,1,.12-.49l3.42-7.54a2,2,0,0,0,.2-.84c0-.64-.35-1-1-1a2.59,2.59,0,0,0-1.94,1,31.47,31.47,0,0,0-2.78,4.44,11.33,11.33,0,0,1-3.86,4.21,7.67,7.67,0,0,1-2.9,1,.77.77,0,0,1-.93-.81c0-.55.32-.87.93-1a4.9,4.9,0,0,0,2-.73,9.64,9.64,0,0,0,3.07-3l2-3c1.71-2.81,2.9-3.77,4.67-3.77h.32a2.39,2.39,0,0,1,2.32,1.57,5.29,5.29,0,0,1,4.12-1.57Z"/><path class="cls-1" d="M122.12,30.6a1.4,1.4,0,0,1-1.3,1,.91.91,0,0,1-1-1,2.09,2.09,0,0,1,.2-.87l5-11.2c0-.06-.06-.09-.12-.06a8.69,8.69,0,0,1-5.74,3.28.81.81,0,0,1-1-.84q0-.78,1-1a7.84,7.84,0,0,0,4.26-2.12A30.34,30.34,0,0,0,126,14.53a21.11,21.11,0,0,0,2.32-3.71l.29-.64a1.37,1.37,0,0,1,1.36-.9.83.83,0,0,1,.93.78,7.83,7.83,0,0,1,3.54-.78,3.85,3.85,0,0,1,3.07,1.39,4.42,4.42,0,0,1,1.1,3,4.23,4.23,0,0,1-.32,1.6l-1,2.2a4.5,4.5,0,0,0-.41,1.25c0,.81.75,1.3,1.68,1.16.67-.12,1.1.26,1.1.75,0,.73-.61,1.1-1.86,1.1a2.26,2.26,0,0,1-2.47-1.48A6,6,0,0,1,131,21.75a6.36,6.36,0,0,1-1.07-.09c-1.6,0-2.61-.55-3.1-1.65Zm14-15.37a4.05,4.05,0,0,0,.35-1.57A2.54,2.54,0,0,0,133.81,11a4.76,4.76,0,0,0-2.29.61,4.47,4.47,0,0,0-1.86,1.89l-1.33,2.9a3,3,0,0,0-.29,1.31,2.18,2.18,0,0,0,2.44,2.17A4.79,4.79,0,0,0,135.29,17Z"/><path class="cls-1" d="M142.13,20.68a13.89,13.89,0,0,1-3.48,1q-1,.17-1-.78c0-.55.32-.9,1-1a12.08,12.08,0,0,0,1.94-.55,6.15,6.15,0,0,0,2.12-1.45,6.92,6.92,0,0,0,1.42-1.68A39.44,39.44,0,0,1,146,10.53c.44-1.13,1.1-2.67,2-4.67A16.09,16.09,0,0,1,149.76,3,4.22,4.22,0,0,1,153,1.13a2.55,2.55,0,0,1,2.21.93,2.7,2.7,0,0,1,.43,1.83c-.2,2.29-2.49,5.8-6.93,10.56l-2.44,2.61a2.31,2.31,0,0,0-.06.46c0,1.42.84,2.23,2.52,2.49a3.61,3.61,0,0,0,.93.06c.38,0,1.33-.23,1.71-.23s.73.32.73.93-.32.78-1,.9a8.21,8.21,0,0,1-1,.15c-.61.06-1,.09-1.28.09a7.12,7.12,0,0,1-2.47-.44,3.47,3.47,0,0,1-2.15-2.35A7.18,7.18,0,0,1,142.13,20.68Zm8.35-15.05c-.35.67-1.19,2.44-2.5,5.37a20.38,20.38,0,0,0-1.13,2.87L149,11.43a20.09,20.09,0,0,0,2.93-3.86c1.07-1.74,1.62-3,1.62-3.68a2.66,2.66,0,0,0-.06-.67c-.09-.2-.32-.29-.67-.29Q151.92,2.93,150.48,5.63Z"/><path class="cls-1" d="M162.2,20.1a19.78,19.78,0,0,0,3-.23c.67-.09,1.1.29,1.1.78s-.38.9-1.13,1a17,17,0,0,1-2.84.26,12.48,12.48,0,0,1-3.42-.46A4.59,4.59,0,0,1,156.42,20a10.64,10.64,0,0,1-2.09.84,29,29,0,0,1-3.22.81c-.52.09-.84-.15-.93-.73s.23-1,1-1.07a19.67,19.67,0,0,0,2.18-.55,22,22,0,0,0,2.21-.87,6.92,6.92,0,0,1-.41-2.38,5.48,5.48,0,0,1,.41-2.17l.49-1.07a5.75,5.75,0,0,1,2.15-2.55,6.61,6.61,0,0,1,3.63-1,5.08,5.08,0,0,1,2.84.81,2.74,2.74,0,0,1,1.45,2.29q0,1.65-3,3.83A52.89,52.89,0,0,1,158.54,19,5.65,5.65,0,0,0,162.2,20.1Zm-1.48-4.5c2-1.36,3-2.41,3.08-3.19a1.17,1.17,0,0,0-.78-1,2.9,2.9,0,0,0-1.33-.29A4.31,4.31,0,0,0,158,13.58l-.35.78a3.89,3.89,0,0,0-.23,1.39,4.33,4.33,0,0,0,.26,1.62C158.83,16.74,159.85,16.16,160.72,15.61Z"/><path class="cls-1" d="M172.14,20.33A1.76,1.76,0,0,1,170.4,22a1.5,1.5,0,0,1-1.51-1.51,1.76,1.76,0,0,1,1.74-1.71A1.5,1.5,0,0,1,172.14,20.33ZM178.76.55C179.6.55,180,1,180,1.86a2.13,2.13,0,0,1-.2.9c-1.13,2.73-3.19,7.22-6.24,13.52a1.51,1.51,0,0,1-1.36,1A1.18,1.18,0,0,1,171,16.24a5.54,5.54,0,0,1,.75-1.77c1.48-3.22,3.22-7.4,5.16-12.53A1.86,1.86,0,0,1,178.76.55Z"/></g></g></svg>