<svg xmlns="http://www.w3.org/2000/svg" viewBox="0 0 38.78 54.09">
  <defs>
    <style>.kb-seal-cls-1{fill:none;}.kb-seal-cls-2{fill:#af976d;}</style>
  </defs>
  <title>king-bean-seal</title>
  <polygon class="kb-seal-cls-1" points="7.75 42.09 7.75 42.04 7.75 42.09 7.73 42.09 7.88 48.87 7.88 42.09 7.75 42.09"/>
  <path class="kb-seal-cls-1" d="M10.7,49.82c.51,0,.91-.24.91-.55v0C11.59,49.55,11.2,49.78,10.7,49.82Z"/>
  <path class="kb-seal-cls-1" d="M8.87,49.84h0Z"/>
  <path class="kb-seal-cls-1" d="M18,49.7c.24-.1.41-.26.4-.45v0C18.45,49.42,18.28,49.59,18,49.7Z"/>
  <path class="kb-seal-cls-1" d="M24.79,49.7c.24-.1.4-.26.4-.45v0C25.2,49.42,25,49.59,24.79,49.7Z"/>
  <path class="kb-seal-cls-1" d="M30.66,49.7c.24-.1.41-.26.4-.45v0C31.06,49.42,30.9,49.59,30.66,49.7Z"/>
  <path class="kb-seal-cls-2" d="M35.52,35.09H3.26a2.35,2.35,0,0,0-2.58,2,2.36,2.36,0,0,0,2.58,2h.65c-.14,0-.22.6-.22,1,0,0,1,14,4.25,14H31.56c3.24,0,3.52-14,3.52-14,0-.41-.08-1-.22-1h.65a2.36,2.36,0,0,0,2.58-2A2.36,2.36,0,0,0,35.52,35.09ZM10.77,49.82s-.13.14-.18.14l-1.69.13h0S8.81,50,8.78,50a.91.91,0,0,1-.89-.76v-.32l-.15-6.78h0V42c0-.33.43.05,1,.05h.82l.87-.34c.58,0,1.13.1,1.14.43l.15,7.07v0C11.75,49.58,11.28,49.78,10.77,49.82Zm6.92-.12a.89.89,0,0,1-.48.13H15.54c-.58,0-1-.26-1-.6l-.07-6.88c0-.33.48-.28,1.06-.28h.84s0-.33,0-.33l1-.17c.58,0,.71.18.72.51l-.28,7.13v0C17.75,49.44,17.94,49.6,17.69,49.7Zm6.88,0a1.13,1.13,0,0,1-.54.13H22.3c-.58,0-1-.27-1-.6l-.08-6.88c0-.33.47-.28,1.06-.28h.84s0-.33,0-.33l1-.17c.58,0,.84.18.84.51l-.16,7.13v0C24.75,49.44,24.81,49.6,24.57,49.7Zm5.93,0a1.28,1.28,0,0,1-.57.13H28.17c-.58,0-1-.27-1-.6l-.08-6.88c0-.33.47-.28,1.06-.28h.84s0-.33,0-.33l1-.17c.58,0,.91.18.91.51l-.1,7.13v0C30.75,49.44,30.74,49.6,30.5,49.7Z"/>
  <path class="kb-seal-cls-2" d="M19.08,0a.27.27,0,0,0-.25,0,.38.38,0,0,0-.16.36c0,.18,0,.37,0,.55,0,.38-.07.77-.13,1.15-.1.66-.24,1.31-.39,2-.93,4.17-3,13.7-9.09,13.08-3.49-.36-6.31-3.73-8.25-6.36a.43.43,0,0,0-.75.38C1.89,17.62,4.1,26.33,4.77,29l28.79,0c.74-2.62,3.25-11.48,5.2-18a.43.43,0,0,0-.75-.38c-.35.41-.67.85-1,1.26-2.14,2.52-5.47,5.85-9.13,5.17-2.27-.42-3.84-2.4-4.9-4.31q-.29-.52-.55-1.05A27.56,27.56,0,0,1,20.93,8c-.41-1.3-.74-2.62-1-3.95q-.21-1-.39-2-.09-.5-.17-1c0-.16-.13-.76-.13-.82A.24.24,0,0,0,19.08,0Z"/>
</svg>