<svg xmlns="http://www.w3.org/2000/svg" viewBox="0 0 183.2 62.73"><defs><style>.cls-1{fill:none;stroke:#fff;stroke-width:2.03px;}</style></defs><title>learn</title><g id="Layer_2" data-name="Layer 2"><g id="PAGE_Home" data-name="PAGE Home"><path class="cls-1" d="M1,1h8.7V53H26.93v8.7H1Z"/><path class="cls-1" d="M36.82,1H62.74V9.2H45.52V27h15V35.2h-15V53H62.74v8.7H36.82Z"/><path class="cls-1" d="M82.26,1h7.25l13.56,60.71h-8.7l-2.56-13H80l-2.56,13h-8.7Zm3.67,17.48h-.17l-4.26,22h8.7Z"/><path class="cls-1" d="M111.59,1h14c10.32,0,15.35,6.05,15.35,17.82,0,7-2,12.11-7.5,15.18l9.38,27.71h-9.21l-8.1-25.92h-5.2V61.72h-8.7Zm8.7,27.11h4.95c6.05,0,7-3.41,7-9.46s-1-9.46-7.42-9.46h-4.52Z"/><path class="cls-1" d="M151.84,1h8.36l13.13,36.58h.17V1h8.7V61.72H174L160.7,25.23h-.17V61.72h-8.7Z"/></g></g></svg>