<svg xmlns="http://www.w3.org/2000/svg" viewBox="0 0 642.24 596.45">
	<defs>
	<style>.learn22-cls-1{fill:#fff;}.learn-12-cls-2{fill:none;}</style>
</defs>
<title>learn22</title>
	<path class="learn22-cls-1" d="M255.24,260.85h6.32v37.82h12.52V305H255.24Z"/>
	<path class="learn22-cls-1" d="M281.28,260.85h18.85v6H287.61v13h10.91v6H287.61v13h12.52V305H281.28Z"/>
	<path class="learn22-cls-1" d="M314.33,260.85h5.27L329.46,305h-6.32l-1.86-9.49h-8.62L310.79,305h-6.32ZM317,273.56h-.12l-3.1,16h6.32Z"/>
	<path class="learn22-cls-1" d="M335.66,260.85h10.17c7.5,0,11.16,4.4,11.16,13,0,5.08-1.43,8.8-5.46,11L358.35,305h-6.7l-5.89-18.85H342V305h-6.32ZM342,280.57h3.6c4.4,0,5.08-2.48,5.08-6.88s-.74-6.88-5.39-6.88H342Z"/>
	<path class="learn22-cls-1" d="M364.92,260.85H371l9.55,26.6h.12v-26.6H387V305h-6l-9.67-26.53h-.12V305h-6.32Z"/>
	<path class="learn22-cls-1" d="M365.75,335.6h-86.4a1.21,1.21,0,0,1-1-.6l-1.39-2.38a1.21,1.21,0,0,1,1-1.83h89.19a1.21,1.21,0,0,1,1,1.83L366.79,335A1.21,1.21,0,0,1,365.75,335.6Z"/>
	<rect class="learn-12-cls-2" width="642.24" height="596.45"/>
</svg>