<svg xmlns="http://www.w3.org/2000/svg" viewBox="0 0 170.67 63.76">
	<defs>
	<style>.login-link-cls-1{fill:none;stroke:#fff;stroke-width:2.03px;}
</style>
</defs>
<title>login
</title>
<g id="Layer_2" data-name="Layer 2">
	<g id="Layer_1-2" data-name="Layer 1">
	<path class="login-link-cls-1" d="M1,1.52h8.7v52H26.93v8.7H1Z"/>
<path class="login-link-cls-1" d="M36.31,15.85C36.31,6,43.81,1,50.89,1S65.47,6,65.47,15.85V47.91c0,9.89-7.5,14.84-14.58,14.84S36.31,57.8,36.31,47.91ZM45,47.91C45,52.09,47.74,54,50.89,54s5.88-2,5.88-6.14V15.85c0-4.18-2.73-6.14-5.88-6.14S45,11.67,45,15.85Z"/>
<path class="login-link-cls-1" d="M76.89,15.85C76.89,6,84.4,1,91.47,1S106.05,6,106.05,15.85v3.07h-8.7V15.85c0-4.18-2.73-6.14-5.88-6.14s-5.88,2-5.88,6.14V47.91c0,4.18,2.73,6.14,5.88,6.14s5.88-2,5.88-6.14V36.48H90.45V28.81h15.6v19.1c0,9.89-7.5,14.84-14.58,14.84S76.89,57.8,76.89,47.91Z"/>
<path class="login-link-cls-1" d="M118.24,1.52h8.7V62.23h-8.7Z"/>
<path class="login-link-cls-1" d="M139.3,1.52h8.36L160.79,38.1H161V1.52h8.7V62.23h-8.19l-13.3-36.49H148V62.23h-8.7Z"/>
</g>
</g>
</svg>