<svg xmlns="http://www.w3.org/2000/svg" viewBox="0 0 45.01 25.34"><defs><style>.cls-1{fill:none;}.cls-2{fill:#635d59;}</style></defs><title>mail</title><g id="Layer_2" data-name="Layer 2"><g id="PAGE_Learn" data-name="PAGE Learn"><path class="cls-1" d="M23,13.47l-.37.18-.37-.16L6.55,22.1a.72.72,0,0,0,.35,1.35H38.35a.72.72,0,0,0,.35-1.35Z"/><path class="cls-1" d="M18.94,11.71,3,3a.72.72,0,0,0-1.07.63V21.08A.72.72,0,0,0,3,21.71l16-8.74A.72.72,0,0,0,18.94,11.71Z"/><path class="cls-1" d="M7.32,3.25l14.55,7.89a.72.72,0,0,0,.74,0h0a.72.72,0,0,0,.76,0l14.54-7.9a.72.72,0,0,0-.34-1.35H7.67A.72.72,0,0,0,7.32,3.25Z"/><path class="cls-1" d="M26.06,13l16,8.74a.72.72,0,0,0,1.07-.63V3.6A.72.72,0,0,0,42,3l-16,8.74A.72.72,0,0,0,26.06,13Z"/><path class="cls-2" d="M0,.72v23.9a.72.72,0,0,0,.72.72H44.29a.72.72,0,0,0,.72-.72V.72A.72.72,0,0,0,44.29,0H.72A.72.72,0,0,0,0,.72ZM22.62,11.06h0a.72.72,0,0,1-.78.06L7.32,3.25a.72.72,0,0,1,.34-1.35H37.57a.72.72,0,0,1,.34,1.35L23.4,11.12a.72.72,0,0,1-.78-.06ZM18.94,13,3,21.71a.72.72,0,0,1-1.07-.63V3.6A.72.72,0,0,1,3,3l16,8.74A.72.72,0,0,1,18.94,13Zm3.31.5.37.18.37-.16,15.7,8.62a.72.72,0,0,1-.35,1.35H6.89a.72.72,0,0,1-.35-1.35Zm3.81-1.76L42,3a.72.72,0,0,1,1.07.63V21.08a.72.72,0,0,1-1.07.63L26.06,13A.72.72,0,0,1,26.06,11.71Z"/></g></g></svg>