<svg xmlns="http://www.w3.org/2000/svg" viewBox="0 0 323.62 63.76">
	<defs>
	  <style>.our-story-link-cls-1{fill:none;stroke:#fff;stroke-width:2.03px;}</style>
  </defs>
  <title>our-story</title>
	<path class="our-story-link-cls-1" d="M1,15.85C1,6,8.52,1,15.59,1S30.17,6,30.17,15.85V47.91c0,9.89-7.5,14.84-14.58,14.84S1,57.8,1,47.91Zm8.7,32.06c0,4.18,2.73,6.14,5.88,6.14s5.88-2,5.88-6.14V15.85c0-4.18-2.73-6.14-5.88-6.14s-5.88,2-5.88,6.14Z"/>
	<path class="our-story-link-cls-1" d="M70.24,48.59a14.07,14.07,0,1,1-28.14,0V1.52h8.7V47.74C50.8,52,53.11,54,56.18,54s5.37-2,5.37-6.31V1.52h8.7Z"/>
	<path class="our-story-link-cls-1" d="M82.69,1.52h14C107,1.52,112,7.58,112,19.34c0,7-2,12.11-7.5,15.18l9.38,27.71h-9.21l-8.1-25.92h-5.2V62.23h-8.7Zm8.7,27.11h4.95c6.05,0,7-3.41,7-9.46s-1-9.46-7.42-9.46H91.39Z"/>
	<path class="our-story-link-cls-1" d="M171.53,19h-8.7V17c0-4-1.71-7.33-6.14-7.33-4.78,0-5.88,3.84-5.88,7.84,0,4.69.43,6.31,4.95,8.1l6.65,2.64c7.67,2.9,9.12,7.76,9.12,16.63,0,10.23-3.75,17.82-15,17.82-8.44,0-14.84-6.22-14.84-14.41V45.09h8.7v2.73c0,3.16,1.71,6.22,6.14,6.22,5.88,0,6.31-3.5,6.31-9,0-6.48-.77-7.5-5-9.21l-6.22-2.56c-7.5-3.07-9.46-8-9.46-15.6C142.12,8.43,147.06,1,157,1a14.22,14.22,0,0,1,14.5,13.73Z"/>
	<path class="our-story-link-cls-1" d="M188,9.71H177.92V1.52h28.82V9.71H196.68V62.23H188Z"/>
	<path class="our-story-link-cls-1" d="M213.31,15.85C213.31,6,220.81,1,227.89,1S242.47,6,242.47,15.85V47.91c0,9.89-7.5,14.84-14.58,14.84s-14.58-4.95-14.58-14.84ZM222,47.91c0,4.18,2.73,6.14,5.88,6.14s5.88-2,5.88-6.14V15.85c0-4.18-2.73-6.14-5.88-6.14s-5.88,2-5.88,6.14Z"/>
	<path class="our-story-link-cls-1" d="M254.4,1.52h14c10.32,0,15.35,6.05,15.35,17.82,0,7-2,12.11-7.5,15.18l9.38,27.71H276.4l-8.1-25.92h-5.2V62.23h-8.7Zm8.7,27.11H268c6.05,0,7-3.41,7-9.46s-1-9.46-7.42-9.46H263.1Z"/>
	<path class="our-story-link-cls-1" d="M301.57,36.57l-11.94-35h9.21l7,24.13H306l7-24.13h9.21l-11.94,35V62.23h-8.7Z"/>
</svg>