<svg xmlns="http://www.w3.org/2000/svg" viewBox="0 0 83.18 155.92"><defs><style>.cls-1{fill:#af976d;}</style></defs><title>pickupicon</title><g id="Layer_2" data-name="Layer 2"><g id="PAGE_Local_Pickup" data-name="PAGE Local Pickup"><path class="cls-1" d="M15.3,134.09a.4.4,0,0,1-.29.27.77.77,0,0,1-.46,0l-5.72-2,2.49-7.05c.08-.21.27-.26.6-.15l.13-.38L9,123.64l-.13.38q.55.19.44.51l-2.79,7.92q-.11.32-.66.12L5.7,133l8.3,2.93.42.17a.18.18,0,0,1,.1.25l.38.13.78-2.22Z"/><path class="cls-1" d="M28.63,138.84a5.14,5.14,0,0,0,2-.59,4.49,4.49,0,0,0,1.52-1.35,5.53,5.53,0,0,0,.73-4.41,4.51,4.51,0,0,0-1-1.77,5.6,5.6,0,0,0-1.72-1.24,8.77,8.77,0,0,0-4.59-.76,5.58,5.58,0,0,0-2,.62A4.51,4.51,0,0,0,22,130.69a5.53,5.53,0,0,0-.73,4.41,4.5,4.5,0,0,0,1,1.77A5.12,5.12,0,0,0,24,138.08a9.74,9.74,0,0,0,4.59.76Zm-4.52-3a3.33,3.33,0,0,1-.68-1.19,3.33,3.33,0,0,1,.47-2.84,3.32,3.32,0,0,1,1-.91,4,4,0,0,1,1.32-.46,4.29,4.29,0,0,1,2.77.46,4,4,0,0,1,1.1.87,3.35,3.35,0,0,1,.68,1.19,3.34,3.34,0,0,1-.47,2.84,3.33,3.33,0,0,1-1,.91,4,4,0,0,1-1.32.46,4.29,4.29,0,0,1-2.77-.46A4,4,0,0,1,24.11,135.84Z"/><path class="cls-1" d="M45.06,139.86a8.37,8.37,0,0,0,1.43-.46q.61-.27,1-.48a1.55,1.55,0,0,1,.58-.21,1.21,1.21,0,0,1,.38.11l.22-.12L47,136.34l-.24.23a1,1,0,0,1,0,.22V137q0,.2-.32.45a3.76,3.76,0,0,1-.84.47,8.2,8.2,0,0,1-1.14.39,5.06,5.06,0,0,1-1.23.18,3.59,3.59,0,0,1-1.28-.22,3.36,3.36,0,0,1-1.13-.68,3.59,3.59,0,0,1-.82-1.09A3.35,3.35,0,0,1,39.7,135a3.63,3.63,0,0,1,.25-1.44,2.86,2.86,0,0,1,.75-1.07,3.27,3.27,0,0,1,1.15-.66,4.78,4.78,0,0,1,1.47-.24,5.76,5.76,0,0,1,1.24.1,5.42,5.42,0,0,1,1,.29,2.58,2.58,0,0,1,.65.36q.23.19.23.3a.46.46,0,0,0,0,.11.41.41,0,0,1,0,.09l.25.18,1.45-2.16-.27-.15a.81.81,0,0,0-.17.11.28.28,0,0,1-.19.07,1.51,1.51,0,0,1-.52-.15l-.9-.35a9.58,9.58,0,0,0-1.25-.34,7.22,7.22,0,0,0-1.56-.13,7.39,7.39,0,0,0-2.14.35,5.52,5.52,0,0,0-1.84,1,4.88,4.88,0,0,0-1.28,1.6,4.67,4.67,0,0,0-.46,2.21,4.75,4.75,0,0,0,.53,2.2,4.93,4.93,0,0,0,3.12,2.48,7.33,7.33,0,0,0,2,.26A8.6,8.6,0,0,0,45.06,139.86Z"/><path class="cls-1" d="M56.28,138.66a.87.87,0,0,1-.32,0c-.08,0-.13-.08-.15-.2a.74.74,0,0,1,0-.26c0-.1,0-.22.09-.35l.41-1.3,4.74-.82.82,1.16.16.27a.65.65,0,0,1,.09.24.26.26,0,0,1-.08.26.49.49,0,0,1-.22.11l.06.33,3.14-.54-.07-.4a1,1,0,0,1-.31-.08.81.81,0,0,1-.29-.25l-4.89-6.9-.29-.39a.72.72,0,0,1-.16-.3c0-.1,0-.17,0-.19a.51.51,0,0,0,.13-.09l-.07-.4-3.34.58.07.4.13.06s.07.07.08.16a1,1,0,0,1,0,.38l-.12.53-2.05,7.76a2.35,2.35,0,0,1-.19.43.68.68,0,0,1-.39.33l.07.4,3-.51Zm1.35-7.85,2.44,3.41-3.36.58Z"/><path class="cls-1" d="M79.32,132.94a.18.18,0,0,1,.24.13l.38-.13-.78-2.22-.38.13a.4.4,0,0,1-.05.39.76.76,0,0,1-.38.27l-5.72,2-2.49-7.06q-.11-.32.38-.49l-.13-.38-3.07,1.08.13.38q.55-.19.66.12l2.79,7.92q.11.32-.44.51l.13.38,8.31-2.93Z"/><path class="cls-1" d="M9.47,140.6l-6.16-2.19-.14.38q.53.19.42.51L.78,147.22q-.11.32-.64.13l-.13.38,3,1.07.14-.38q-.44-.16-.33-.48l1.13-3.17L7.54,146a4.9,4.9,0,0,0,2.78.33,2.51,2.51,0,0,0,1.61-1.8,2.6,2.6,0,0,0-.1-2.44A4.69,4.69,0,0,0,9.47,140.6Zm.42,3.25q-.24.68-.73.75A2.27,2.27,0,0,1,8,144.46L4.49,143.2l.82-2.31,3.56,1.26a2,2,0,0,1,.93.63A1.07,1.07,0,0,1,9.89,143.85Z"/><path class="cls-1" d="M17.62,143.38a1.08,1.08,0,0,1,.46.19.28.28,0,0,1,.07.28L16.29,152a.28.28,0,0,1-.19.22,1.07,1.07,0,0,1-.5,0l-.09.39,3.33.76.09-.39q-.61-.14-.54-.47l1.86-8.19q.07-.33.69-.19l.09-.39L17.71,143Z"/><path class="cls-1" d="M34.38,148.53l.23.2,1.7-2-.25-.18-.18.09a.28.28,0,0,1-.2,0,1.5,1.5,0,0,1-.5-.21l-.86-.45a9.38,9.38,0,0,0-1.2-.49,7.23,7.23,0,0,0-1.54-.32,7.43,7.43,0,0,0-2.17.09,5.52,5.52,0,0,0-1.94.75A4.88,4.88,0,0,0,26,147.52a4.67,4.67,0,0,0-.72,2.14,4.74,4.74,0,0,0,.26,2.25,4.93,4.93,0,0,0,2.79,2.84,7.31,7.31,0,0,0,2,.51,8.58,8.58,0,0,0,1.84,0,8.41,8.41,0,0,0,1.48-.28c.43-.13.78-.24,1.06-.35a1.56,1.56,0,0,1,.6-.14,1.22,1.22,0,0,1,.37.15l.24-.09L34.53,152l-.27.2a1,1,0,0,1,0,.23l0,.18q0,.2-.37.41a3.78,3.78,0,0,1-.89.37,8.18,8.18,0,0,1-1.18.25,5.06,5.06,0,0,1-1.24,0,3.61,3.61,0,0,1-1.25-.37,3.36,3.36,0,0,1-1-.81,3.57,3.57,0,0,1-.68-1.18,3.34,3.34,0,0,1-.15-1.47,3.63,3.63,0,0,1,.42-1.4,2.87,2.87,0,0,1,.87-1A3.3,3.3,0,0,1,30,147a4.78,4.78,0,0,1,1.49-.06,5.81,5.81,0,0,1,1.22.25,5.49,5.49,0,0,1,.94.4,2.62,2.62,0,0,1,.6.44c.13.14.2.25.19.32a.46.46,0,0,0,0,.11A.41.41,0,0,1,34.38,148.53Z"/><path class="cls-1" d="M51.57,154.75q-.33-.34-.61-.67l-3.69-4.28,3.65-3.15a3.17,3.17,0,0,1,.79-.54v-.4l-3.7.12v.34a.5.5,0,0,1,.24.06.2.2,0,0,1,.13.18c0,.06-.14.22-.41.47l-1,.94L45.49,149,44,150.36l-.12-3.66q0-.34.42-.35v-.4l-2.94.1v.4c.24,0,.36.1.37.33l.27,8.4c0,.22-.11.34-.35.35v.4l2.94-.1v-.4q-.43,0-.44-.32L44,152.58l1.71-1.45,2.87,3.28a5.16,5.16,0,0,1,.41.48.52.52,0,0,1,.11.24c0,.09-.08.14-.24.14v.4l3.32-.11v-.4A1.39,1.39,0,0,1,51.57,154.75Z"/><path class="cls-1" d="M67,143.93c0-.22.1-.36.42-.42l-.07-.4-3.07.57.07.4q.55-.1.61.23l.95,5.07a2.14,2.14,0,0,1-.45,1.85,4.75,4.75,0,0,1-4.72.88,2.14,2.14,0,0,1-1.09-1.56l-.95-5.07c0-.22.1-.36.42-.42l-.08-.4-3.16.59.07.4a1.16,1.16,0,0,1,.52,0,.28.28,0,0,1,.18.23l1,5.59a3,3,0,0,0,.56,1.26,3.23,3.23,0,0,0,1.15.94,4.77,4.77,0,0,0,1.75.46,9.94,9.94,0,0,0,4.62-.86,4.78,4.78,0,0,0,1.47-1.06,3.25,3.25,0,0,0,.73-1.29,3,3,0,0,0,.06-1.37Z"/><path class="cls-1" d="M82.93,141a2.6,2.6,0,0,0-1.61-1.84,4.69,4.69,0,0,0-2.79.29l-6.16,2.17.13.38q.53-.19.64.13l2.79,7.92q.11.32-.42.5l.13.38,3-1.06-.13-.38q-.44.16-.56-.16l-1.12-3.18,3.6-1.27a4.89,4.89,0,0,0,2.37-1.49A2.51,2.51,0,0,0,82.93,141Zm-2.13,1.76a2.28,2.28,0,0,1-.95.58l-3.56,1.25-.81-2.31L79,141.08a2,2,0,0,1,1.12-.1,1.07,1.07,0,0,1,.74.78A1,1,0,0,1,80.8,142.81Z"/><path class="cls-1" d="M73.71,112.77V30.25H57.85v-14a16.26,16.26,0,1,0-32.52,0v14H9.46v82.52H73.71ZM30.2,16.26a11.38,11.38,0,0,1,22.77,0v14H30.2ZM14.34,35.13h54.5V95.3H14.34V35.13Zm0,72.77v-7.73h54.5v7.73H14.34Z"/><path class="cls-1" d="M29.13,70.11a.36.36,0,0,0,.62.16c1.09-1.11,4.37-3.63,11.56-3.66S52,69.19,53,70.3a.36.36,0,0,0,.61-.15c.63-2.23,2.77-9.78,4.43-15.32a.36.36,0,0,0-.64-.32c-.29.35-.57.72-.86,1.08-1.82,2.15-4.66,5-7.77,4.41-1.94-.36-3.27-2-4.18-3.67q-.25-.44-.47-.9a23.48,23.48,0,0,1-1.26-3.21c-.35-1.1-.63-2.23-.87-3.36q-.18-.85-.33-1.7l-.15-.84c0-.13-.11-.64-.11-.7a.2.2,0,0,0-.11-.16.23.23,0,0,0-.21,0,.32.32,0,0,0-.14.31c0,.16,0,.32,0,.47,0,.33-.06.65-.11,1-.09.56-.21,1.12-.33,1.67-.79,3.55-2.59,11.67-7.74,11.14-3-.3-5.37-3.18-7-5.42a.36.36,0,0,0-.64.32C26.68,60.43,28.56,67.85,29.13,70.11Z"/><path class="cls-1" d="M52.45,77.61a23,23,0,0,0-10.7.9,24.12,24.12,0,0,1-11,1,.67.67,0,0,0-.63,1C31.93,83.15,36.37,85,41.58,85c5.86,0,10.76-2.34,12-5.48A1.42,1.42,0,0,0,52.45,77.61Z"/><path class="cls-1" d="M41.41,76.38a24.12,24.12,0,0,1,11-1,.67.67,0,0,0,.64-1c-1.79-2.61-6.23-4.46-11.44-4.46-5.86,0-10.76,2.34-12,5.48a1.42,1.42,0,0,0,1.11,1.91A23,23,0,0,0,41.41,76.38Z"/></g></g></svg>