<svg xmlns="http://www.w3.org/2000/svg" viewBox="0 0 184.4 63.76"><defs><style>.cls-1{fill:none;stroke:#fff;stroke-width:2.03px;}</style></defs><title>Asset 34</title><g id="Layer_2" data-name="Layer 2"><g id="PAGE_Home" data-name="PAGE Home"><path class="cls-1" d="M1,1.52h13c4.77,0,8.27,1.11,11.25,4.26s3.92,7,3.92,14.24c0,5.29-.43,8.87-2.47,12.19-2.39,3.92-6.22,6.31-12.62,6.31H9.71v23.7H1Zm8.7,28.82h4.18C21,30.34,21,26.17,21,20.11c0-5.71,0-10.4-6.82-10.4H9.71Z"/><path class="cls-1" d="M40,1.52H54c10.32,0,15.35,6.05,15.35,17.82,0,7-2,12.11-7.5,15.18l9.38,27.71H62l-8.1-25.92h-5.2V62.23H40Zm8.7,27.11h4.95c6.05,0,7-3.41,7-9.46s-1-9.46-7.42-9.46H48.67Z"/><path class="cls-1" d="M80.56,1.52h25.92V9.71H89.26V27.53h15v8.19h-15V53.54h17.22v8.7H80.56Z"/><path class="cls-1" d="M144.51,19h-8.7V17c0-4-1.71-7.33-6.14-7.33-4.78,0-5.88,3.84-5.88,7.84,0,4.69.43,6.31,4.95,8.1l6.65,2.64c7.67,2.9,9.12,7.76,9.12,16.63,0,10.23-3.75,17.82-15,17.82-8.44,0-14.84-6.22-14.84-14.41V45.09h8.7v2.73c0,3.16,1.71,6.22,6.14,6.22,5.88,0,6.31-3.5,6.31-9,0-6.48-.77-7.5-5-9.21l-6.22-2.56c-7.5-3.07-9.46-8-9.46-15.6C115.09,8.43,120,1,130,1a14.22,14.22,0,0,1,14.5,13.73Z"/><path class="cls-1" d="M183.38,19h-8.7V17c0-4-1.71-7.33-6.14-7.33-4.78,0-5.88,3.84-5.88,7.84,0,4.69.43,6.31,4.95,8.1l6.65,2.64c7.67,2.9,9.12,7.76,9.12,16.63,0,10.23-3.75,17.82-15,17.82-8.44,0-14.84-6.22-14.84-14.41V45.09h8.7v2.73c0,3.16,1.71,6.22,6.14,6.22,5.88,0,6.31-3.5,6.31-9,0-6.48-.77-7.5-5-9.21l-6.22-2.56c-7.5-3.07-9.46-8-9.46-15.6C154,8.43,158.91,1,168.89,1a14.22,14.22,0,0,1,14.5,13.73Z"/></g></g></svg>