<svg xmlns="http://www.w3.org/2000/svg" viewBox="0 0 676.12 996.84"><defs><style>.cls-1{fill:#fff;}.cls-2{fill:none;}</style></defs><title>recentand</title><g id="Layer_2" data-name="Layer 2"><g id="PAGE_Home" data-name="PAGE Home"><path class="cls-1" d="M492.36,796.83a10,10,0,0,1,5,1.07,3.88,3.88,0,0,1,1.81,3.64,4,4,0,0,1-.36,1.74,4.37,4.37,0,0,1-1,1.32,5.12,5.12,0,0,1-1.32.91,7.42,7.42,0,0,1-1.49.53l3.55,5.18a2.09,2.09,0,0,0,.63.6,3.08,3.08,0,0,0,.74.31v.65h-5.54v-.65q.47,0,.47-.33a2.38,2.38,0,0,0-.54-1.12l-2.86-4.27h-5v5.18a.43.43,0,0,0,.24.42,1,1,0,0,0,.45.13v.65h-4.82v-.65q.65,0,.65-.54V798q0-.54-.65-.54v-.65Zm-.07,6.88q3.55,0,3.55-2.25A1.61,1.61,0,0,0,495,800a5.31,5.31,0,0,0-2.7-.53h-5.72v4.2Z"/><path class="cls-1" d="M522.25,800.2q0-.69-1.12-.69h-8.84v3.62h5.58a3.3,3.3,0,0,0,.91-.09q.29-.09.29-.49h.65v3.84H519a.35.35,0,0,0-.29-.49,5.42,5.42,0,0,0-1.12-.09h-5.29v4.27h9.27a1.25,1.25,0,0,0,.72-.2.61.61,0,0,0,.29-.53h.65v3.8h-.65q0-.33-.29-.36a6,6,0,0,0-.72,0H508.26v-.65a.63.63,0,0,0,.36-.13.47.47,0,0,0,.18-.42V798a.47.47,0,0,0-.18-.42.63.63,0,0,0-.36-.13v-.65h12.86q1.12,0,1.12-.65h.65v4Z"/><path class="cls-1" d="M544.6,801.4a.61.61,0,0,0,0-.14.74.74,0,0,1,0-.18q0-.18-.36-.49a4.17,4.17,0,0,0-1-.6,8.86,8.86,0,0,0-1.58-.49,9.34,9.34,0,0,0-2-.2,7.71,7.71,0,0,0-2.37.34,5.31,5.31,0,0,0-1.87,1,4.61,4.61,0,0,0-1.23,1.7,5.85,5.85,0,0,0-.43,2.32,5.39,5.39,0,0,0,.49,2.34,5.78,5.78,0,0,0,1.29,1.78,5.43,5.43,0,0,0,1.81,1.12,5.83,5.83,0,0,0,2.06.38,8.19,8.19,0,0,0,2-.25,13.25,13.25,0,0,0,1.85-.6,6.07,6.07,0,0,0,1.36-.74q.53-.4.53-.72v-.29a1.51,1.51,0,0,0,0-.36l.4-.36,2.68,3.84-.36.18a1.93,1.93,0,0,0-.62-.18,2.51,2.51,0,0,0-.94.33q-.65.33-1.65.74a13.51,13.51,0,0,1-2.32.71,13.88,13.88,0,0,1-3,.29,11.8,11.8,0,0,1-3.3-.47,7.95,7.95,0,0,1-5-4.08,7.66,7.66,0,0,1-.8-3.57,7.55,7.55,0,0,1,.8-3.55,7.87,7.87,0,0,1,2.1-2.55,8.88,8.88,0,0,1,3-1.54,12,12,0,0,1,3.46-.51,11.63,11.63,0,0,1,2.52.25,15,15,0,0,1,2,.58q.87.33,1.45.58a2.46,2.46,0,0,0,.83.25.45.45,0,0,0,.31-.11A1.34,1.34,0,0,1,547,798l.43.25L545,801.69Z"/><path class="cls-1" d="M569.78,800.2q0-.69-1.12-.69h-8.84v3.62h5.58a3.3,3.3,0,0,0,.91-.09q.29-.09.29-.49h.65v3.84h-.72a.35.35,0,0,0-.29-.49,5.42,5.42,0,0,0-1.12-.09h-5.29v4.27h9.27a1.25,1.25,0,0,0,.72-.2.61.61,0,0,0,.29-.53h.65v3.8h-.65q0-.33-.29-.36a6,6,0,0,0-.72,0H555.79v-.65a.63.63,0,0,0,.36-.13.47.47,0,0,0,.18-.42V798a.47.47,0,0,0-.18-.42.63.63,0,0,0-.36-.13v-.65h12.86q1.12,0,1.12-.65h.65v4Z"/><path class="cls-1" d="M579.52,812.12q.65,0,.65-.54V798q0-.54-.65-.54v-.65h5.33v.65c-.17,0-.25.08-.25.18s.27.45.8,1l8.69,9.2V798q0-.54-.72-.54v-.65h4.42v.65q-.65,0-.65.54v13.55q0,.54.65.54v.65h-4.71v-.65c.17,0,.25-.06.25-.18s-.11-.27-.34-.51l-.78-.83-9-9.56v10.54q0,.54.76.54v.65h-4.46Z"/><path class="cls-1" d="M611.15,812.12a.63.63,0,0,0,.36-.13.47.47,0,0,0,.18-.42V799.51H607a1.09,1.09,0,0,0-.54.14.5.5,0,0,0-.25.47h-.65V796h.65a.79.79,0,0,0,.25.69.92.92,0,0,0,.54.18h12.9a.91.91,0,0,0,.54-.18.79.79,0,0,0,.25-.69h.65v4.17h-.65a.5.5,0,0,0-.25-.47,1.08,1.08,0,0,0-.54-.14h-4.71v12.06q0,.54.65.54v.65h-4.67Z"/><path class="cls-1" d="M540.65,865.14a2.08,2.08,0,0,0-.17.7c0,.53.32.79,1,.79a3.18,3.18,0,0,0,.49-.08.66.66,0,0,1,.83.58c0,.38-.28.64-.83.75a3.41,3.41,0,0,1-.77.08,2.16,2.16,0,0,1-2-1.06,6.17,6.17,0,0,1-3.6,1c-1.7,0-2.56-.4-3.13-1.43a4.65,4.65,0,0,1-2.9,1.43.63.63,0,0,1-.75-.62c0-.36.23-.6.72-.68A3.66,3.66,0,0,0,532,865a30.42,30.42,0,0,0,1.38-3,5.07,5.07,0,0,1,5-3.28,3.51,3.51,0,0,1,2.79,1.19l.21-.47c.23-.49.51-.72.87-.72a.68.68,0,0,1,.77.77,1.45,1.45,0,0,1-.15.62Zm-.26-3.45a.74.74,0,0,0,.06-.3,1.07,1.07,0,0,0-.6-.92,3.51,3.51,0,0,0-1.85-.43,2.9,2.9,0,0,0-2.07.94,5.64,5.64,0,0,0-1.24,1.87l-.58,1.38a2.19,2.19,0,0,0-.17.79c0,.94.81,1.53,2,1.53a4.18,4.18,0,0,0,1.77-.4,3.1,3.1,0,0,0,1.11-.79,6.18,6.18,0,0,1,.4-1.13Z"/><path class="cls-1" d="M556.2,858.77a3.17,3.17,0,0,1,2.32.87,2.68,2.68,0,0,1,.81,1.94,2.88,2.88,0,0,1-.23,1.13L558,865.14a3,3,0,0,0-.34,1.11c0,.3.19.45.58.45a2.72,2.72,0,0,0,.53-.06l.43-.08c.45-.09.68.11.68.6a.69.69,0,0,1-.68.72,7.13,7.13,0,0,1-1,.13c-1,0-1.66-.23-2-.72a1.62,1.62,0,0,1-.23-.87,2.15,2.15,0,0,1,.17-.83l1.24-2.87a2.83,2.83,0,0,0,.23-1.07,1.59,1.59,0,0,0-1.79-1.58,4,4,0,0,0-3.77,2.75l-1.9,4.22c-.25.58-.6.85-1,.85s-.77-.21-.77-.66a.81.81,0,0,1,.09-.36l2.51-5.54a1.52,1.52,0,0,0,.15-.64c0-.49-.23-.72-.7-.72-.83,0-2,1.3-3.41,3.92a8.48,8.48,0,0,1-2.64,3,5.85,5.85,0,0,1-2.43,1,.61.61,0,0,1-.75-.6c0-.4.25-.64.77-.72a4,4,0,0,0,1.49-.62,8.13,8.13,0,0,0,2.19-2.15l1.49-2.28a9.42,9.42,0,0,1,1.88-2.26,2.79,2.79,0,0,1,1.66-.49,1.73,1.73,0,0,1,1.9,1.28A5.13,5.13,0,0,1,556.2,858.77Z"/><path class="cls-1" d="M570.79,865.19a1.68,1.68,0,0,0-.17.66.69.69,0,0,0,.64.77,4.53,4.53,0,0,0,1.26-.06.56.56,0,0,1,.66.6.68.68,0,0,1-.66.72,8,8,0,0,1-1.83.11,1.51,1.51,0,0,1-1.6-1.43,5.91,5.91,0,0,1-4,1.32,2.34,2.34,0,0,1-2.6-1.68,3.11,3.11,0,0,1-1.26,1,6.76,6.76,0,0,1-2,.68.59.59,0,0,1-.64-.64.64.64,0,0,1,.62-.68,4.94,4.94,0,0,0,3.32-2.92l.58-1.26a5.8,5.8,0,0,1,5.62-3.62,3.23,3.23,0,0,1,1.58.47,2,2,0,0,1,.92.75l2.64-6a1,1,0,0,1,.92-.7c.49,0,.75.26.75.79a1.39,1.39,0,0,1-.13.55Zm-.51-3.13a1.25,1.25,0,0,0,.11-.49c0-.79-.94-1.49-2-1.49a4.48,4.48,0,0,0-3.77,2.64l-.7,1.53a2.15,2.15,0,0,0-.19.85c0,1,.62,1.45,1.85,1.45a4.32,4.32,0,0,0,2.17-.62,3.65,3.65,0,0,0,1.53-1.64Z"/><path class="cls-1" d="M427.93,913q.65,0,.65-.54V898.87q0-.54-.65-.54v-.65h5.33v.65c-.17,0-.25.08-.25.18s.27.45.8,1l8.69,9.2v-9.82q0-.54-.72-.54v-.65h4.42v.65q-.65,0-.65.54v13.55q0,.54.65.54v.65h-4.71V913c.17,0,.25-.06.25-.18s-.11-.27-.34-.51l-.78-.83-9-9.56v10.54q0,.54.76.54v.65h-4.46Z"/><path class="cls-1" d="M463.83,897.46a13.48,13.48,0,0,1,3.75.51,9,9,0,0,1,3.06,1.52,7.26,7.26,0,0,1,2.07,2.55,8.92,8.92,0,0,1,0,7.21,7.26,7.26,0,0,1-2.07,2.55,8.28,8.28,0,0,1-3.06,1.47,15.77,15.77,0,0,1-7.5,0,8.28,8.28,0,0,1-3.06-1.47,7.25,7.25,0,0,1-2.06-2.55,8.92,8.92,0,0,1,0-7.21,7.25,7.25,0,0,1,2.06-2.55,9,9,0,0,1,3.06-1.52A13.46,13.46,0,0,1,463.83,897.46Zm0,2.68a6.89,6.89,0,0,0-2.26.38,6.42,6.42,0,0,0-2,1.09,5.36,5.36,0,0,0-1.39,1.72,5.38,5.38,0,0,0,0,4.64,5.35,5.35,0,0,0,1.39,1.72,6.42,6.42,0,0,0,2,1.09,6.94,6.94,0,0,0,4.53,0,6.42,6.42,0,0,0,2-1.09,5.37,5.37,0,0,0,1.4-1.72,5.39,5.39,0,0,0,0-4.64,5.38,5.38,0,0,0-1.4-1.72,6.42,6.42,0,0,0-2-1.09A6.91,6.91,0,0,0,463.83,900.14Z"/><path class="cls-1" d="M485.31,913a.63.63,0,0,0,.36-.13.47.47,0,0,0,.18-.42V900.36h-4.71a1.09,1.09,0,0,0-.54.14.5.5,0,0,0-.25.47h-.65v-4.17h.65a.79.79,0,0,0,.25.69.92.92,0,0,0,.54.18H494a.91.91,0,0,0,.54-.18.79.79,0,0,0,.25-.69h.65V901h-.65a.5.5,0,0,0-.25-.47,1.08,1.08,0,0,0-.54-.14h-4.71v12.06q0,.54.65.54v.65h-4.67Z"/><path class="cls-1" d="M517.23,901q0-.69-1.12-.69h-8.84V904h5.58a3.3,3.3,0,0,0,.91-.09q.29-.09.29-.49h.65v3.84H514a.35.35,0,0,0-.29-.49,5.42,5.42,0,0,0-1.12-.09h-5.29v4.27h9.27a1.25,1.25,0,0,0,.72-.2.61.61,0,0,0,.29-.53h.65V914h-.65q0-.33-.29-.36a6,6,0,0,0-.72,0H503.25V913a.63.63,0,0,0,.36-.13.47.47,0,0,0,.18-.42V898.87a.47.47,0,0,0-.18-.42.63.63,0,0,0-.36-.13v-.65h12.86q1.12,0,1.12-.65h.65v4Z"/><path class="cls-1" d="M529.22,898.33q-.47,0-.47.51a1.8,1.8,0,0,0,.15.56l.36,1,3.19,8.8h.07l3.08-8.62.34-1a2.31,2.31,0,0,0,.16-.74q0-.51-.58-.51v-.65h5.18v.65q-.65,0-.65.43a2.36,2.36,0,0,0,.18.74q.18.49.36.92l3.19,8.73,3.37-8.8c.12-.34.22-.63.31-.89a2.08,2.08,0,0,0,.13-.63q0-.51-.58-.51v-.65h4.6v.65q-.62,0-1.09,1.34l-4.17,11q-.22.62-.43,1.11a2.09,2.09,0,0,0-.22.67c0,.31.17.47.51.47v.65h-5.07V913a.58.58,0,0,0,.36-.13.67.67,0,0,0,.07-.38,6.6,6.6,0,0,0-.33-1.09q-.33-.94-.85-2.37t-1.14-3.21q-.62-1.77-1.2-3.59H538a10.37,10.37,0,0,1-.4,1.18l-.76,2-.92,2.32-.91,2.25q-.42,1-.69,1.74a4.62,4.62,0,0,0-.27.82.56.56,0,0,0,.11.4.63.63,0,0,0,.43.11v.65h-4.46V913a.8.8,0,0,0,.25,0c.07,0,.11-.11.11-.25a1.7,1.7,0,0,0-.13-.56l-.2-.53L525.38,899a1,1,0,0,0-.76-.69v-.65h4.6Z"/><path class="cls-1" d="M566.9,897.46a13.48,13.48,0,0,1,3.75.51,9,9,0,0,1,3.06,1.52,7.26,7.26,0,0,1,2.07,2.55,8.92,8.92,0,0,1,0,7.21,7.26,7.26,0,0,1-2.07,2.55,8.28,8.28,0,0,1-3.06,1.47,15.77,15.77,0,0,1-7.5,0,8.28,8.28,0,0,1-3.06-1.47,7.25,7.25,0,0,1-2.06-2.55,8.92,8.92,0,0,1,0-7.21,7.25,7.25,0,0,1,2.06-2.55,9,9,0,0,1,3.06-1.52A13.46,13.46,0,0,1,566.9,897.46Zm0,2.68a6.89,6.89,0,0,0-2.26.38,6.42,6.42,0,0,0-2,1.09,5.36,5.36,0,0,0-1.39,1.72,5.38,5.38,0,0,0,0,4.64,5.35,5.35,0,0,0,1.39,1.72,6.42,6.42,0,0,0,2,1.09,6.94,6.94,0,0,0,4.53,0,6.42,6.42,0,0,0,2-1.09,5.37,5.37,0,0,0,1.4-1.72,5.39,5.39,0,0,0,0-4.64,5.38,5.38,0,0,0-1.4-1.72,6.42,6.42,0,0,0-2-1.09A6.91,6.91,0,0,0,566.9,900.14Z"/><path class="cls-1" d="M594.43,897.68a10,10,0,0,1,5,1.07,3.88,3.88,0,0,1,1.81,3.64,4,4,0,0,1-.36,1.74,4.37,4.37,0,0,1-1,1.32,5.12,5.12,0,0,1-1.32.91,7.42,7.42,0,0,1-1.49.53l3.55,5.18a2.09,2.09,0,0,0,.63.6,3.08,3.08,0,0,0,.74.31v.65h-5.54V913q.47,0,.47-.33a2.38,2.38,0,0,0-.54-1.12l-2.86-4.27h-5v5.18a.43.43,0,0,0,.24.42,1,1,0,0,0,.45.13v.65h-4.82V913q.65,0,.65-.54V898.87q0-.54-.65-.54v-.65Zm-.07,6.88q3.55,0,3.55-2.25a1.61,1.61,0,0,0-.85-1.43,5.31,5.31,0,0,0-2.7-.53h-5.72v4.2Z"/><path class="cls-1" d="M614.13,913a.63.63,0,0,0,.36-.13.47.47,0,0,0,.18-.42V900.36H610a1.09,1.09,0,0,0-.54.14.5.5,0,0,0-.25.47h-.65v-4.17h.65a.79.79,0,0,0,.25.69.92.92,0,0,0,.54.18h12.9a.91.91,0,0,0,.54-.18.79.79,0,0,0,.25-.69h.65V901h-.65a.5.5,0,0,0-.25-.47,1.08,1.08,0,0,0-.54-.14h-4.71v12.06q0,.54.65.54v.65h-4.67Z"/><path class="cls-1" d="M636.3,912.42a.49.49,0,0,0,.16.42.6.6,0,0,0,.38.13v.65h-4.56V913a.6.6,0,0,0,.38-.13.49.49,0,0,0,.16-.42V898.87a.5.5,0,0,0-.16-.42.6.6,0,0,0-.38-.13v-.65h4.56v.65a.6.6,0,0,0-.38.13.5.5,0,0,0-.16.42V904H646v-5.11a.5.5,0,0,0-.16-.42.61.61,0,0,0-.38-.13v-.65H650v.65a.6.6,0,0,0-.38.13.5.5,0,0,0-.16.42v13.55a.49.49,0,0,0,.16.42.6.6,0,0,0,.38.13v.65h-4.56V913a.6.6,0,0,0,.38-.13.49.49,0,0,0,.16-.42V907H636.3Z"/><path class="cls-1" d="M659.05,898.95a1.47,1.47,0,0,0-.62-.47,1.85,1.85,0,0,0-.69-.14v-.65h6v.65a.81.81,0,0,0-.4.13.39.39,0,0,0-.22.34.63.63,0,0,0,.15.4l.33.43,3.66,4.78,3.22-4.49.49-.71a.8.8,0,0,0,.16-.45c0-.19-.06-.31-.18-.36a1,1,0,0,0-.36-.07v-.65h5.54v.65a1.49,1.49,0,0,0-1,.49,8.69,8.69,0,0,0-.92,1L668.69,907v5.43q0,.54.69.54v.65h-4.82V913q.65,0,.65-.54v-5.58Z"/><path class="cls-1" d="M495.75,962.76q0-.54-.91-.54v-.65h10.54a7.56,7.56,0,0,1,4.4,1.05,4.2,4.2,0,0,1,1.47,3.66q0,2.61-1.47,3.6a7.88,7.88,0,0,1-4.4,1h-6.16v5.43q0,.54.76.54v.65h-5.14v-.65q.91,0,.91-.54Zm9.56,5.43a3.67,3.67,0,0,0,1.76-.38,1.59,1.59,0,0,0,.71-1.54,1.73,1.73,0,0,0-.71-1.58,3.19,3.19,0,0,0-1.76-.45h-6.09v3.95Z"/><path class="cls-1" d="M529,961.56a10,10,0,0,1,5,1.07,3.88,3.88,0,0,1,1.81,3.64,4,4,0,0,1-.36,1.74,4.37,4.37,0,0,1-1,1.32,5.12,5.12,0,0,1-1.32.91,7.42,7.42,0,0,1-1.49.53l3.55,5.18a2.09,2.09,0,0,0,.63.6,3.08,3.08,0,0,0,.74.31v.65H531.1v-.65q.47,0,.47-.33a2.38,2.38,0,0,0-.54-1.12l-2.86-4.27h-5v5.18a.43.43,0,0,0,.24.42,1,1,0,0,0,.45.13v.65H519v-.65q.65,0,.65-.54V962.76q0-.54-.65-.54v-.65Zm-.07,6.88q3.55,0,3.55-2.25a1.61,1.61,0,0,0-.85-1.43,5.31,5.31,0,0,0-2.7-.53h-5.72v4.2Z"/><path class="cls-1" d="M558.89,964.93q0-.69-1.12-.69h-8.84v3.62h5.58a3.3,3.3,0,0,0,.91-.09q.29-.09.29-.49h.65v3.84h-.72a.35.35,0,0,0-.29-.49,5.42,5.42,0,0,0-1.12-.09h-5.29v4.27h9.27a1.25,1.25,0,0,0,.72-.2.61.61,0,0,0,.29-.53h.65v3.8h-.65q0-.33-.29-.36a6,6,0,0,0-.72,0H544.91v-.65a.63.63,0,0,0,.36-.13.47.47,0,0,0,.18-.42V962.76a.47.47,0,0,0-.18-.42.63.63,0,0,0-.36-.13v-.65h12.86q1.12,0,1.12-.65h.65v4Z"/><path class="cls-1" d="M569.72,972a2.91,2.91,0,0,1,0,.31,3,3,0,0,0,0,.34,1.24,1.24,0,0,0,.69,1,6.7,6.7,0,0,0,1.65.76,15.73,15.73,0,0,0,1.92.49,8.61,8.61,0,0,0,1.5.18q.51,0,1.25-.07a6.87,6.87,0,0,0,1.47-.31,3.73,3.73,0,0,0,1.23-.65,1.36,1.36,0,0,0,.51-1.1,1.22,1.22,0,0,0-.89-1.16,9.82,9.82,0,0,0-2.23-.56l-2.9-.4a14.91,14.91,0,0,1-2.9-.65,5.87,5.87,0,0,1-2.23-1.3,3.18,3.18,0,0,1-.89-2.41,4.32,4.32,0,0,1,1.92-3.7,9.14,9.14,0,0,1,5.4-1.38,13.5,13.5,0,0,1,2.92.27,14.12,14.12,0,0,1,2,.6,14.42,14.42,0,0,1,1.36.6,2,2,0,0,0,.78.27.83.83,0,0,0,.43-.09l.36-.2.4.4-1.81,3.41-.65-.22-.07-.44a.74.74,0,0,0-.33-.43,6.09,6.09,0,0,0-2.25-1A12.38,12.38,0,0,0,575,964a10.14,10.14,0,0,0-1.38.09,4.54,4.54,0,0,0-1.16.31,2.1,2.1,0,0,0-.8.56,1.27,1.27,0,0,0-.29.85,1.19,1.19,0,0,0,.89,1.14,10.53,10.53,0,0,0,2.23.54q1.34.2,2.9.4a14.16,14.16,0,0,1,2.9.67,5.73,5.73,0,0,1,2.23,1.38,3.42,3.42,0,0,1,.89,2.5,4.16,4.16,0,0,1-.78,2.61,5.54,5.54,0,0,1-1.94,1.59,8,8,0,0,1-2.55.76,20.56,20.56,0,0,1-2.63.18,12.78,12.78,0,0,1-2.45-.24,21,21,0,0,1-2.21-.54q-1-.31-1.68-.58a3.83,3.83,0,0,0-.83-.27.55.55,0,0,0-.43.22l-.51-.36,1.67-4.06Z"/><path class="cls-1" d="M593.49,972a2.91,2.91,0,0,1,0,.31,3,3,0,0,0,0,.34,1.24,1.24,0,0,0,.69,1,6.7,6.7,0,0,0,1.65.76,15.73,15.73,0,0,0,1.92.49,8.61,8.61,0,0,0,1.5.18q.51,0,1.25-.07a6.87,6.87,0,0,0,1.47-.31,3.73,3.73,0,0,0,1.23-.65,1.36,1.36,0,0,0,.51-1.1,1.22,1.22,0,0,0-.89-1.16,9.82,9.82,0,0,0-2.23-.56l-2.9-.4a14.91,14.91,0,0,1-2.9-.65,5.87,5.87,0,0,1-2.23-1.3,3.18,3.18,0,0,1-.89-2.41,4.32,4.32,0,0,1,1.92-3.7,9.14,9.14,0,0,1,5.4-1.38,13.5,13.5,0,0,1,2.92.27,14.12,14.12,0,0,1,2,.6,14.42,14.42,0,0,1,1.36.6,2,2,0,0,0,.78.27.83.83,0,0,0,.43-.09l.36-.2.4.4-1.81,3.41-.65-.22-.07-.44a.74.74,0,0,0-.33-.43,6.09,6.09,0,0,0-2.25-1,12.38,12.38,0,0,0-3.41-.44,10.14,10.14,0,0,0-1.38.09,4.54,4.54,0,0,0-1.16.31,2.1,2.1,0,0,0-.8.56,1.27,1.27,0,0,0-.29.85A1.19,1.19,0,0,0,596,967a10.53,10.53,0,0,0,2.23.54q1.34.2,2.9.4a14.16,14.16,0,0,1,2.9.67,5.73,5.73,0,0,1,2.23,1.38,3.42,3.42,0,0,1,.89,2.5,4.16,4.16,0,0,1-.78,2.61,5.54,5.54,0,0,1-1.94,1.59,8,8,0,0,1-2.55.76,20.56,20.56,0,0,1-2.63.18,12.78,12.78,0,0,1-2.45-.24,21,21,0,0,1-2.21-.54q-1-.31-1.68-.58a3.83,3.83,0,0,0-.83-.27.55.55,0,0,0-.43.22l-.51-.36,1.67-4.06Z"/><path class="cls-1" d="M596,832.08h-86.4a1.21,1.21,0,0,1-1-.6l-1.39-2.38a1.21,1.21,0,0,1,1-1.83h89.19a1.21,1.21,0,0,1,1,1.83l-1.39,2.38A1.21,1.21,0,0,1,596,832.08Z"/><path class="cls-1" d="M596,932.69h-86.4a1.21,1.21,0,0,1-1-.6l-1.39-2.38a1.21,1.21,0,0,1,1-1.83h89.19a1.21,1.21,0,0,1,1,1.83l-1.39,2.38A1.21,1.21,0,0,1,596,932.69Z"/><path class="cls-1" d="M596,996.84h-86.4a1.21,1.21,0,0,1-1-.6l-1.39-2.38a1.21,1.21,0,0,1,1-1.83h89.19a1.21,1.21,0,0,1,1,1.83l-1.39,2.38A1.21,1.21,0,0,1,596,996.84Z"/><rect class="cls-2" width="642.24" height="596.45"/></g></g></svg>