<svg xmlns="http://www.w3.org/2000/svg" viewBox="0 0 152 63.76">
	<defs>
   	<style>.shop-link-cls-1{fill:none;stroke:#fff;stroke-width:2.03px;}</style>
  </defs>
  <title>shop</title>
	<path class="shop-link-cls-1" d="M30.86,19h-8.7V17c0-4-1.71-7.33-6.14-7.33-4.78,0-5.88,3.84-5.88,7.84,0,4.69.43,6.31,4.95,8.1l6.65,2.64c7.67,2.9,9.12,7.76,9.12,16.63,0,10.23-3.75,17.82-15,17.82C7.41,62.74,1,56.52,1,48.33V45.09h8.7v2.73C9.71,51,11.41,54,15.85,54c5.88,0,6.31-3.5,6.31-9,0-6.48-.77-7.5-5-9.21L10.9,33.24c-7.5-3.07-9.46-8-9.46-15.6C1.44,8.43,6.38,1,16.36,1a14.22,14.22,0,0,1,14.5,13.73Z"/>
	<path class="shop-link-cls-1" d="M41.6,1.52h8.7v26H61v-26h8.7V62.23H61v-27H50.29v27H41.6Z"/>
	<path class="shop-link-cls-1" d="M81.67,15.85C81.67,6,89.17,1,96.25,1S110.83,6,110.83,15.85V47.91c0,9.89-7.5,14.84-14.58,14.84S81.67,57.8,81.67,47.91Zm8.7,32.06c0,4.18,2.73,6.14,5.88,6.14s5.88-2,5.88-6.14V15.85c0-4.18-2.73-6.14-5.88-6.14s-5.88,2-5.88,6.14Z"/>
	<path class="shop-link-cls-1" d="M122.76,1.52h13c4.77,0,8.27,1.11,11.25,4.26S151,12.78,151,20c0,5.29-.43,8.87-2.47,12.19-2.39,3.92-6.22,6.31-12.62,6.31h-4.43v23.7h-8.7Zm8.7,28.82h4.18c7.08,0,7.16-4.18,7.16-10.23,0-5.71,0-10.4-6.82-10.4h-4.52Z"/>
</svg>