<svg xmlns="http://www.w3.org/2000/svg" viewBox="0 0 203.45 49.46"><defs><style>.cls-1{fill:#af976d;}</style></defs><title>testament</title><g id="Layer_2" data-name="Layer 2"><g id="PAGE_Learn" data-name="PAGE Learn"><path class="cls-1" d="M11.37,11.9a2,2,0,0,0-.16.67c0,.51.3.75.92.75a3,3,0,0,0,.47-.08.63.63,0,0,1,.79.55c0,.37-.27.61-.79.71a3.26,3.26,0,0,1-.73.08,2.07,2.07,0,0,1-1.94-1,5.9,5.9,0,0,1-3.44.94c-1.63,0-2.44-.39-3-1.37A4.45,4.45,0,0,1,.71,14.5.61.61,0,0,1,0,13.91c0-.35.22-.57.69-.65a3.5,3.5,0,0,0,2.4-1.49A29.21,29.21,0,0,0,4.42,8.94,4.85,4.85,0,0,1,9.21,5.81a3.36,3.36,0,0,1,2.67,1.14l.2-.45c.22-.47.49-.69.83-.69a.65.65,0,0,1,.73.73,1.39,1.39,0,0,1-.14.59Zm-.24-3.3a.72.72,0,0,0,.06-.29,1,1,0,0,0-.57-.87A3.35,3.35,0,0,0,8.84,7a2.77,2.77,0,0,0-2,.9A5.39,5.39,0,0,0,5.68,9.72L5.13,11a2.1,2.1,0,0,0-.16.75c0,.9.77,1.47,1.91,1.47a4,4,0,0,0,1.69-.39,3,3,0,0,0,1.06-.75A6,6,0,0,1,10,11Z"/><path class="cls-1" d="M24.49,5.81a.85.85,0,0,0,.83-.57L26.75,2a.92.92,0,0,1,.88-.63.61.61,0,0,1,.69.69,1.24,1.24,0,0,1-.14.57L26.77,5.81h2.75c.47,0,.69.2.69.63s-.22.63-.69.63H26.91a1,1,0,0,0-.94.55l-.37.79-1,2.38a2.41,2.41,0,0,0-.16.88,1.6,1.6,0,0,0,.22.92,2.66,2.66,0,0,0,2.26.79,3.06,3.06,0,0,0,.79-.08l.26-.06c.47-.08.71.1.71.57s-.24.63-.71.69a9.71,9.71,0,0,1-1.45.12c-1.85,0-3-.59-3.42-1.79a4.43,4.43,0,0,1-1.41,1,7.46,7.46,0,0,1-2.4.67c-.51.06-.75-.14-.77-.57s.25-.59.77-.69L20,13.1a4.12,4.12,0,0,0,1.89-1,4.81,4.81,0,0,0,1-1.38l1.61-3.63H23.29c-.51,0-.75-.2-.75-.63s.24-.63.75-.63Z"/><path class="cls-1" d="M35.75,13.4a13.77,13.77,0,0,0,2.08-.16c.47-.06.77.2.77.55s-.26.63-.79.73a11.92,11.92,0,0,1-2,.18,8.79,8.79,0,0,1-2.4-.33,3.23,3.23,0,0,1-1.71-1,7.54,7.54,0,0,1-1.47.59,20.44,20.44,0,0,1-2.26.57c-.37.06-.59-.1-.65-.51s.16-.67.67-.75a13.88,13.88,0,0,0,1.53-.39,15.1,15.1,0,0,0,1.55-.61,4.88,4.88,0,0,1-.29-1.67,3.87,3.87,0,0,1,.29-1.53l.35-.75a4,4,0,0,1,1.51-1.79,4.65,4.65,0,0,1,2.55-.71,3.57,3.57,0,0,1,2,.57,1.92,1.92,0,0,1,1,1.61q0,1.16-2.08,2.69a37.13,37.13,0,0,1-3.22,2A4,4,0,0,0,35.75,13.4Zm-1-3.16c1.43-1,2.14-1.69,2.16-2.24a.82.82,0,0,0-.55-.73,2,2,0,0,0-.94-.2,3,3,0,0,0-2.61,1.75l-.25.55a2.73,2.73,0,0,0-.16,1,3,3,0,0,0,.18,1.14C33.39,11,34.11,10.63,34.72,10.25Z"/><path class="cls-1" d="M51,13.69c0,.43-.29.71-.83.82a7.91,7.91,0,0,1-1.34.16,1.69,1.69,0,0,1-1.59-1,4.3,4.3,0,0,1-2.89.79c-1.57,0-2.83-.57-3.24-1.41a5.7,5.7,0,0,1-3.24,1.43.6.6,0,0,1-.65-.61c0-.37.22-.59.65-.67a4.56,4.56,0,0,0,1.85-.71,13.15,13.15,0,0,0,1.77-1.59,20.3,20.3,0,0,0,3-4.05l.47-1.06a.79.79,0,0,1,.73-.53.66.66,0,0,1,.55.26,1.86,1.86,0,0,0,.45.33,10.41,10.41,0,0,1,2,1.61A3.73,3.73,0,0,1,49.57,10a4.09,4.09,0,0,1-.79,2.32,1.27,1.27,0,0,0-.29.63c0,.26.26.41.82.41a4.92,4.92,0,0,0,.86-.08C50.69,13.16,51,13.3,51,13.69ZM46.25,7.46A.56.56,0,0,0,46,7.37c-.18,0-.39.18-.57.53a19.86,19.86,0,0,1-3.28,4.22,1.3,1.3,0,0,1,.73.26l.49.41a2.5,2.5,0,0,0,1.26.45,3.15,3.15,0,0,0,2.32-1,3.31,3.31,0,0,0,1-2.36,2.55,2.55,0,0,0-.08-.67A3,3,0,0,0,46.25,7.46Z"/><path class="cls-1" d="M55.33,5.81a.85.85,0,0,0,.83-.57L57.6,2a.92.92,0,0,1,.88-.63.61.61,0,0,1,.69.69,1.24,1.24,0,0,1-.14.57L57.62,5.81h2.75c.47,0,.69.2.69.63s-.22.63-.69.63H57.76a1,1,0,0,0-.94.55l-.37.79-1,2.38a2.41,2.41,0,0,0-.16.88,1.6,1.6,0,0,0,.22.92,2.66,2.66,0,0,0,2.26.79,3.06,3.06,0,0,0,.79-.08l.26-.06c.47-.08.71.1.71.57s-.24.63-.71.69a9.71,9.71,0,0,1-1.45.12c-1.85,0-3-.59-3.42-1.79a4.43,4.43,0,0,1-1.41,1,7.46,7.46,0,0,1-2.4.67c-.51.06-.75-.14-.77-.57s.25-.59.77-.69l.69-.14a4.12,4.12,0,0,0,1.89-1,4.81,4.81,0,0,0,1-1.38l1.61-3.63H54.13c-.51,0-.75-.2-.75-.63s.25-.63.75-.63Z"/><path class="cls-1" d="M69.45,11.9a2,2,0,0,0-.16.67c0,.51.3.75.92.75a3,3,0,0,0,.47-.08.63.63,0,0,1,.79.55c0,.37-.27.61-.79.71a3.26,3.26,0,0,1-.73.08,2.07,2.07,0,0,1-1.94-1,5.9,5.9,0,0,1-3.44.94c-1.63,0-2.44-.39-3-1.37A4.45,4.45,0,0,1,58.8,14.5a.61.61,0,0,1-.71-.59c0-.35.22-.57.69-.65a3.5,3.5,0,0,0,2.4-1.49,29.21,29.21,0,0,0,1.32-2.83,4.85,4.85,0,0,1,4.79-3.14A3.36,3.36,0,0,1,70,6.95l.2-.45c.22-.47.49-.69.83-.69a.65.65,0,0,1,.73.73,1.39,1.39,0,0,1-.14.59Zm-.24-3.3a.72.72,0,0,0,.06-.29,1,1,0,0,0-.57-.87A3.35,3.35,0,0,0,66.93,7a2.77,2.77,0,0,0-2,.9,5.39,5.39,0,0,0-1.18,1.79L63.22,11a2.1,2.1,0,0,0-.16.75c0,.9.77,1.47,1.91,1.47a4,4,0,0,0,1.69-.39,3,3,0,0,0,1.06-.75A6,6,0,0,1,68.11,11Z"/><path class="cls-1" d="M83.78,5.81A2.91,2.91,0,0,1,85,6.09,1.91,1.91,0,0,1,86,7a3.73,3.73,0,0,1,2.89-1.2,2.67,2.67,0,0,1,2,.75,2.44,2.44,0,0,1,.63,1.75,4.06,4.06,0,0,1-.35,1.57l-.83,1.91a2.28,2.28,0,0,0-.26.94.53.53,0,0,0,.59.61.76.76,0,0,0,.22,0l.45-.08a.61.61,0,0,1,.73.59q0,.52-.73.67c-.31.06-.55.08-.71.1-1.16.1-2.34-.55-2.24-1.55a2.34,2.34,0,0,1,.16-.82l1.2-2.85a2.82,2.82,0,0,0,.24-1.08c0-.83-.45-1.26-1.36-1.26S86.75,7.9,86,9.62l-1.83,4.07c-.24.55-.57.82-1,.82s-.71-.2-.71-.63a.78.78,0,0,1,.08-.35l1.79-4a3,3,0,0,0,.33-1.28c0-.79-.43-1.2-1.26-1.2-1.24,0-2.26.88-3.06,2.61l-1.81,4c-.25.55-.57.82-1,.82s-.73-.2-.73-.63a.77.77,0,0,1,.08-.35l2.4-5.3a1.37,1.37,0,0,0,.14-.59c0-.45-.24-.67-.71-.67a1.81,1.81,0,0,0-1.36.73,22,22,0,0,0-2,3.12,8,8,0,0,1-2.71,3,5.4,5.4,0,0,1-2,.73.54.54,0,0,1-.65-.57c0-.39.22-.61.65-.69a3.43,3.43,0,0,0,1.41-.51,6.76,6.76,0,0,0,2.16-2.14l1.41-2.14c1.2-2,2-2.65,3.28-2.65h.22a1.68,1.68,0,0,1,1.63,1.1,3.72,3.72,0,0,1,2.89-1.1Z"/><path class="cls-1" d="M99.08,13.4a13.77,13.77,0,0,0,2.08-.16c.47-.06.77.2.77.55s-.26.63-.79.73a11.93,11.93,0,0,1-2,.18,8.79,8.79,0,0,1-2.4-.33,3.23,3.23,0,0,1-1.71-1,7.54,7.54,0,0,1-1.47.59,20.44,20.44,0,0,1-2.26.57c-.37.06-.59-.1-.65-.51s.16-.67.67-.75a13.88,13.88,0,0,0,1.53-.39,15.1,15.1,0,0,0,1.55-.61,4.88,4.88,0,0,1-.29-1.67,3.87,3.87,0,0,1,.29-1.53l.35-.75a4,4,0,0,1,1.51-1.79,4.65,4.65,0,0,1,2.55-.71,3.57,3.57,0,0,1,2,.57,1.92,1.92,0,0,1,1,1.61q0,1.16-2.08,2.69a37.13,37.13,0,0,1-3.22,2A4,4,0,0,0,99.08,13.4Zm-1-3.16c1.43-1,2.14-1.69,2.16-2.24a.82.82,0,0,0-.55-.73,2,2,0,0,0-.94-.2A3,3,0,0,0,96.1,8.82l-.25.55a2.73,2.73,0,0,0-.16,1,3,3,0,0,0,.18,1.14C96.71,11,97.43,10.63,98,10.25Z"/><path class="cls-1" d="M114.79,5.81a3,3,0,0,1,2.22.83,2.55,2.55,0,0,1,.77,1.85,2.77,2.77,0,0,1-.22,1.08l-1,2.32a2.88,2.88,0,0,0-.33,1.06q0,.43.55.43a2.61,2.61,0,0,0,.51-.06l.41-.08c.43-.08.65.1.65.57a.66.66,0,0,1-.65.69,6.84,6.84,0,0,1-1,.12c-1,0-1.59-.22-1.87-.69a1.55,1.55,0,0,1-.22-.84,2.05,2.05,0,0,1,.16-.79l1.18-2.75a2.71,2.71,0,0,0,.22-1A1.52,1.52,0,0,0,114.44,7a3.81,3.81,0,0,0-3.61,2.63l-1.81,4c-.25.55-.57.82-1,.82s-.73-.2-.73-.63a.77.77,0,0,1,.08-.35l2.4-5.3a1.46,1.46,0,0,0,.14-.61c0-.47-.22-.69-.67-.69-.79,0-1.87,1.24-3.26,3.75a8.13,8.13,0,0,1-2.53,2.91,5.59,5.59,0,0,1-2.32.94.58.58,0,0,1-.71-.57c0-.39.24-.61.73-.69a3.79,3.79,0,0,0,1.43-.59,7.78,7.78,0,0,0,2.1-2.06l1.43-2.18a9,9,0,0,1,1.79-2.16,2.67,2.67,0,0,1,1.59-.47A1.66,1.66,0,0,1,111.3,7,4.91,4.91,0,0,1,114.79,5.81Z"/><path class="cls-1" d="M122.88,5.81a.85.85,0,0,0,.83-.57L125.14,2a.92.92,0,0,1,.88-.63.61.61,0,0,1,.69.69,1.24,1.24,0,0,1-.14.57l-1.41,3.22h2.75c.47,0,.69.2.69.63s-.22.63-.69.63H125.3a1,1,0,0,0-.94.55l-.37.79-1,2.38a2.41,2.41,0,0,0-.16.88,1.6,1.6,0,0,0,.22.92,2.66,2.66,0,0,0,2.26.79,3.06,3.06,0,0,0,.79-.08l.26-.06c.47-.08.71.1.71.57s-.24.63-.71.69a9.71,9.71,0,0,1-1.45.12c-1.85,0-3-.59-3.42-1.79a4.43,4.43,0,0,1-1.41,1,7.46,7.46,0,0,1-2.4.67c-.51.06-.75-.14-.77-.57s.25-.59.77-.69l.69-.14a4.12,4.12,0,0,0,1.89-1,4.81,4.81,0,0,0,1-1.38l1.61-3.63h-1.22c-.51,0-.75-.2-.75-.63s.25-.63.75-.63Z"/><path class="cls-1" d="M138.24,5.81a.85.85,0,0,0,.83-.57L140.5,2a.92.92,0,0,1,.88-.63.61.61,0,0,1,.69.69,1.24,1.24,0,0,1-.14.57l-1.41,3.22h2.75c.47,0,.69.2.69.63s-.22.63-.69.63h-2.61a1,1,0,0,0-.94.55l-.37.79-1,2.38a2.41,2.41,0,0,0-.16.88,1.6,1.6,0,0,0,.22.92,2.66,2.66,0,0,0,2.26.79,3.06,3.06,0,0,0,.79-.08l.26-.06c.47-.08.71.1.71.57s-.24.63-.71.69a9.71,9.71,0,0,1-1.45.12c-1.85,0-3-.59-3.42-1.79a4.43,4.43,0,0,1-1.41,1,7.46,7.46,0,0,1-2.4.67c-.51.06-.75-.14-.77-.57s.25-.59.77-.69l.69-.14a4.12,4.12,0,0,0,1.89-1,4.81,4.81,0,0,0,1-1.38l1.61-3.63H137c-.51,0-.75-.2-.75-.63s.24-.63.75-.63Z"/><path class="cls-1" d="M153.8,11.67c-.87,1.89-2.67,2.83-5.4,2.83a4.56,4.56,0,0,1-1.94-.35,2.89,2.89,0,0,1-1.38-1.36,3.75,3.75,0,0,1-1.83,1.38,13.12,13.12,0,0,1-1.57.33A.55.55,0,0,1,141,14c0-.39.24-.63.71-.71a3.88,3.88,0,0,0,3-2,13.94,13.94,0,0,1,.51-1.92l.29-.61c.92-2,2.65-3,5.17-3a4,4,0,0,1,2.85,1,3.39,3.39,0,0,1,.79,1.14,3.06,3.06,0,0,1,.2,1.18,4.58,4.58,0,0,1-.41,1.89Zm-1.2-1.26a2.85,2.85,0,0,0,.22-1.08,2.21,2.21,0,0,0-.61-1.59,2.38,2.38,0,0,0-1.75-.67,3.82,3.82,0,0,0-2.34.79,3.44,3.44,0,0,0-1.22,1.47l-.26.65a3.09,3.09,0,0,0-.24,1.2c0,1.36.79,2.06,2.38,2.06a4.09,4.09,0,0,0,2.08-.57,3.18,3.18,0,0,0,1.43-1.47Z"/><path class="cls-1" d="M172.38,14.56a2.17,2.17,0,0,1-1.79-.83,1.85,1.85,0,0,1-.35-1.14,2.43,2.43,0,0,1,.2-1l.9-2a2,2,0,0,0,.2-.88,1.77,1.77,0,0,0-2-1.65,3.42,3.42,0,0,0-1.63.43,2.79,2.79,0,0,0-1.28,1.32l-.81,1.79a8.1,8.1,0,0,1-1.65,2.59,6.47,6.47,0,0,1-3.2,1.37c-.43.08-.65-.1-.65-.55a.67.67,0,0,1,.65-.71,3.56,3.56,0,0,0,2.2-1.41,12.25,12.25,0,0,0,1.59-2.79L168.55.61a.9.9,0,0,1,.86-.61.74.74,0,0,1,.75.73.94.94,0,0,1-.08.39l-2.36,5.24A4.78,4.78,0,0,1,170,5.81a3,3,0,0,1,2.26.92,2.66,2.66,0,0,1,.81,2,2.28,2.28,0,0,1-.18.9l-1,2.18a1.82,1.82,0,0,0-.2.77c0,.49.33.73,1,.73a2.19,2.19,0,0,0,.37,0,.55.55,0,0,1,.71.53c0,.39-.25.63-.71.73A4.89,4.89,0,0,1,172.38,14.56Z"/><path class="cls-1" d="M185.2,11.67c-.87,1.89-2.67,2.83-5.4,2.83a4.56,4.56,0,0,1-1.94-.35,2.89,2.89,0,0,1-1.38-1.36,3.75,3.75,0,0,1-1.83,1.38,13.12,13.12,0,0,1-1.57.33.55.55,0,0,1-.69-.55c0-.39.24-.63.71-.71a3.88,3.88,0,0,0,3-2,13.94,13.94,0,0,1,.51-1.92l.29-.61c.92-2,2.65-3,5.17-3a4,4,0,0,1,2.85,1,3.39,3.39,0,0,1,.79,1.14,3.06,3.06,0,0,1,.2,1.18A4.58,4.58,0,0,1,185.5,11ZM184,10.41a2.85,2.85,0,0,0,.22-1.08,2.21,2.21,0,0,0-.61-1.59,2.38,2.38,0,0,0-1.75-.67,3.82,3.82,0,0,0-2.34.79,3.44,3.44,0,0,0-1.22,1.47L178,10a3.09,3.09,0,0,0-.24,1.2c0,1.36.79,2.06,2.38,2.06a4.09,4.09,0,0,0,2.08-.57,3.18,3.18,0,0,0,1.43-1.47Z"/><path class="cls-1" d="M201.36,11.67a1.91,1.91,0,0,0-.2.79c0,.55.33.81,1,.81a4.69,4.69,0,0,0,.49,0c.39-.06.57.12.57.57a.62.62,0,0,1-.55.69,5.53,5.53,0,0,1-.9.1,2.3,2.3,0,0,1-1-.24,1.5,1.5,0,0,1-.86-1,7.35,7.35,0,0,1-1.14.88,4,4,0,0,1-1.65.29,2.76,2.76,0,0,1-1.69-.55,2.53,2.53,0,0,1-.75-1,5.33,5.33,0,0,1-1.26,1.06,4.1,4.1,0,0,1-2,.45,2.61,2.61,0,0,1-2.4-1.57,3.69,3.69,0,0,1-1.71,1.22,9.46,9.46,0,0,1-1.59.37c-.43.06-.63-.12-.63-.57a.65.65,0,0,1,.63-.69,4.47,4.47,0,0,0,1.53-.51,4.09,4.09,0,0,0,1.49-1.85l1.87-4.16c.29-.63.65-.94,1.08-.94s.61.2.61.63a1.08,1.08,0,0,1-.12.49s-.57,1.32-1.71,3.87a2.12,2.12,0,0,0-.2.9,1.51,1.51,0,0,0,1.49,1.55,2.65,2.65,0,0,0,2.38-1.77l.24-.57,1.87-4.36q.31-.73.86-.73c.51,0,.77.22.77.69a2.27,2.27,0,0,1,0,.35L196.06,11a1.84,1.84,0,0,0-.18.75,1.33,1.33,0,0,0,.55,1.1,1.53,1.53,0,0,0,1,.39,2.52,2.52,0,0,0,2.24-1.77c.31-.69,1-2.34,2.12-4.93a1,1,0,0,1,1-.73.59.59,0,0,1,.57.35,1.1,1.1,0,0,1-.06,1Z"/><path class="cls-1" d="M30.77,33.78a41.05,41.05,0,0,1-3.3,3.69L25.91,39a2.17,2.17,0,0,1,.79.9,2.31,2.31,0,0,0,2.14,1.41,2.81,2.81,0,0,0,.55-.06.56.56,0,0,1,.69.57c0,.37-.22.59-.69.69a3.07,3.07,0,0,1-.63.06,2.67,2.67,0,0,1-2.4-1.06c.1,1.45.14,2.44.14,3a5.27,5.27,0,0,1-1.28,3.54,3.58,3.58,0,0,1-2.69,1.39A3.42,3.42,0,0,1,21,49.16a1.13,1.13,0,0,1-.77-1,2.27,2.27,0,0,1,.22-1l2.2-4.87a5.62,5.62,0,0,1,.29-.59s0-.06,0-.08,0,0-.06,0a5.13,5.13,0,0,1-2.12.77,2.84,2.84,0,0,0-.37,0c-.35.06-.61-.2-.61-.63s.2-.55.59-.63a9.66,9.66,0,0,0,1.32-.37A4.72,4.72,0,0,0,24.09,39l4-8.74A3.1,3.1,0,0,1,31,28.1a1.72,1.72,0,0,1,1.41.65A1.86,1.86,0,0,1,32.79,30C32.75,30.85,32.08,32.09,30.77,33.78Zm-5.6,7.68c0-.14-.06-.2-.16-.2s-.31.27-.55.75L22,47.47a1.43,1.43,0,0,0-.08.33c0,.26.18.41.59.41A2.15,2.15,0,0,0,24.36,47a6.38,6.38,0,0,0,.81-3.44Zm4.42-10.92c-.83,1.83-1.73,3.79-2.67,5.89l.61-.61a20.85,20.85,0,0,0,2.36-3A7.13,7.13,0,0,0,31.36,30c0-.45-.18-.67-.57-.67S29.94,29.75,29.59,30.54Z"/><path class="cls-1" d="M40,39.91a2,2,0,0,0-.16.67c0,.51.3.75.92.75a3,3,0,0,0,.47-.08.63.63,0,0,1,.79.55c0,.37-.27.61-.79.71a3.26,3.26,0,0,1-.73.08,2.07,2.07,0,0,1-1.94-1,5.9,5.9,0,0,1-3.44.94c-1.63,0-2.44-.39-3-1.37a4.45,4.45,0,0,1-2.77,1.37.61.61,0,0,1-.71-.59c0-.35.22-.57.69-.65a3.5,3.5,0,0,0,2.4-1.49A29.21,29.21,0,0,0,33.1,37a4.85,4.85,0,0,1,4.79-3.14A3.36,3.36,0,0,1,40.55,35l.2-.45c.22-.47.49-.69.83-.69a.65.65,0,0,1,.73.73,1.39,1.39,0,0,1-.14.59Zm-.24-3.3a.72.72,0,0,0,.06-.29,1,1,0,0,0-.57-.88A3.35,3.35,0,0,0,37.52,35a2.77,2.77,0,0,0-2,.9,5.39,5.39,0,0,0-1.18,1.79l-.55,1.32a2.1,2.1,0,0,0-.16.75c0,.9.77,1.47,1.91,1.47a4,4,0,0,0,1.69-.39,3,3,0,0,0,1.06-.75,6,6,0,0,1,.39-1.08Z"/><path class="cls-1" d="M48.42,36a15.83,15.83,0,0,1-2,3.28,8.16,8.16,0,0,1-2.71,2.44,8.87,8.87,0,0,1-2.44.77c-.51.08-.75-.1-.75-.53s.24-.65.75-.75a7,7,0,0,0,4.22-2.87,13.49,13.49,0,0,0,2-4,1,1,0,0,1,1.06-.82,1.25,1.25,0,0,1,.88.41l.57.77a1.73,1.73,0,0,0,1,.75,3.84,3.84,0,0,0,1.85,0c.22-.06.35,0,.35.24a.32.32,0,0,1-.14.26A8.2,8.2,0,0,0,51.35,38a4.24,4.24,0,0,0-.75,1.67,3.18,3.18,0,0,0-.06.57c0,.81.39,1.2,1.16,1.14a6.49,6.49,0,0,0,.86-.1.62.62,0,0,1,.77.59c0,.35-.26.57-.77.67s-.77.12-1.12.14c-1.61.1-2.4-.67-2.4-2.3a5.93,5.93,0,0,1,1.3-3.65,1.77,1.77,0,0,1-.75-.24c-.59-.35-.73-.84-.88-.84S48.52,35.78,48.42,36Z"/><path class="cls-1" d="M74.88,39.69a1.91,1.91,0,0,0-.2.79c0,.55.33.81,1,.81a4.69,4.69,0,0,0,.49,0c.39-.06.57.12.57.57a.62.62,0,0,1-.55.69,5.54,5.54,0,0,1-.9.1,2.3,2.3,0,0,1-1-.24,1.5,1.5,0,0,1-.86-1,7.4,7.4,0,0,1-1.14.88,4,4,0,0,1-1.65.29A2.76,2.76,0,0,1,69,42a2.53,2.53,0,0,1-.75-1A5.33,5.33,0,0,1,67,42.07a4.1,4.1,0,0,1-2,.45A2.61,2.61,0,0,1,62.54,41a3.69,3.69,0,0,1-1.71,1.22,9.46,9.46,0,0,1-1.59.37c-.43.06-.63-.12-.63-.57a.65.65,0,0,1,.63-.69,4.47,4.47,0,0,0,1.53-.51,4.09,4.09,0,0,0,1.49-1.85l1.87-4.16c.29-.63.65-.94,1.08-.94s.61.2.61.63a1.08,1.08,0,0,1-.12.49s-.57,1.32-1.71,3.87a2.12,2.12,0,0,0-.2.9,1.51,1.51,0,0,0,1.49,1.55,2.65,2.65,0,0,0,2.38-1.77l.24-.57,1.87-4.36q.31-.73.86-.73c.51,0,.77.22.77.69a2.27,2.27,0,0,1,0,.35L69.59,39a1.84,1.84,0,0,0-.18.75,1.33,1.33,0,0,0,.55,1.1,1.53,1.53,0,0,0,1,.39,2.52,2.52,0,0,0,2.24-1.77c.31-.69,1-2.34,2.12-4.93a1,1,0,0,1,1-.73.59.59,0,0,1,.57.35,1.1,1.1,0,0,1-.06,1Z"/><path class="cls-1" d="M84,41.42A13.77,13.77,0,0,0,86,41.25c.47-.06.77.2.77.55s-.26.63-.79.73a11.92,11.92,0,0,1-2,.18,8.79,8.79,0,0,1-2.4-.33,3.23,3.23,0,0,1-1.71-1,7.54,7.54,0,0,1-1.47.59,20.44,20.44,0,0,1-2.26.57c-.37.06-.59-.1-.65-.51s.16-.67.67-.75a13.88,13.88,0,0,0,1.53-.39,15.1,15.1,0,0,0,1.55-.61A4.88,4.88,0,0,1,79,38.61a3.87,3.87,0,0,1,.29-1.53l.35-.75a4,4,0,0,1,1.51-1.79,4.65,4.65,0,0,1,2.55-.71,3.57,3.57,0,0,1,2,.57,1.92,1.92,0,0,1,1,1.61q0,1.16-2.08,2.69a37.13,37.13,0,0,1-3.22,2A4,4,0,0,0,84,41.42Zm-1-3.16c1.43-1,2.14-1.69,2.16-2.24a.82.82,0,0,0-.55-.73,2,2,0,0,0-.94-.2A3,3,0,0,0,81,36.83l-.25.55a2.73,2.73,0,0,0-.16,1,3,3,0,0,0,.18,1.14C81.61,39.06,82.32,38.65,82.93,38.26Z"/><path class="cls-1" d="M92.24,31.5c-.33.29-.59.33-.79.14s-.16-.37.1-.61c.51-.47.77-.86.77-1.2a.11.11,0,0,0-.08-.12.79.79,0,0,1-.65-.81,1.43,1.43,0,0,1,.59-1.1,1.87,1.87,0,0,1,1.22-.49c.61,0,.92.26.92.81a1,1,0,0,1-.08.41A7,7,0,0,1,92.24,31.5Z"/><path class="cls-1" d="M108.66,34.19c.16,0,.51-.08.61-.08s.24.1.3.31a1.22,1.22,0,0,1,0,.39.89.89,0,0,1-.37.53.86.86,0,0,1-.43.14c-.22,0-.37,0-.43,0a.69.69,0,0,0-.37-.16c-.16,0-.29.14-.39.43a16.27,16.27,0,0,1-1,2.4A11.72,11.72,0,0,1,104.45,41a8.87,8.87,0,0,1-3.65,2A2.65,2.65,0,0,1,99,42a3,3,0,0,1-.69-2,6,6,0,0,1,.33-1.89l.59-2a4,4,0,0,0,.1-.69c0-.37-.2-.55-.59-.55s-.55.33-.9,1c-.14.22-.45.88-1,1.93a10.78,10.78,0,0,1-1.63,2.77,6,6,0,0,1-3.56,2,.55.55,0,0,1-.67-.57c0-.39.22-.61.67-.69a4.58,4.58,0,0,0,2.4-1.2,7,7,0,0,0,1.55-2.26l.79-1.73c.71-1.53,1.53-2.3,2.44-2.3,1.24,0,1.87.49,1.87,1.45a7.88,7.88,0,0,1-.51,2.3,7.89,7.89,0,0,0-.51,2.3,1.65,1.65,0,0,0,1.18,1.79,6.62,6.62,0,0,0,3.52-2.77,10.89,10.89,0,0,0,1.71-3.58l.14-.86a.86.86,0,0,1,.92-.83.68.68,0,0,1,.57.22A1.1,1.1,0,0,0,108.66,34.19Z"/><path class="cls-1" d="M114.45,41.42a13.77,13.77,0,0,0,2.08-.16c.47-.06.77.2.77.55s-.26.63-.79.73a11.93,11.93,0,0,1-2,.18,8.79,8.79,0,0,1-2.4-.33,3.23,3.23,0,0,1-1.71-1,7.54,7.54,0,0,1-1.47.59,20.44,20.44,0,0,1-2.26.57c-.37.06-.59-.1-.65-.51s.16-.67.67-.75a13.88,13.88,0,0,0,1.53-.39,15.1,15.1,0,0,0,1.55-.61,4.88,4.88,0,0,1-.29-1.67,3.87,3.87,0,0,1,.29-1.53l.35-.75a4,4,0,0,1,1.51-1.79,4.65,4.65,0,0,1,2.55-.71,3.57,3.57,0,0,1,2,.57,1.92,1.92,0,0,1,1,1.61q0,1.16-2.08,2.69a37.13,37.13,0,0,1-3.22,2A4,4,0,0,0,114.45,41.42Zm-1-3.16c1.43-1,2.14-1.69,2.16-2.24a.82.82,0,0,0-.55-.73,2,2,0,0,0-.94-.2,3,3,0,0,0-2.61,1.75l-.25.55a2.73,2.73,0,0,0-.16,1,3,3,0,0,0,.18,1.14C112.09,39.06,112.8,38.65,113.41,38.26Z"/><path class="cls-1" d="M131.65,35a2.57,2.57,0,0,0-1.79.79,4.94,4.94,0,0,0-1.14,1.71l-.57,1.34a1.62,1.62,0,0,0-.12.61,1.85,1.85,0,0,0,1.41,1.73,7.9,7.9,0,0,0,1.81.18,14.35,14.35,0,0,0,2.06-.16q.73-.09.73.55c0,.39-.24.63-.73.71a15.16,15.16,0,0,1-2.4.18,9.58,9.58,0,0,1-1.87-.16,3,3,0,0,1-2.26-1.61A4.64,4.64,0,0,1,125,42.09a10.83,10.83,0,0,1-1.83.45c-.43.06-.65-.12-.65-.55a.65.65,0,0,1,.63-.71,4.66,4.66,0,0,0,2.49-1.18,4.24,4.24,0,0,0,.79-1.22l1-2.22A4.63,4.63,0,0,1,132,33.82a2.77,2.77,0,0,1,2.57,1.36,1.22,1.22,0,0,1,.14.55.78.78,0,0,1-.69.79.69.69,0,0,1-.69-.47A1.57,1.57,0,0,0,131.65,35Z"/><path class="cls-1" d="M145.4,39.69c-.87,1.89-2.67,2.83-5.4,2.83a4.56,4.56,0,0,1-1.94-.35,2.89,2.89,0,0,1-1.38-1.36,3.75,3.75,0,0,1-1.83,1.38,13.12,13.12,0,0,1-1.57.33.55.55,0,0,1-.69-.55c0-.39.24-.63.71-.71a3.88,3.88,0,0,0,3-2,13.94,13.94,0,0,1,.51-1.92l.29-.61c.92-2,2.65-3,5.17-3a4,4,0,0,1,2.85,1,3.39,3.39,0,0,1,.79,1.14,3.06,3.06,0,0,1,.2,1.18A4.58,4.58,0,0,1,145.7,39Zm-1.2-1.26a2.85,2.85,0,0,0,.22-1.08,2.21,2.21,0,0,0-.61-1.59,2.38,2.38,0,0,0-1.75-.67,3.82,3.82,0,0,0-2.34.79,3.44,3.44,0,0,0-1.22,1.47l-.26.65a3.09,3.09,0,0,0-.24,1.2c0,1.36.79,2.06,2.38,2.06a4.09,4.09,0,0,0,2.08-.57,3.18,3.18,0,0,0,1.43-1.47Z"/><path class="cls-1" d="M159,33.82a2.91,2.91,0,0,1,1.24.29,1.91,1.91,0,0,1,1,.92,3.73,3.73,0,0,1,2.89-1.2,2.67,2.67,0,0,1,2,.75,2.43,2.43,0,0,1,.63,1.75,4.06,4.06,0,0,1-.35,1.57l-.83,1.91a2.28,2.28,0,0,0-.26.94.53.53,0,0,0,.59.61.76.76,0,0,0,.22,0l.45-.08a.61.61,0,0,1,.73.59q0,.52-.73.67c-.31.06-.55.08-.71.1-1.16.1-2.34-.55-2.24-1.55a2.34,2.34,0,0,1,.16-.82l1.2-2.85a2.82,2.82,0,0,0,.24-1.08c0-.84-.45-1.26-1.36-1.26s-1.81.86-2.57,2.57l-1.83,4.07c-.24.55-.57.82-1,.82s-.71-.2-.71-.63a.77.77,0,0,1,.08-.35l1.79-4a3,3,0,0,0,.33-1.28c0-.79-.43-1.2-1.26-1.2-1.24,0-2.26.88-3.06,2.61l-1.81,4c-.25.55-.57.82-1,.82s-.73-.2-.73-.63a.77.77,0,0,1,.08-.35l2.4-5.3a1.37,1.37,0,0,0,.14-.59c0-.45-.24-.67-.71-.67a1.81,1.81,0,0,0-1.36.73,22,22,0,0,0-2,3.12,8,8,0,0,1-2.71,3,5.4,5.4,0,0,1-2,.73.54.54,0,0,1-.65-.57c0-.39.22-.61.65-.69a3.43,3.43,0,0,0,1.41-.51,6.76,6.76,0,0,0,2.16-2.14l1.41-2.14c1.2-2,2-2.65,3.28-2.65h.22a1.68,1.68,0,0,1,1.63,1.1,3.72,3.72,0,0,1,2.89-1.1Z"/><path class="cls-1" d="M174.31,41.42a13.77,13.77,0,0,0,2.08-.16c.47-.06.77.2.77.55s-.26.63-.79.73a11.93,11.93,0,0,1-2,.18,8.79,8.79,0,0,1-2.4-.33,3.23,3.23,0,0,1-1.71-1,7.54,7.54,0,0,1-1.47.59,20.44,20.44,0,0,1-2.26.57c-.37.06-.59-.1-.65-.51s.16-.67.67-.75a13.88,13.88,0,0,0,1.53-.39,15.1,15.1,0,0,0,1.55-.61,4.88,4.88,0,0,1-.29-1.67,3.87,3.87,0,0,1,.29-1.53l.35-.75a4,4,0,0,1,1.51-1.79,4.65,4.65,0,0,1,2.55-.71,3.57,3.57,0,0,1,2,.57A1.92,1.92,0,0,1,177,36q0,1.16-2.08,2.69a37.13,37.13,0,0,1-3.22,2A4,4,0,0,0,174.31,41.42Zm-1-3.16c1.43-1,2.14-1.69,2.16-2.24a.82.82,0,0,0-.55-.73,2,2,0,0,0-.94-.2,3,3,0,0,0-2.61,1.75l-.25.55a2.73,2.73,0,0,0-.16,1,3,3,0,0,0,.18,1.14C171.95,39.06,172.66,38.65,173.27,38.26Z"/><path class="cls-1" d="M181,41.38a1.23,1.23,0,0,1-1.22,1.2,1.05,1.05,0,0,1-1.06-1.06,1.24,1.24,0,0,1,1.22-1.2A1.05,1.05,0,0,1,181,41.38Z"/></g></g></svg>