<svg xmlns="http://www.w3.org/2000/svg" viewBox="0 0 127.7 63.76">
	<defs>
	  <style>.tips-link-cls-1{fill:none;stroke:#fff;stroke-width:2.03px;}</style>
  </defs>
  <title>tips</title>
	<path class="tips-link-cls-1" d="M11.07,9.71H1V1.52H29.83V9.71H19.77V62.23h-8.7Z"/>
	<path class="tips-link-cls-1" d="M38.19,1.52h8.7V62.23h-8.7Z"/>
	<path class="tips-link-cls-1" d="M59.58,1.52h13c4.77,0,8.27,1.11,11.25,4.26s3.92,7,3.92,14.24c0,5.29-.43,8.87-2.47,12.19-2.39,3.92-6.22,6.31-12.62,6.31H68.28v23.7h-8.7Zm8.7,28.82h4.18c7.08,0,7.16-4.18,7.16-10.23,0-5.71,0-10.4-6.82-10.4H68.28Z"/>
	<path class="tips-link-cls-1" d="M126.69,19H118V17c0-4-1.71-7.33-6.14-7.33-4.78,0-5.88,3.84-5.88,7.84,0,4.69.43,6.31,4.95,8.1l6.65,2.64c7.67,2.9,9.12,7.76,9.12,16.63,0,10.23-3.75,17.82-15,17.82-8.44,0-14.84-6.22-14.84-14.41V45.09h8.7v2.73c0,3.16,1.71,6.22,6.14,6.22,5.88,0,6.31-3.5,6.31-9,0-6.48-.77-7.5-5-9.21l-6.22-2.56c-7.5-3.07-9.46-8-9.46-15.6C97.27,8.43,102.21,1,112.19,1a14.22,14.22,0,0,1,14.5,13.73Z"/>
</svg>