<svg xmlns="http://www.w3.org/2000/svg" viewBox="0 0 25.67 21.17"><defs><style>.cls-1{fill:#af976d;fill-rule:evenodd;}</style></defs><title>twit</title><g id="Layer_2" data-name="Layer 2"><g id="PAGE_Home" data-name="PAGE Home"><path class="cls-1" d="M7,21.17c0-.11-.13-.08-.2-.11a14,14,0,0,1-4-.73A7.75,7.75,0,0,1,0,18.76a10.21,10.21,0,0,0,7.64-2.2,5.14,5.14,0,0,1-4.92-3.66,3,3,0,0,0,2.2-.21C2.43,12.06,1,10.39.73,7.55a12.13,12.13,0,0,0,2.2.63c.12-.48-.57-.64-.84-.94C1,6,.12,2.93,1.57,1a14.94,14.94,0,0,0,11,5.56C12,2.72,14.11.6,17.18,0h1.16c.33.14,1.27.27,1.78.53s1.16,1.09,1.78,1.15c1.1.11,1.89-.93,3-1a6.13,6.13,0,0,1-1.47,2.2c-.16.15-.89.3-.52.52a19.08,19.08,0,0,0,2.73-.73c-.39.41-.62.91-1,1.36s-1.4.89-1.57,1.47a8.5,8.5,0,0,0,0,1.78,15.27,15.27,0,0,1-4.4,9.53,15.15,15.15,0,0,1-9.74,4.4Z"/></g></g></svg>