<svg xmlns="http://www.w3.org/2000/svg" viewBox="0 0 352.09 63.76">
	<defs>
	  <style>.wholesale-cls-1{fill:none;stroke:#fff;stroke-width:2.03px;}</style>
  </defs>
  <title>wholesale</title>
	<path class="wholesale-cls-1" d="M40,62.23H31.78L25.13,22.84H25L18.4,62.23H10.21l-9-60.71h9.21l4.35,38.54h.17L21.72,1.52h6.65L35.45,41h.17L39.8,1.52H49Z"/>
	<path class="wholesale-cls-1" d="M58.72,1.52h8.7v26H78.16v-26h8.7V62.23h-8.7v-27H67.42v27h-8.7Z"/>
	<path class="wholesale-cls-1" d="M98.8,15.85C98.8,6,106.3,1,113.38,1S128,6,128,15.85V47.91c0,9.89-7.5,14.84-14.58,14.84S98.8,57.8,98.8,47.91Zm8.7,32.06c0,4.18,2.73,6.14,5.88,6.14s5.88-2,5.88-6.14V15.85c0-4.18-2.73-6.14-5.88-6.14s-5.88,2-5.88,6.14Z"/>
	<path class="wholesale-cls-1" d="M139.89,1.52h8.7v52h17.22v8.7H139.89Z"/>
	<path class="wholesale-cls-1" d="M175.7,1.52h25.92V9.71H184.4V27.53h15v8.19h-15V53.54h17.22v8.7H175.7Z"/>
	<path class="wholesale-cls-1" d="M239.65,19h-8.7V17c0-4-1.71-7.33-6.14-7.33-4.78,0-5.88,3.84-5.88,7.84,0,4.69.43,6.31,4.95,8.1l6.65,2.64c7.67,2.9,9.12,7.76,9.12,16.63,0,10.23-3.75,17.82-15,17.82-8.44,0-14.84-6.22-14.84-14.41V45.09h8.7v2.73c0,3.16,1.71,6.22,6.14,6.22,5.88,0,6.31-3.5,6.31-9,0-6.48-.77-7.5-5-9.21l-6.22-2.56c-7.5-3.07-9.46-8-9.46-15.6C210.23,8.43,215.17,1,225.15,1a14.22,14.22,0,0,1,14.5,13.73Z"/>
	<path class="wholesale-cls-1" d="M260,1.52h7.25l13.56,60.71h-8.7l-2.56-13H257.72l-2.56,13h-8.7ZM263.69,19h-.17l-4.26,22h8.7Z"/>
	<path class="wholesale-cls-1" d="M289.35,1.52H298v52h17.22v8.7H289.35Z"/>
	<path class="wholesale-cls-1" d="M325.16,1.52h25.92V9.71H333.85V27.53h15v8.19h-15V53.54h17.22v8.7H325.16Z"/>
</svg>